<mxfile host="app.diagrams.net" agent="Mozilla/5.0 (Windows NT 10.0; Win64; x64) AppleWebKit/537.36 (KHTML, like Gecko) Chrome/134.0.0.0 Safari/537.36 Edg/134.0.0.0" version="26.1.1">
  <diagram name="第 1 页" id="V7RDAhwiZrD2CCfZvKc8">
    <mxGraphModel dx="2084" dy="1146" grid="1" gridSize="10" guides="1" tooltips="1" connect="1" arrows="1" fold="1" page="1" pageScale="1" pageWidth="827" pageHeight="1169" math="0" shadow="0">
      <root>
        <mxCell id="0" />
        <mxCell id="1" parent="0" />
        <mxCell id="TNa1lOUyqJ2SGyIbjWE2-1" value="" style="shape=image;verticalLabelPosition=bottom;labelBackgroundColor=default;verticalAlign=top;aspect=fixed;imageAspect=0;image=data:image/png,iVBORw0KGgoAAAANSUhEUgAABGQAAAOyCAYAAAA1tAN5AAAACXBIWXMAABJ0AAASdAHeZh94AAAgAElEQVR4nOzdfVhU9503/vcMw/DMIGLkDIPi+AANTTFgRFKr0Z8xktjLtElKvE1zb7fuhmxCt6jZxLjbmHTNs3JviRu2zSa/O603odE23KtiiI2xa6MYJZKUFpM4YhjmoCIyPAwwDHPuP2bAAYaHgRnOzPB+XVeuMOec+ZzPd4xG3ny/3wMQEREREREREdGUUsjdABEREQ2WkZGR1Bcx49kQu+2uvtBIq7qrWe+t2taImQaFrbtd1de1/dMzZyq8VZeIiIiIPMNAhoiIyI8sXLUhO6rz6rGLaQ+F9YTHK7sjE71+j6i2eugu/N4sKUIe+eKj35V5/QZERERENCYGMkRERH5i8W05t/eGaQ7XLnlKMxX3S63e0xZpMT3ImTJEREREU08pdwNERETk0KdUFV9alDclYQwAGBd8P9YWEvHCVN2PiIiIiG5gIENEROQnJFV4XEfsvCm7X2dsCiRVeMyU3ZCIiIiIBjCQISIi8hPqrmte27zXn+9JRERERAxkiIiIiIiIiIimHAMZIiIiIiIiIqIpppK7ASIiIvJA+0HMOrxvjP+Br4Q5Lx+WKWqJiIiIiDzHQIaIiCiQxKzH1bz1LgeqEV9pQsfa9bDK1hQREREReYpLloiIiIiIiIiIphgDGSIiIiIiIiKiKcYlS0RERAFDRGzlFkRdH34mrGzfoNe2jD24miZMUV9ERERE5CkGMkRERAFDQNvaUrS5HmosgVCrwzXuIUNEREQUULhkiYiIKGBVI/4EYM4BoutEuZshIiIiIg8wkCEiIgpIImIrXwGW58MSsx4deA3xjXL3RERERETjxUCGiIgo0DSWQCjbAlV6KVqSHIesabvQbdwIofIg1PJ2R0RERETjwECGiIgogERWbXTsGZN3I4zpZ8kuhZgDaMo2QqiqlqdBIiIiIhoXbupLREQUQCzZpbCMdkHMelzNWz9V7RARERHRBHGGDBERERERERHRFGMgQ0RE5CesETMN0+GeRERERMRAhoiIyG8obN2t0W0Xp+x+UW31UNi626fshkREREQ0gIEM+bXExMSTcvdARDRVQuy2grlflpmn6n66C783q/q6tk/V/YiIiIjohhC5GyAaiVarfRHA92JiYqI6Ojr+IHc/RES+1mQyNsyY+80Pk+v/70NdUYkhCsmusIVGe/0+UW310Ne+2SYpVY/UfvyH97x+AyIiIiIak0LuBohGoBAEwd7/QhRF/rdKRNNGRkZGkj1c85xSsq3tC422qrua9d6qbY2YaVDYuttVfV3bPz1zpsJbdYmIiIjIM/wml/ySVqv9hSRJjwBQKxQKqyRJ/y6KYqHcfRERERERERF5A/eQIX8VCeAygC5Jki4DiJK5HyIiIiIiIiKi6UEQBEnuHoiIiIiIiIi8jTNkiIiIiIiIiIimGAMZIiIiIiIiIqIpppK7ASIi8p5lS27NjYywvRAdLsUYr6m99mQeAnQzrYaObkW7pUu1/dSZT/l0IiIiIiKaFD5lifyaIAgSH3lNND4/+v6iPKtN8ct/+r4x9lspnXK3E5Q+q4/Cy7/XmdUh0iNv/e6LMrn7ISIiIqLAxSVLRERBYNmSW3OtNsUvf7PlPMMYH/pWSid+U3heY7Upfrlsya25cvdDRERERIGLgQwRURCIjLC98E/fN8bK3cd08U/fN8ZGRthekLsPIiIiIgpcDGSIiIJAdLgUw5kxU+dbKZ2IDpdi5O6DiIiIiAIXAxkioiDgjxv4Hi0RoN0RC0P/gep4aDcK0G4UkHtQPXCd4eAst8cd1CjZITjPz0KJOFXdj80fP3MiIiIiChwMZIiIyPvEWOw+Pvh17ivA26UiTKVmpO3TOMKV6ngsP9mDE0OPOx0tmYnynGswlYowlV5FvjDVAyEiIiIi8g0GMkRE5GVqlLwWhg2begaOGM6GoWZlN9YAACy4Z6UK5WfVMJhCkJHTDb3L8fP9gYwYi90Nndi73jrVAyAiIiIi8jkGMkRE5FWOWS1m5GsHH8/Q2Qa+1utsqDGqoNf2oeZkuHNZkxpfNQB1JueyJVGFmmSgsn/JkuvyJyIiIiKiAMdAhoiIvKc6Hg/DjIpxzGrJ0NmAzBa8nRyF5RsFaDdqcD75RmhjMIUAx8OAx0WYSkW8nRyFx4btMUNEREREFJgYyBARkZeoUXIgDDiuccxoeSUMMERh+cZ4fAygxqgauNLg8vWafNG5R4wZqQ3AhixHmKPX9gErOwf2jVmztGdQDSIiIiKiQMZAhoiIvMSK/F394YoI0xM9gL4TJ0pb8FBWDzKOh+MoACASh47bBoKXAdXReA49WNu/ca9gc3kPcPR02KBlT0REREREgYw/aiQiIt8T2rB30yws3+hIW/KeEJ0zXyJRuFGDMgBAD94ubYPe5T0VTzgelQ0AWGmGiRv8EhHRNDJ79uxspVL5XG9v7/3Nzc3tk60nCMIbdrv9V5cvX64CAK1W+1tJkh4AAEmSdjY1NT072XsQ0fgxkCEiCgK6BKsBuJFl+IXMFpgyb7zUr78K0/qhF1lQVGpB0Wg1Sn3T3mTpEqyGarmbICIir/B28AEMDz8SExOfAXCXzWa7y1v3mIzZs2dnS5L0n6Io/iA5OVlrs9n+MHv27CP9/Y70Hl9+TomJiQ8oFIrfAoAkST9oamp61xv3IPJXXLJERBQEzJYQtaEpXO42pg1DUzjMHSHcYZiIiMaUnJysFQTBqFAolikUCtmDmH6XL1+uEkXxfQBoaGgwAfiTnP0kJydrFQrF7aIoKux2+zKFQrE5ISEhRs6eiHyNgQwRURBQq/reN7WE2eXuY7owXQuzh6rslXL3QURE/q+hocEkiqLObrfvnGiN0NDQ3wqCICUmJn6ckJAQk5iY+IwgCJIgCJJWq/0tcCP4GXpcq9X+tv8YgAfc1Z89e3Y2gOS+vr6/TLTHyXJ+ToWuh/xhJhGRLzGQISIKAleuhzyz4zfzeuTuY7rYsW9ez1Wz8mdy90FERN41NPgAHEuNvBl+TMAySZLe7O3tjXX2WKBQKG7v7e2Ndc4mqU1MTHygP/gRRVHR29sbK0mSRhCEpwGg/xiAU0OLJyYmPqBUKg+oVKofjTcA8dXn1F9DoVAU9fb2Frq9OVEQYSBDRBQEampqGufO6lx134vp5nMXo+VuJ2iduxiN+19MN6fcZLmjpqamUe5+iIjIqwYFHyqVat3s2bOzvRl+TNApm812pLm5uV2pVBolSVoMYG1oaGibM7zYCeBm1/AjNDS0DcAyAPPsdvu7AOAMWxpcC2u12t8qlcoHRFHUOZctjYfPPqempqZnRVFUSJJUGBoaejo5OVk72Q+PyJ9xU99xSE9PV2tuiiy299rXhcWE2Nov2/xr48wg1t7ejszMTEnuPqaTmNkqQ097n0oZqjxivmIpqK2t5WNtAsSvy7+syslZfPfWN+cVR4dLccZrar//s6q5uRkJCQlytzEuuplWQ0e34nqXLeQnJ4/Unpa7HyIi8rqB4EOr1RrtdjsUCsU63Ag/ADieRuTcBPc0gCTne9sAfO0afgiC0OD2LpOkUCiMCoXiXZPJ9APX485Ng3/V1NT0bP8mvQCgVCofAPCu89i3AfzKef0DADC0zjj4/HPq6+v7i1Kp/NpqtSYDGG9QRBRwGMiMYcWG25ItJvvFnB/OgGZ2aEhcUqjcLRH5mr61sRdtTb2bP3rd/uMVG26b98fyT3zyFwryvpMnz30MIEvuPsZDq9W+KEnST0VRLBJFcbvc/YyFT1QiIpqW/uKN8MObJEk6KUnSzc7lPgDQZrfb10qSdESpVFYKgrDTZrO1AWiQJOn/SJK0SxAEyWazNQL43KXUzZIkPeBSZzKPvp7059QfEDU1Nb0bEhJyM4A5arWafweloMZAZhTp6elqS6P94sNvJIfI3QvRVIpLCkVcUqjy4Tci8fbfNVxMT0+P5EwZ8jKFJElPOr9+CoDfBzJERDT9NDU1vZuYmOiN8GNCnI+gvqv/9ZDAw11wonFz7HZ3tZ3By0TCF3e1Jv052Wy2IyqV6n1BEH7b/34PllERBSSF3A34s9tX3fYftz80Y/OcrEjutUPT1qVqS9/JX1//z4+PffKI3L1Q8NBqtb+QJOkRAGqFQmGVJOnfhzxZgYiIAsNpAEvlboKIKBAxaBiFvde+LjYxlJ8RTWua2aEh9l77Orn7oKATCeAygC5Jki4DiJK5HyIi8sxCOL6XWApgl8y9EBEFJC5ZGkVYTIiNe8bQdBeXFIqwmBCb3H1QcDGZTJsBQBAESRTFOXL3Q0REg0i4MZN+FoCvAUQ4X1cCWAugCkC889hTAHZMZYPekJOTc3tkZGRxVFRUnNFo9PuN8AnQ6XSGjo6O1q6uroKTJ09+LHc/RJPFQGYUfJoSkQN/LxAREU1bjQAOu7z+kfPf77sc+87UtTN5iYmJz6xdu7ais7Pz8D//8z9rFi9ePOFau3fvxtatW73Sl7/W8na9SdbSnzt3Dj//+c8P//CHP7zrgw8+WDfBTYiJ/AL3kBlFZmam9Ddv8ge3RP//336N6urqif55EQFgE4BEOKY2z/BaY57h/iR+yDlDhv8vIiLyHyoAvXB8n7ACQB6AYwD2A/gLgJtdrrsAYK4MPU6KIAjSwoULu44fPx4x9tWj02q1MJm8s++sv9bydj1v1VqxYkXXV199FcG/R1Ag4wwZIvKlfwDwKoB9AJoAXALQJmtHRERENJqbABicXzcCeBiO5UgpuBHGAIAFQDmADAA1U9ifV+zatStM7h5ocp5//vmwH/zgB2NfSOTHGMgQka9sBLAGjs1biYiIKDAsBvApHI8ivgWAGkArgFUA6l2uU095Z16k1Wr54I4Ax19DCgYMZIjIFzIAPAnHX+qIiIgocNwN4BSA+52v1QDOAFgiW0c+oNdze7xAx19DCgZMFYnIF/4RwKNyN0FEREQeywZgHXIsqMIYIiJ/wRkyROQLWQD+l9xNeENWVla2QqFIlyRJrs2Ig5rJZEJWVpb3HgNBAABJktolSTr/6aef/jcAu9z9EFFAWQLgNpfXe+VqJFgZDMDgyR0GGBC8sz2Gj5eI+jGQISJfuAzHJr4Ba+nSpTN7e3vLJUlSSZJUIUlSjNw9BSu73S7I3UMQClUoFM9mZWWpbDbbIzU1NbVyN0REAWPoE2sel6WLgHUUhbmHgA1A3flU7C3KvxG1HC1B4SEgNfU8ystTsbciH4bCXOzGBmwYbw0YYDhajMceBraairCm/2hJLpaf3wpT0RpM1ugBige9uRmvflx1XMejdzteomDBQIaIfOFWBPBP5W+55ZYZvb29v1MqlZvPnj1bJ3c/wUwQhK2ffvrpNrn7CFIvfvvb347p6ur6XUZGxk8ZyhARDTVSKOAu9HAfhAxlKNkNbK1A0RrgaGEuKg35yO9PGtbkoz8vWXA+F5XHgfLUvahwXvBc2XNj1zAABv092JBxaNA4isuBjDRPxuju3AIU5x5C6gag/Pw92Fu0Zti8HY96Gzpel2tHreM6HrfjJQoe3EOGfOQ6DuZ+jlONnp4jkl9oaOibCoWigGEMBbo//elP7T09Pd8LCQn5zwceeCBE7n6IiPyJIxQoQlF+EbaiHJX9D/seCAFcL3ZzzF3N80CqM1jQpwLnDe6uOopDdRvwjb+WI+18JQpzc5FbeHR8NfR6rBk0fcWAksJDuGfv4Dk2Y47R3blfHwK2FiE/vwhbcQjuWvest8HjXetyauQ6Q8YzYk2i4MAZMuShLpz6yWc4lrII27dMxZYa13Ew9wt8jgTcXzEfC/sPN5rw1uYuLHc9RuQFWVlZcyRJyqyurv5M7l6IvKG2trYjMzPTbDAY/j8AlXL3Q0Qeeq/1GIA75G5jin2Ee+NW+fomhvNA6lrH1/pU4JABgB6OEADAV64Xuzs2oZuWIPcxYG9FPlBSDtyTj6KifMcSnQmVK8b5e4qQjxLsdnd+pDG6OycUIPVQLgoPpQGpBSiaQD9uGhwY73hilbHGQxRsGMiQZxqv46+IROIHRpzKm4FlSVNx00gkLmzGiQNaLLwvYipuSNPbLXa7/YDcTRB5kyRJ7wNYBAYyRIHoDtwbN3Rfl9G91yp59B5/vD5AuYYeroEHAEc4UbwAFRX963jcrjEavcYgBlSeB3C+EIWoQ00dUHJUj/w1E5xR8mmxcwkVUFJYjBJDkcsyIk97w/DxjllnpPFMbDhEgYCBjAutVvuWJEmtoigWyt2Lv/qyrAFY+S1sWPkVyk91YZlrQFJ1AS/sbHZ8fWcCbnF942jnXK55y6jFj9yELt94chGaN3+FU8tucR8CNZrw1uaGgV1kb9mZjfXZGJhJM+vOZnz+QQLufyMCJzZ34RubLTj2hgVAAu6viMf53C/wOQDcOVUzf8hf2e32cKVSOUfuPoi8SalUzrDb7T1y90FE5E88ChfGWzN/K5Cbi8JDQB22okLv2KC2eMFeFHxVDtSlobDQsR9KakEBUosdM1Lq6jYAqBmzRtGgsEWP/CLnPBZDCeqKFwwLY0Yb49BzivY6bHja8f61qXUodplNM57xFQ25t6Fy6HhvBDxD6+ytzEXhgr0ocjset+u+iIICAxkXkiTdqVAoZgmC8FNJkl6Sux//cx3nP4jEN96IQDxmAptN+PI+55KhRhPe2mnBqjeyHYFJ1QW88AGwaqxz4zYD63e24IWXTFj0Cy3iXU81mvDW5mv4xhvZ+FFS/+vPceqNW7AMANAMfDsb27c4zp1AM/6Kb2F7RQS+3FOF/bnA/RXZWI/rOJg7lTN/iIiIiEguo4cLE626BkVDZoTo8yscy3/WVKAif8jlRRUDX2q1z41dw/EK+RVDFhTp8zH0kOPwKGMceu7pr5D7WCHOpwF1dRuwt2J4PY96y3cz3hHrrBm8RGrQeNyMlyhIBGUgk5iYeEyhUNwxgbd2SZKkBgClUvnT5uZmAPxBeb+WA0Z8fqcO25MAYAa+sbAB56vmY2E2AGMXmu7UOQIRAMiOxy2wOL4e7RzgCEU+6H/VjBfeALAwGY8MDV6y5+P+P1Xh4yot1utcjg+tn6TF8jsbcN4IQAcACUjNdi2UgOXOWTgz50YCd8Y796EJR8JCC5qNABjIEBEREQW50cOF4SFAIAYDo41RPywUqXAbwhCRrwRlIKNQKO4QRdGztbYABEEwKhSKWZIkhUqSVJSQkPCUL/oLTF344rgF+PILvPCBy+F9JtyerQWMFmBwfDKgZZRzALBwi3P2yihLlm5cuwjncy/gyze4lwwREREREREFLj722oVCoTgiSdJroigqRVHcLnc/fqXKhGNfJuD+imxsH/hnEW75sgEfVwHxy2Y6Nvp1Psq65YDRsScLRj/nuRlYvxPY/9K1G4d0EYPqo9GEEx9EIkHn7v1ERERERERE8gvKGTITZTKZNsvdg7/68k/NSNz8rSGPmJ6B2zdH4j/+dB3rt2ixYfM1/MfmKhwDnBv3OpclJY1yzlX2fPwoe/hhd9fd/6cq7P8ycqD+j3Z24YX++ojEqjecm/82jlyGiIiIiKanzz77DN/61rfkboMm4bPPPpO7BaJJYyBD47JwS/aQMMYh/r5bsN316/tcTm4Zct0I50Y3A+srhj/1aGCZU7/s+dheMX/425O0+FHFyK9d+wcisOwX40mEiIiIiCiQvfzyy22/+c1vYuXugybu5ZdfNgPQyN0H0WRwyRIREREREU0rarX67x966CEzZ1kEns8++wwPPfRQm1qtfkTuXogmizNkiIiIKGAtvi3n9j6lqlhShcepu67pJ1vPGjHToLB1t4bYbQXnPjn5sbtrEhMTn5k5c+YLgqAqtlqldXFxdpvRqJ7Uvdvb2xETEzOZEqzpxZo6ndXQ2qpUqdWKI6JoK6itrbUmJiY+09TU9KwX2ySZSJK086233ipbtmxZW2Fh4QvR0dExRqNxQr+Ho6OjkZWV5ZW+/LWWt+tNppZOpzN0dHS0WyyW7adOnapITExM80pTRDJhIENEREQBadF37l3ai+7DlxbmaTpi53mrrD667SLmflF2eOGqDXd9eay8augFCoViZ2Rk2L88/fQFzJljDZk/v2vSN9VqBXzxxZeTrsOaXqupv3AhApcuqTc/9dT8Hz/44Px5x49bdgJgIBME+oO1U6dOVQDgg54DSHV19aDXDEkp0HHJEhEREQWcjIyMpMieKx/VZj3lzTAGANAROw+1S57SRHVePZaRkZHkei49PV0NAKdPV4esWmX2ShhD/mn+/C6sXm1Wnj5dHXLhguai3P0QEVHw4QwZIiIiCjj2cM1zX6fmhfnyHhfTHgpL/uK3zwIYeAqjIKiKW1p8eVfyRy+9dAGbNkXK18B7rZLP3+Nv10+B23Juu92uCilWRoTG9TV3TnrJI/leSEKUwd7V26q09RV8cvITt8tKiQIJAxkiIiIKOErJvrYnfKZPZ/r2hMcrQ+zWu1yPWa3SOl/ek/zTnDnWEEDGQObeOIVH17/XKnn0Hn+83ocSExOf0S27uULq7jsc9eBijWpe/IRrXd1/BrPuX+KVvvy1lrfrTbKW3naxBZZ3zh3O2rDqrsaqv67jsiUKZFyyRERERAGnLzTS2h2Z6NN7dEcmoi802up6LC7ObvPpTckvcWlacFEoFDulK50fxW5fPakwBgCa95/xUlf+W8vb9SZbSzUvHrHbV2tw1XJMoVDs9E5XRPJgIENEREQBR93VPCXLC4beZ7JPUyIi/xD5UJZPlzyS70X8kL+GFPgYyBARERER0bSinBnJ74MCXEg8fw0p8PE/4lHEzFYZ5O6ByB/w9wIRBSp1u+j2n2Bg8OKfzN6s5WvTddzkXSGJMXK3QJPEX0MKBgxkRtHT3qdqbeyVuw0iWbU29qKnvY8bgBNR4GkXoWpz/tP4GjSNN16r26emhYl/wx+Jwtx4FJbEI7cwFoPKHI1FYWEsKivjkZvbf04Nw9F45GrjcdSntcZnuo6biIjIEwxkRqEMVR4xX+7tk7sPIjm1NfXalaHKI3L3QUTksRgBlqRMxz8xyeiLyRx4bfXKD1Z99w2/oSQK2NqCovwWbEUYKl2Lr2lDUVEb8vNbsDXNec4AGPTd2JDh21oTG/f4x+7f46bppxXWcR2bHGtwTNobUbCPj2gy+FPvUZivWAqOv27/8cO/kvExh0Qy++j1a1JXV3eB3H0QEXlGRGRdOcLNzpfmBoSgBPFG52vNUnSkZU7qGyvHN/xXUbQGOFo4C5UGIL9/y981bSha4/hywXnnOfR/wx8+du3zQOpax9f6VOCQAcCw7YQjcaiuBwV6ALBiDYCvfFxrQuPWwyXsGH3s/jxuCkb1MD1tAHKAbmM8dI8uhrr/lFgP03utUOMrtGEJ9I+moP31/biKBYgFEOt67Xhroh6mp88AyfGATo+EpFY0VwFqXQvaTsaPs0YrrNXVML4MzHpnNfqzZet/7ccF4xJ849GUSX8qVhFQCyOd9aC36nMwuYxP9/zQz2KkOkPH437MRMGAgcwoamtrrSs23Dbv7c0NF+94dKYiNjFUGZcUKndbRD7X2tgL8+XevuOvX0NkknLemfJab/8wiIjIxwRY0vJhcb6KrNqBKM0GtKSN+F2Gx2T9ht8Qi9zHgL0VbcNv6eNano8bgN5LY5dx3BR8rP91Brj/fmgzgfbX96NNXIyE/j8ihBRoHwWAFOD1eljFc7iqWwP9d+MmXlNsBXLWQOtSQ5vp+HeYcT+MhvHUAHoEPWL1rlO+6tF8EghLdtfRWAGR67k4ND9tgDoHaDPqoXs0ZVjo5FFvmYsHjc/12lHrDB2P2zETBQcGMmP4Y/knDenp6ZEf/+Z6sb3Xvi4sJsTWftnG/29PkebmZiQkJMjdxrQSM1tl6GnvUylDlUe6LN0FDGOIKOC1H0QU7oMZ5Yhtz0fbVP14dRLf8LsGHa4ByEDdYhsqKiwjvd1ntcZluo6bAk6PEVAvcXwdpgPaRQAuma21uh5tVQZYs1cDZ/Yj3AiYnv4K3cmOGTMTqdl9shomI6C+d/WgAKK9YQGA5rFrCHGIAdAzULEVza8bEFOwAN3vDe9ntOBj2Lmj8cD9q5GQCYS9/iF6MDyQ8ay3weNLcPkcRq7jZjwj1iUKfAxkxqG2ttaKWjwidx/TjVarfVGSpJ+KolgkiuJ2ufshIqLAo248CE0tYF6bCSsEhFfuQGz642hLmvxMGV9+w6/P7wRyZ6HwEFCHTlToAUPJLBQvMKPgqzCgToXCQsfyn9SClhtLhnxcazqPm6YftRCH2Hvj0Vx8DtYcANmLoX10Maz/tR+m6pSB2R/jJiyG/nkAaEXz0x+i/fnViBHPwVAM6J5fDPODpzzu0fpf1bBmr0YCzuGqm/OjBSjDzsVnQl21H6aqeECXCa3H3bjhMj73S7wGG2s8RMGGgQz5K4UkSU86v34KAAMZIiLySGTdDsfMmLX9e8UIaFv7OCLryjGrbimupnn63dRgvv2G34KiIaGGPv8qigBgzVVU5Lt7jxX5FS0+ruV+3IBj7M9/oQDqbEE5blm91yr5/D3+dv0UcA0oXMOJAUIc1FiMmOQPISXFuyvheU0AQBzCklvQU3MOVz+Og/75lAnUAIBWtBkBGD+ECS3oaQCaq+OQkDn6sqoRfVWNNt0a6L8LNL9ejWZx9aBZLZ71BkcY897w8Y1cx8vjIQoADGTIL2m12n+TJMkKQK1QKKyCIBSJolgod19E/u7WJUtybSERL0iq8Bh11zW//3lve3s7MjMz/e4v6e5YI2YaFLbudlVf1/ZPz5ypkLsfGpslbReGz9MYvLfMJO8QPN/we2T4uAHH2N8Y9X3BMHaZ3Bun8Oj691olj97jj9dPAfV3lwBP74epCujGEugFx2ayzUlrkNBYjWYjALSgW7cE+sw49LzumD3S3bAAuuc9r6lFPUxVLQM1dV+fQVtDPEyvG8ZfY1A4EYeERxS6TkEAACAASURBVFc7vhTPofu94eHFaAHK0HOSpQWx/8Px/lhdC5qHLLfyrDfAeuYrwGV8rsu0htbRndkPU9IaaMcYD1GwYSBD/ioSwGUACZIkNQOIkrkfIr+36I7v51nstl8aF3w/tjM2Re52gpE+qq0eugu/L110x5xHvvjod2VyN0RERJORAu2Q2Rvq797vWKqTuXrYkp2ER++fXE0sHrLMKQX67954ZT7+xThqAEAcEp5fPfi2wmLoHx3ezagBytBz/6MVhuIPYU3GKKGTB7199/5B4xu9Tsrgz3vYeNyMmSgIMJAhv2QymTYDgCAIkiiKc+Tuh8jf3bpkSa7Fbvvl+cwtsXL3Esw6Y1Nw/tZCTWr1nl/eumRJG2fKyMcakeD22T4+us8Anc5qEEU+lIeIAsVoAUrcsHP6EWb+EJFvKOVugIiIJs8WEvGCccH3GcZMEeOC78faQiJekLuP6Syk16IOtzT59B7hliaE9HYM2oeytVXJH2ZNQxcuRMjdAhERBSEGMkREQUBShcdwmdLU6YxNgaQKn6qHJ5MbfUrV+2HdLXZf3iOs+5rdrlBVuh5TqxVHfHlP8k+XLql9+t8aERFNTwxkiIiCgHc28K1GfNlGCC7/xDdOvuq47115cMgjMasRX7YDse1T1YNnAmHT5GAW0nX9mXl1v+nx5T3m1e3rUXabf+Z6TBRtBb68J/mnp56aHxCbj9P42eq5wXSg468hBQMGMkRE5GIlzHmlEPNKIebtga12I4Sqapl6yURL3i60cR4KuVFTU9PYGTVrVfqZF83RbRe9Wju67SLSz7xotoTddEdNTc2gWLK2ttYKAEuXZvZ9+KHGzqUswevChQgcO6bpW7o0s2/+fPM8ufsh7+o68Hmb3D3Q5HT97nOz3D0QTRbXQRMR0QgEtK3dA1S+htj2TAYj5He+PFZetfi2nLvn1b5ZLKnC47wxa8n5ePPrIXbbT2o/OXLa3TWSJO20WHpeeOGFlGKrVVoXF2e3GY3qSd07OrodWVmZY1/ImlNSU6ezGlpblSq1WnHEYukpeOedC9bExMSd3uuQZKdS/H37nuP/EfH9WzSqlHi5uyEP2OpbHIGaSvEIgHfk7odoMhjIEBHRKATYNAaEtwGRf9kITb3z8IxNuLZ2PVRVGxGuK0VLEqCu24GZ5vsgZmcC7Qcx6y9aXL3ZhFkngR7NPkTV33ifdVz3rkZ82Wl0361D1Ag11HU7MLPG+RCclCcc90Y14steQVh/mZQnIGYD8ZUm2DT7EFW/Eua8fFi89hmRnM59cvJjAFlTec+mpqZnm5qaUFuLR6byvjR1qt1MDGxqanp26jshX5Akaecnv/tD2ZIlS9o636h6QRkRGtPX3DmhUDU6OhqtheVe6ctfa3m73mRqhSREGexdve2KLtv2M2fOVCQmJqZ5pSkimTCQISKisV0rgQZPQMxz/MQ5smojNHVZuKpbCY2xGkgSEG5ORo/5NCKRCVvjSfTpdgEwAdf3QZVeCjFbRGzlFkQ3rkdLkof3d1cj9iA0X+fgWt6ugXAmvjETLUmZaMkrdb5RRGzla4htv8+lhhc/FyIiCjj94dqZM2cqAFTI3A5NAoNSCnQMZIiIaBTVCK/Xw57agB5d/sBRi24lNEYRSFuKnloT1O0mhGEpzHMOILpRhO3rZHSvBdAOYMYmdCQBjtk2zv/xNJZAOHEcANCzvHTsgMZNDXXjSaiuGzCzbN/AZbYMEYA4eIYM9OgcVIOIiIiISH4MZIiIaAQiYitfQUjGHrTElEMwVgNJzhkyxuMDAU235gCi/wL06XbBitMIq30NIZr7MOpuiUn5EPPyR7tiTNaYZCDFuUTKhbruNYRk7IGYJsCxfOnApO5DRCS791o9f8qTp+/xt+t9KDEx8ZnZs2e/ETMj4dm+PttdkdGx1uuXGye0ZKm9vR0xMd7ZZI21RjdjdpLB0tGmDlGFVra3XP3Z0E3XiQIRAxkiInJxHJqy49A4X/UsL8XVJADIh9m4EUKZ80TKExCds00sumRoTgDmbABYip4Tx4H0CWymeX3fjdkuMzbh2lrt6Ncn5eNa+w4IZa84D+jRefcutCXlAIe3QKhxHLPNAGyed0NE5D/ujVN4dP17rZJH7/HH631IoVDsjIyJffKeHz8VppmlVSYkpUy41j+uXYBdvzvnlb5Ya0z65sZ6mK+Y/ub//sdzG9c/8PAdB9992+3m60SBgoEMERE5ue69MpwluxQWd/uvJOVDzBuhRsx6XF07pIYH925x7lljGaGGNW0XxGHb+a3H1bz1w2+x1rtPcSEiosBzW07O7cb6ehS+foTPrA9ACUkpSEhKURaWHIn41VMPVd6Wk3P3JydPfix3X0QTpZS7ASIiIiIioqkQpo4olrsH8o7cv/0nTZg64hdy90E0GQxkiIiIiIhoWgiLjIqTuwfyDt2ibyEsMmqG3H0QTQYDGSIiIiIimhYmunkv+Sf+elKgYyBDRERERERERDTFGMgQEREiqzZCqKq+caCxBELZRghlGzGrTgQAqOt2DByLH/SgSRGxlRud53Ygtt3leNVBqMe6l9/0S0RE1O8irrg5esU4dfeSi7fHOLzeh9j3+JPY9+6TePXVN9x/zu9+D//46ocALuLKqSfx6ton8WfvtkXkF/iUJSKi6a79IKLqAaTceD3rBGDOK4UF1Ygvew2xqmREfZ2Da3m7YEU14stKEJmXDwuAyKotCJuzB+JaYaCkum4HZppz0AkgvGojNJo9uJomDL+Xn/RLRETT0YfY9/j7wEpAvLQQD2/bjJsAwPgh9r1jgIBDqEYBtm1bDZx6A/tOAMLcL1F9fCEefs157XhrOl1593vYdakA/7ZtNQDgz69+D0dwDzLHVeMirpwqwds/A9ZVvoRvjlJ37FrujjuOCSuB6kt34eFtq92M0YPe3Hxmjl6LgYd+j03LHOP/s3EzVusG3+OD40ByCgAjcEV3FzIXvT/CryFRYOMMGSKiaa0a8YeN6Fy+8sahNiOQscH5aOlMdKcYEHqtAbY5WbA6j3VkNCC8EY5wxLwJ5rTB4YY1bRdEnRFR9fug0pU6whh39xrG/awaX/dLRETTjyMYeAmbHngJ63AIf+6fyaFbjU3bNmP1tj3IhMExg2PZZsexB17CuhSXa8dbE8BA0ND/0vgGjszdg23bNmP1ts1j1xgIJ4bedUjdcfTj9vip94GHXnKMEe+PMHPFg95G+MyuXAIEZwBz01xAHPQZXcSHr76PjKfucbzUzcM3dfPcdEIUHBjIEBFNY5FVrwDL851hhoO6vQF9MTcCC5tGDyVmQvX1WWdQIiL8a4PjZJsRmANEO5cGCZX9YUo14mt1uJa3B7Zax7Igd/caTkDbzYBm2DIjX/dLRETTzWjBwJVTH+LDV0sgLh86E+ZD1NTfg28OmtExnppDggYAV04egnDpD9j3+Pfw6qsfjl3DbTgxvO54+nF7fFk+hBPfw75Xn0TN3PxBM3Am1lu/0T+zQfXfLYG4/CW39yYKRgxkiIimKXXdDkRp9qAlaRwXazbCrNmHmWUbIZS9BpXmxkMNVDVGdOeVQswrhVmzD5o6EUAmWtauhxUC2tbuQnejB/eKWY+reaXoNg4OTHzbLxGR/0pMTDwldw/TzU26efjmgwuB37jscWJ8A68+bsCdIy5XGtmIQcPyzdj02u/x8NziCfXp1QDjVAmq5+7Bpm35EC6V4ENv7CXj5jMbKRgCLuLPlwCceBL73jmEhvpifHjqoheaIPJf3EOGiGhaqkZ0jQEqbIFQ03/sOATzJpjnACHtIgDHrBOV2YA+nQBLWiks2Y4rI6t2QBULoA2wDSwXAiy6lYgatknuyPe6lm7EzBPHAQA9y0sHhS2W7D1QVW7BzCotxGxMYb9ERP7jpie/AykiOlu955hk1d86/je+1yp5dCN/u34K3DQXqDEC0DmDgRyXk7p5uAmbkZHyJK4AuMn4Bl59R49trw3do2U8NZ1Bw6UnsQ9foKEe+PDUPKxOHrb2aOy+Bhmh7rJ5Y9Zyd/zP73yBzAcd7/3m3C/wgfP8xHqDI4xx85nd9EAB8Pj3sO8EIKIA23SOPXA+SN6DTdteGniv+I7eORaGMhS8GMgQEU1LmWjJK73xsrEEgnEpxOxMoB2IOlyOyLR8WFCN8PqV6M7GoGs15hxciwEQsxR9Zf3XApHG4+jT5Y//XgDEPNfrRcRWbkHUdQDQo/PuUogxjjNT1y8RkX/QarV/sne0Qin1WeNf3vgvTU1NL4/rje+1Srg3TjHuG/nZ9dGb/1XqGHfxiRsaDDx88nvYl7wHdzaU4INLAPAFxLkF2AbH8iLUL8K+Vx2bywoPvjRkI9rRa7oPGvIhvPo97DuxCGL9PQA+H73GsqFLguZhtdu64+jHTSiCB+/Bqy8+CTEFEOvvwcOveTC+Yb25/8wcVmPTsJDm99jkekC3Gdu2uYzztZdAFIwYyBAR0WAx62HO2IGZZRuhgWPmiuPpRa8gDACwEua89QMb5rYsPw3BeS1SnoA4niVFIxLQtrYUbQHTLxGRbyQmJv5CkqTFCskGCVArlcp1AMYXyAS48M8/QowgZImieNa3dxoaDKx2hALLXhocDsARGGx7YBI1+w0NGrb9fuDUP659cRw1RggnBtUdTz/zhoUi0G3GNjchzPjqDe/N3WdWPlZ5ommGgQwRURCwRiQYAOjHvHAkSfmDgglr2i6Iaa4XDJnlMvS9eR7MMhlyrwmZyn5H4PzMiYh8oqen51/CwsKMUkTMSyE9nd2SJM2Qu6ep0jsnHaFf12YB8HEgQ0QkL27qS0QUBEJ6LepwS5PcbUwb4ZYmhPR28AFNROQz169fN0uSdLxPmA+TyRShUCjulLunqdI7Nx0AsnxRe8bsJIbpQYS/nhToGMgQEQWBPqXq/bDuFrvcfUwXYd3X7HaFqlLuPogouCkUihXWhUsAACaTqVnmdqZM7xzfBTKWdjNXCASJ5saL/PWkgMdAhogoCIR0XX9mXt1veuTuY7qYV7evR9lt/pncfRBRcFMqlSt6Fvgkl/BrvgxkQkPVR3xRl6beNfFrO389KdAxkCEiCgI1NTWNnVGzVqWfedEc3cbHQ/pKdNtFpJ950WwJu+mOmpqaRrn7IaLgJknSCuuC2+RuQy5nBUHweihz7YpY4O2aJI/yf39G4q8nBTpO8SIiChJfHiuvWnxbzt3zat8sllThcequaxPf5HeKNDc3IyEhQe42xsUaMdOgsHVfD7HbflL7yZHTcvdDRMEtKSkpw263X5QiojPk7kUmZ+GYJePVjX1ra2utyXPnFr38t3f8ZMM/PKuYKcxRJiQNf2TzeK374U+81htrja258SJamhr63tv7M8Rr58+rLH/H6qXWiGTBQIaIKIic++Tkx/DRNG9v02q1L0qS9FNRFItEUdwudz9ERP5EkqQVkiT9EcB0D2S8ruHSpS2x0dFPffD2nuLeXuu6yBiN7frlxgn/EKPm6Lte6421RjZjdpLB0m5WhYaqj3RZLAUMYygYMJAZh4yMjKS+iBnPhthtd/WFRlrVXc1+/1PnYNHe3o7MzExJ7j6mE2tEgiGk16K2K5SVym7zz7gsg3xEIUnSk86vnwLAQIaIyIUkSSsAlAGYrksyzgL4e18Vr62ttaK29hFf1SdfqJa7ASKvYyAzhoWrNmQrOq8ea1j0g7Ce8Hhld2Si3C0R+Zo+3NKEsO5rfzOvbt/GRd+5944v/vs9Ls8gr9Jqtf8mSZIVgFqhUFgFQSgSRbFQ7r6IiPzICkmSHpO7CbmIouiTPWSIiPwJA5lRLL4t5/be3p7D525/PkLuXoimUndkIrojE5Xnbn8+Iv3Mi5WLb8u527kUhshbIgFcBpAgSVIzgCiZ+yEi8htarTZVkqTrly9fvgLgI7zX6vlsYU/f41/Xf+T8d7VWq800mUycGkFEQYmBzCj6lKriS4vyNHL3QSSnS4vyNPNq3/wFgCVy90LBw2QybQYAQRAkURTnyN0PEZE/cS5X+iMA4N64VfJ2I6szkiQtAdeqEFGQ4mOvRyGpwuM6Yie+6zpRMOiInQdJFT5D7j6IiIimkZUAjsvdhB/w2ca+RET+gIHMKALhkbFEU4G/F4iIiKbUCoVC8Ue5m/ADDGSIKKgxkCEiIiIi8hOJiYkpAPpMJlOD3L3ITRRFBjJEFNQYyBARERER+Y8b+8cQ4NzYV+4miIh8gYEMEREREZGfUCgUXK402FlJkjhLhoiCEp+yRERERETkP1YolcqX5G7Cj5yB40mPv/J24fT0dLUgCMVWq3VdXFyczWg0cs88P6fT6QwdHR2tXV1dBSdPnvxY7n6IJouBDBERERGRH5g1a1YigBij0fil3L34kbMA/t6bBRMTE5+544473rxw4cLFp59+GnPmzAmZP3/+hGrt3r0bW7du9Vpv3qwXpLX0586dw89//vPDP/zhD+/69a9/XeWVpohkwiVLRERERER+ICQkhMuVhvDFxr4KhWLnhQsXLp4+fTpk1apVEw5jAEe44E3erBestRYvXowDBw5o6uvrj2VkZCR5qS0iWTCQISIiIiLyA0qlcoXdbg+kQKYTwGEA/wCgxYf38frGvi+++KLCm/Vo6j3//PNhN91007Ny90E0GQxkiIiIiIj8wwpJkgIpkHkbwN8COAAg3of38frGvnPnzuX3QQFOq9UqrVbrXXL3QTQZ/IOIJqga8WU7ENsudx9jCZQ+g44Njp+aERER0TikpKTESZKUfPny5c9lbuVnACQA4c7X/wtAF4BI5+sHAXwFIATAOjhmxlz2cU9eX7Y0mWVK5B/0ej00Go1V7j6IJoOb+ga9asSXvYIwlyM9y0vR4tXVllNxD28TEVv5GpCzC20xcvcSdGLh+Etbl9yNEBERBQqr1eovs2MOAvgBgG7nazOAcwAsztfZABYAiAKwAsDvAKz3cU9nAPydj+9BAYhPxqJAx0BmWtCj825fBw9TcQ8KEHMAHJK7CSIiogCzAoA/BDK3Aqhxfj0DQBiAL5yvBQD9j+QuB/AvAN4C8CmAb+NGaONVoiieFQTBqzNk5GQwAPpBMYIBBugRzMnC8DETEcBAZvpqLIFw4rjj6xmbcG3teljHOud6PGUlesZzn/aDmHV438B/aAMzZ9oPYtZhI/pSjiOsfiUsKccRouufVVON+LIDsPUHPI0lEIwz0VP/uxuzcFKegJidOayOOS8flon0OWDIbJ+UH6PT/J8Im7MHV9OEG5+Pcanj/iN9Vu768qiPgPYOgI1yN0FERBRIJElaAeAxufsAkAlHwAI4wpdeOJYMAcBmAD93fr3G5T0HpqCvaq1Wm2kymaqn4F6TcBSFuYeADUDd+VTsLcq/EbQcLUHhISA19TzKy1OxtyIfhsJc7MYGbACwtih/HHUMMBwtxmMPA1tNRQO/CIaSXCw/vxWmItdflokZOzzxoDc3Yx7zcxo2HvdjJgoGDGSmo/aDmFWrw7W8UlgBqOt2QFOX5QgcRjqXdBazTjSg8+7SGyFJvWOjkFHvc/gkeu4uxdWY/tc7EHv3LrQBAI4DulKI2QAaAcFYDSRlAo2nETIDCGkUgTQB6vYG2DQb0JL3gLOwI7CJvTlzeJ32g573OUgmWvJKB90HWSuhMpyFOm09rBARW9uAzpz80T/HoX1ND0kA9gPYBkDu9e9EREQBIyUlJbynp+eWpqamT+TuBcDtcPz//O8A/D0cs3YOwPH/93+Vsa/+jX29GMiMFgoMDQHGFwoYSnYDWytQtAY4WpiLSkM+8vuLrslHf16y4HwuKo8D5al7UZE/PP0YsY4BMOjvwYYM18nIR1FcDmSkeTrGoecWoDj3EFI3AOXn78HeojVuZ+141NvQMRvyx/6cho7H7ZiJggMDmWnBgKjDGxEFANCjKxVQXTdgZtm+G5ekiAAEqBtPuj8XY4Qq5T5HsAIASUvRg4YR79F59y60tQ15T8x6dKbsQ3gbHLuMYCW6+/eZidXBVn8akdmZgLEBPTn3QXXyLNRpWQj/GujJEeDY92ULoq473+OuztB7DutzPIbcJ+JxdGILohvXoyX2LMKQA3MMoK4b4bNCfyDj0lfw+g6AdwGEArgC4HEAf5C1IyIiogBjtVr9ZbkSAGgANABodL5eDKAVwAdwbPYrl/6NfX/lrYKjhgJDQ4BxhgKG80DqWsfX+lTgkAEYnmocxaG6Dbj3r+U4fx4ozC1HXdpWVLjMbhmxjl6PNXDsqtzfWEnhIdyzdwPqij0b47Bzv04DthYhfw2woLAQBowQyIy7t+FjLtADz436ObkZz6h1iQIbA5lpYfD+Luq6HYjoX/Ljjptz6roDAJaO+x4A4Jy+Mj4xWeiZcRKq9mqozDnoiBEQjgMIb4QjAGkrgXDYMfNFjHEEJu7+41W3N4zR5xgaSyCcGHofAW3pKyEYqxGJfehLd86IAdx+VtPMRTjWjocAmAvHoy8ZyBAREXnAuVzJXwKZWAAvArjf+ToGwE8BPCxbRw5n4Vgy5TWjhidDQwBvhQKGEuQ+BsfSnZJy4J58FBXlw1CSi8Kjni/GMZQU4/w9RchHCXa7Oz/KGIedEwqQeigXhYfSgNQCFE1ogG6bHBjzWNvIjDUeomDDx15PQ9akHNjqD9x4FHTjwYGvRzo39Li67sCgpyq5FasbXKv9IKLq9bDFurtYQPccIOzkAYTMyYLV+VplNAJzsoD2BiDlPkfg034WYdfd1Zhgny7UI90naQM6za9AY96EjiT393L9HKcRI4DtAP4JQB4c04j/j6wdERERBR5/CmRmwPH/dMDxvUIPgP8pXzsOoiieAbBE7j7Gok8FzhscXxvOA6mDN0ZBbvECVDiDCf0Ct2uMxq5zoyAqzwM4VIjC4nLU1O1GyVHDxJv/tBjlqXtRVFSA1PPFKBmh1Ph6629x8JhHr+Hl8RAFAM6QmY5i1sOccRIz+5cYpTxxY5+TEc8NPb5y7KVAMetxdbkRwtClTDEA3AQX1qQcoOakc3mS43VIzUn03C3AGnMfespegVAPYMZK9MwY79hG69N1mRWcm/KOdB8BNg1g02Td2Px4tM9x+toN4HUA+QBKZO6FiIgoUHxHFMX/lrsJpzUA+pxfqwCshLxLlVx5dWNf1xkjrrNFJlUzfyuQm4vCQ0AdtqJC79igtnjBXhR8VQ7UpaGw0LHsKbWgAKnFjhkpdXUbsLcCKBuhzt7KXBQu2IuiNYNiDeQXOeexGEpQV7wA+WsGpyOjjXHoOUV7HTY87Xj/2tQ6FLtdbjXe3pxtVQ4dc9HoNcYYD1GwUcjdgC8IgiCJojjpsWVmZkrVK/Z4oyUKdM6nJnVOr6clDcj84xZUV1eP9/fUTQB+C2AV/OcvcON266233qdQKDZWV1ffP/bVNFne+vOaRpeVlfVzu93e8+mnn8q5IScRuSEIwgoAPxdFcaXcvfg7QRB+CeATURQntY+MIAiSyWSCY1Pb3UCaMzwpWjMQnjjCBQNKcouxoKJ/E9+hrwGtVgtHLe/wZj1HrbdHGaNh8LmCr5D72HmkpQF1damDlhh5vy/v1MrKyvLk76hEfoczZIjGEFm1EZp6xyO7p2MYMwHX4XhCQ8CFMURERFNNkqSVSqXyuNx9BAgvb+y7BkUVg/dt0edXuOydokd+hetOKkNfB4LRxqgfcm4NKiqmsDUi4h4yRGOxZJdCzCtFS/A/MclbegEcBRAvdyNERET+TqFQjLp/jHQcz3ha09P3BND1/YEMEVFQ4AwZIvKF28DAl4iIaDxWzJgx454Rl3BI2Cl9hJ0eVZQAj97jh9cDeHboYVEUzwiC4Pcb+9LU0el0hupqr2wpRCQLBjJERBOQkZGR1Bcx49kQu+2uvtBIq7qrmbvOTUB7ezsyMzO5vG2CrBEJhpBei9quUFYqu80/q6mpaZS7JyIav9mzZ2crFIpPa2trraNdp7jDs30fpY8gefIef7x+lNNe2dj33LlzWLx48WRKkMw+++wzdHR0TL9nnFJQYSBDROShhas2ZCs6rx5rWPSDsJ7weGV3ZKLcLdH0pQ+3NCGs+9rfzKvbt3HRd+6944v/fu+03E0R0fiMtVyJ3DorSVIWgEkFMv/6r/9q3r9/v8ZLPZEMXn75ZbPFYtkudx9Ek8ElBUREHlh8W87t6t6e98/d/nyEOf5mhjEku+7IRJjj05Xnbn8+IlTqrlx8W87tcvdEROOjVCpX9PX1MZDxjFf2kYmKilq7cuXKrhMnTtgNBoMX2qKp8tlnn+Ghhx5qU6vVj5w6dYrbEFNA4wwZIiIP9ClVxZcW5fEnauSXLi3K08yrffMXALjHAlEAkCRpRW9v7ya5+wgwZwFsnkwBSZJ2vv3226czMjIWPvvss8/19vau1Wg0VqPR6PHy4+joaGRleW+fYW/WC8ZaOp3O0NHR0W6xWLYzjKFgwECGiMgDkio8riN2ntxtELnVETsPkip8htx9ENHYkpKSMux2+8WWlpY2uXsJJKIonhUEYVLJQFNT07MA4Nx368deaYymBDfwpWDDJUtERB5Qd13j5r3k1/jfKFFgkCRphSRJXK7kOQnAp1qtNlPuRoiIJoszZEZhjUgwAOBfbGnac/5eICLyO4tvy7m9T6kqllThcd4Io6wRMw0KW3driN1WcO6Tkx+PdF16erpaEFTFVqu0Li7ObjMa1fz7QhDR6ayG1lalSq1WHBFFW8FYT0GaCEmSVgAo83bdacIrG/ump6erIxI0xZLNtk4ZFWbra+7k72M/F5IQZbB39bYqbX0Fn5z8ZMQ/o4kCBQOZUSitnaoISxO6uGknTWMRliYorZ38s4KI/M6i79y7tBfdhy8tzNN4cSmhPrrtIuZ+UXZ44aoNd315rLxq6AVz5wp7IiPDfvL00xcwZ441ZP78rknfdPfuaGzd2jHpOqzptZr6CxcicOmSevNTY7KgsQAAIABJREFUT83/8YMPzp/30Uedf9u/1MVLVkiS9JgX600n/Rv7/moib05MTHwmOXvRm/ZGy8WIB25ByKyYEGVizISbubr/DGbd752tu1hrTHrbxRZY3jl3OGvDqrvOlh8b9mc0USDhkqVRKJSqI+rOq31y90EkJ7Xlil2hUh2Ruw/yQPtBzCrbgdh2uRsh8p2MjIykyJ4rH9VmPeXNMAaAYy+e2iVPaaI6rx7LyMhIcj2Xnp6utlpRePp0dciqVWavhDEAsHv3xL8ZZE3f1Jw/vwurV5uVp09Xh1y4oLmoUCh2Tr4zB61Wmwrg+uXLl694q+Y0M6knLSkUip32RstFze7vhoTeop1UGAMAzfvPTOr9rOUZ1bx4xG5frcFVy7A/o4kCDQOZUdg6mgvm1/1vudsgktX8v74t2dqaC+TuI3hUI76sBJHDjvUHKCJiKzdCKLvxz6w6cYRaImIr3QQvMetxNW8X2rz/Pc6kRVZthFB5EGrXg40lbseqrtsxymfg+jl5J3wa1ptX+xIRWzn0132E+9K42MM1z11M2xTmy3tcTHsorC9ixqAZEYKgKvblPck/vfTSBa/Wcy5X4v4xEySK4qQffR3+P7MUXmqHZBLxw6yw0BmR3py1RjTluAxhFLW1tdb5KzbMy/zvbRcvfONhhTXyJiWXL9F0EGFpgrrzat/8uv8Nc1TSvAtny72+dp5Go0fn3f2BSjXiy7YgPqYULYH+M6D2g4iqBzBj8LFZJwBzXiksqEZ82WuITdqFtrYSzPw6B9fydsHqetwZMkVWbUHYnD0Q1wq+6c2LfanrdmDm18no0QCqyo2ImrMHV9OEkT8TGhelZF/bEz7Tpz9Y6gmPV4bYrXe5HrNapXW+vCf5pzlzrCFwG6lO2AoA73uz4DQjATin1WpvNZlMn06kQOhNMfzBdIALiY9Uwma/a+wrifwXA5kxXPhjeUN6enpkyoUDxZLNts6ujrKpu5q54dcUaW5uRkJCgtxtTCvWiASD0tqpUihVR3q6uwoYxsgtE90pQFS7CGC84UM14stOozsv3xkmnEb3ckBz4jgAwJbhEgg0lkBwHseMTbi2dr0zaHgFA1MPUp6AmJ3pCCkOG9GXchxh9SthzluK8LJXEOJab0QiYk+eRE/GSqi+vnFU3XgSqpT7YBkY6yuIahShRgNsczbA6nI8vA1ADBwhhnkTzNljfx7quh2Yab7P0b8HvXmzL2vaLohJBzHr8D70LS/F1aSR70vj1xcaae328Q9JuiMT0RcaPejPwLg4u82nNyW/5FiaFufNkisUCsWO8V4sfQTJ0xt4+h5/u34czkiStATAhAKZyS5TIvmFJMZAEanm31MpoDGQGQfnzvqPyN3HdKPVal+UJOmnoigWiaK4Xe5+iORRjfB6PXrunsxMkOPQGJ+AmJfvDFXKEZmWD0v7Qcyq1eFaXimscIQXmrosXE3LREte6cD948sOIPbmTLQ5a0FXCjHbcdYycN3o+meOXI0pR9SQczaN4PK1HiqzCKsuGaras1CnrYcVIlRmIETjDKXajFBpdAiv3IiZ1+ESJA1nTdsFsbEEQtkrGDzzaOzevNdXNeIPG9GZtweqyh2IjXX0MNpnQmObqh+ODL0Pn6ZEkyUIwlwAkslkGncUq7gDHi2vkT6C5Ml7/PH6cVw2qY19KTjwyVgU6BjIkL9SSJL0/9i79/im6vvx46+Tlt6gF2qBnNMgJaDo2AYWHOIcOr6I1htzw21O5258Z/m66ipuim4KboLbVL7K/MI2vru4+ZtOdILDKjKU75yIgwJzTFAIVdKcQEuhLb2FNOf3x0lo2qZt0ubW9v18PHyYnMv7vE8KJXnn83l/7vY/vgeQgowYRhyMfPnGMx/S2y75o1lEaDRHWZi/uO00XfWdMONdSn1ghEj2DNpGbye10T8K5ISDs559uuPQosBIHJ2czXcy8oR/ewOQY8ZqjXTqVPVacvke+nkqVPd9uDdXhcJS6p03+nOz01bU8X4rrfEIVB2Bq/6Inm32YMndP4Oawl1dXh9/8aWw1CxGUUn+szcypssIoXBz63de5xVT9yX/6z//oX69JkKIIUX6x0THLmBRopOIBo8OaVGagZushsM9CtEfUpARSUnTtMcNw/AAaYqieFRVXaXrenmi8xIiOo6Q2og5zeWM8XjPPA89ksNs1ntN0AbdrJEMRGA6UrDqtahvHqHpqj+iZ5uFmf7/Y6GTs28bnNiGWtWx9axnndR/qRQvkFrfMR0rtd4BueYxzbP+SPMsf4zNP8f7MfMYT/Z4KPrUmden2XYpuU4dzuv6+vidKWTZabrqj9SdeV17zu3UtCjm1W2qWe+vSXNfL6kQImocDrDH//v1OYqiSEFmgHRd36Wq6oAa+/btJB7yujRdD7UtWBWuex0wG1qd+dgWTw86tgrXvTthfD7Y7BQUnqR2B6TZ6mjYno9txfQw4pzEU1mJ86cw5pm5Z95KeF5azyHnTM5fXDTgu+67eBJBbpV7cIW8x95ep673E/qehRgKpCAjklUWcBQoMAyjFmREvxgqzL4juf+upMFfCEnb/zzpo2dzKs6ZeApn493rn46UDVT/hZyca2htPAJFX/CPytlF+glo7/dVVBrm/9E/3Qmz2LPP1jHFqHA23r3vkDWrmOaepmdVb2AkszkeeAeWY8NbFTgHspzb8OYuCHl1s6Hu7DPTssLOrfEvZMQsrz5eExEbjZXkNKg0FMb3K9pYfuCPZuxo55kc951FeUkGLID9B7w8uaqBM6dtyaF8E0yZksqGDV6erGjAThqOLaO47RZY4qpjXmzSB7Mg87PYhR82BtzYt9eigF6F68WTpHGQBmZiX1xE45r11DCZHCCnSwEhwPPSTli4EK0YGtesp0GfTkHg145+EmbPQ7u2ox+R5v9OJN1pHttnHB3aVDs5dken+6jdDunjI73PrtvzqL3XQdpsaHDasS0uiuweQ+VWPD3kPfb6OnW9n5D3LMTQIN3FRVJyuVyLdF0/G8jUdf1sXde/neichIiW5lnfo63qZ2eWTj7ro9kD+DBuTm86s0x2JMsnZ19D/TQ6zndqNGSD57wvdOS33Ul7jysA+acA9bgsd7g5HCH32RvNPi+XBK8u5c/rTagPfn2yr6HmEvzn3Egu3+uxqbDnvIfQ+/PaxjgvET9p+9f6lx93mSPToiqL8pJ8ytfmU1KeQ6ePCltyKC/PYfPmfEpKAvvScGzJp0TLZ0tcY0c7z0jjRXLv0cvVsXYkLKljVWkdS0hnc3CweQ2sWtVAaWkdS87z73OAw97Kgmm9JjggY8eOHQfkVldXvx+7qwwrA1r+2iwKzEW7di5jOEhD8D9nahHa4ukULJ5HDifx6Huosc3Dvng6BT0UYwDanB2jS9Jt5miTYK3bK3Gt2Uptp+1VNB6ZTE7QPxk9xlHzyFaDG0yfpHaNg+yyyRHfZ7ftWxywcC4F185lDA7aIr3Hbrn1fI89v04h7qfXuEIMbjJCRggh4i64aW5XKg2BPiN96jLSIsiZniUE9S8JEd9z3kPo5/WVX6n//9dQ86XejgtDYSl6lx404eUQIs6XSnve3x9dcotbXiFeExEtlYz6CKhfSz5HSKl3kl9v7vHaFgx4tIz5gb+GVfNgS/kYNjugNDAEY14Dq/xDLCYf8O8j8IE/I66xo51nxPHsBBU7er/3qN73AZgy33xsnwKbHEC3kTVZbNrfRpkdwMM84GCvGQ6MxWK5VFGUbTG8xHATWGlpXX9ObnNC2kzzcboNui5o6KmsomGHA8+subBzPRlOcN17kNbx5oiZiKnTsa8AOEntvVtpXDGXbH0PjtVgW9Fzkac3npcq8cyaSwF7qOnhmJ7us9v2/GLSdqzHtSMfbMVo/cgnpAjuMZz7EWIokREyQgghhBiSsna8g3d2KXWzSqn72Gzaz15gPp5VGpWpS44DMMX/Ad8+BQ6EHE1vfuCfbwfsHubZw1s1O5qxo51nxPHoO2ascu39YjmUlKRSVtHQvU4TIxaLZY7P55P+MdEzoBEyfUlT88j5XD6s32OOhpw1HW3FQmy2nbgqQ58TPNojeBRIZ3mkj6+jbe8eHC/mYQ9RqAgvzkkanMCOrbhePEjbkZ3UVp6M/EYDDlbSYJuHtriYNGdll1E8kebmp4e+x9Axonw/QgwCMkJGCCGEEENS86xPkbNjLfkAnUbI2Gj92DU0x7ozpCOHktvw9ydJ4tjRzjNJ7jt4VEzwaJkzcVZ7qaiIexvtOYZh/CLeFx2qBtrYt6fRImeoeaQxnezxWzEK88OKmXbtTLh3Pa4d0MpM7KrZoLa2cB4aVbh21AF1tNpmYvtoJw1H8nGt8U/A+9zcHuPYdq7HVTgPrTh46k4eBYv95+h7aH0xj4Li7lN7eh0VE7TdaK4j5yvm+Tm2OrMgE6LYEl5uJs/OgxDiHnuMEcb9CDGUSEFGCCEi4MksCDnoXYhk4f8zKgAoPtM8m8a/kF89g7oo9vWJ5Qf+aMaOdp6D5r5Lm6BkDOWbYD9NVNjBsXYMqyfXU3YwHfanUl5uTnWaUlbXMTUqRoqKivLa2trGHz169N3YXmlYGVBj396KJwXVldQ6IVA8sRfn0bbGnM7TemQythU9RS1CW1HU5ToL/dN/OhrcBo61X9v57JqgfZ3jFAVNIcqjYMVcOlGnY18c3n2eKX50vf+vnMSxeiue8UR4jz3nlnbtwh7usbcYoe4nxD0LMQRIQUYIISJg8TSlZja7acmyJjoVIbrJbHZj8TTJv+1xEssP/NGMHe08Q8UDM+aK9xXY702K+4ZmVnUp3thLa1gFMK+GipDtnjyUVtSFn3AEPB7PHMMwZLpS9AWmLfVjpaVeiifFc7v1UClYvLBfCSZeT8WPvG73b++xCCOEiAV50yaEEBFQLKmvpDXVfKsly5qS6FyE6Cqt+ZhPSU19JdF5JAedrP0byKgP3uYkf4f/Ye6nOHVe8QCXGo/lB/5oxo52nt3jBWL23lk1nHtPriJKlM0BpCATfbsMw5hBPxv7CiFEIklBRgghIuA9VVs2af/vvlU55pFEpyJEN5Pee8poa20pS3QeyUGl+bxS4t4hRIgeGIYxB7itX+e+gRHrc5Lt+AjsBL4Vo9giyaUUjJRpumJQk4KMEEJEYN++fZ5JcxZMLP7bXYcPnX+L4skaa5HpSyKRMpvdpDXVtE/a/zvqRxZOPLRrw8AGfQghoq6oqCijra3tE263+x/9OV+5DCWS4403MCI5JxmPD/fY/jb29R6uI3VieI16RXLyVtXhazndmOg8hBgIKcgIIUSEDv3fhiNTp07NKjr0/GrD673SlzbSm9ZSK41++6G2tpaCgoJEpzFoeTILHBZPU6piSX2lrbWlbDgVYzyZZ8Wlwbb/OmfYbB6HrktjbxEZj8cj05Vip1+NfZuf2VOfs3RubgzzEjHW8sK79UqLd2mi8xBiIKQgI4QQ/bBv3z4PcGui8xjMNE172DCM7+q6vkrXdXlDJSKieFsbRzZU0ZRTFLNrjGyoQvG2dvr2talJORmzC4qktWfPqAGd75+uJAWZ2Im8sW9Gyvz6pS+/kXXzjHTLWVmWFGt2zJIT0eWtqqPl+XcbSFVu3blzZ0Wi8xFiIKQgI4QQIhEUwzDu9j++B5CCjIhIanvLUtvBF545UHxnTqyuYTv05/rU9pZOfzabm1PKgL/H6poiOf3oRxPqoW4goynmAPdFK5+h7tH1o4BTkZwSUWNfwzCW7Xxx6zvTpk07p+mZ3Q9afL75Slaap722qV+j30aNGsXJ8g39OVViRSilYKTD13K6UWnxLpVijBgKpCAjhBAi7jRNe9wwDA+QpiiKR1XVVbqulyc6LzF47N65s+Lcyz7/7Sm7V/3COen63GiOlBnZUIXt4AsNhiX11t1d3vBv377nLVVVufTS6S0PPXQ4XdPaLHZ7a9SuLZKHw5GBy5Xuu/feiW1FRU1XAG8PINxndF3/W7RyG+rerRqBpmnXuVyujWGeElFjX7fbvRxg79691ZGcJ4QQ0SYFGSGEEImQBRwFCgzDqAVGJjgfMQi9/8YLz14wc2aDfd//rjRSM7LTWo4PuLeLJ/Msh+JtbUxtb1natRgTYBjGsvp6Y93y5Wc/ePq0ZX5ubrvH6Uwb0LVHjWpkxozigYSQmFGMabN5HPX1KWlpae2vNjQYD/z+9x9UW63WZf2Jpapqv6Yrqap6vmEYvwV3fy47qF0xo43NuzKuA8IqyPS3sa8QQiSaFGSEEELEncvlWgSgqqqh6/rZic5HDF7+oklch6273e7lbrcb5Jv1Iauysvu2wKiKfoi4IFNYWPhFn8/3K4vFkt7QrEDMVoxOTvNntAK510VwSkSNfa1W6wNut3v5hbNnX5yelrk6PWtk3omj1f0qqjY2NpKdHZ3+MxKrd6PHFTqaG+tTR4xIe+X4Mb3M389PiEFNCjJCCCGEEELEzhxFUX4W7sHjxo1b6vP57gJyDMNoamy2pEN7DNNLPmfl+FAU5dC4ceMuOnr0aLhTxcJu7KsoyrJrbriloq258eWSb34/13buJ/ud6x3zJ/PQC3v6fb7Eioi9tvowx/WPFm34nwe+NX/Blydu3vDMkagkJkSCDMmCjGEYb6iqOry+ShBCCCGEEMloTlZW1rXhHqwoyn8ahpGiKApAuzlCZvgxDGOjxWK5jvB790TU2Pe46/Ab5Wtfyex3giIhCgonUlA40fL9X7/BT7952eGpU6dmyUgZMZgNyYKM2+3+bKJzENEhhTUhhBBCDFZWq/VTwN6DBw+2hXuO2+22q6q6C8gG8mKWXJIzDGOjoijPAveGefwuRVG+GW786269P73fyYmk8LnbHmTz7x5dzb59tyY6lyQ1IejxUUA60CchS6ITEEIIIYQQYoiaoyhKpP1jzgVG6bp+rqIoM88/2xuj1JKb2+3eB2SOGzcurN4ubrd7JzAz3Pi5YzX5HDTI5VvHp5w+7bky0XkkqRzgQ2Cl//8ZiU1H9GRIjpARQgghhBAiCcwBfhXJCYZh3G4YxhMALpfrIwDjjci7+kZ6TrId7xeYtvTf4VyCCBr7FhQW9SMdkUwKCieSlZ07HCqWVwNTgZ8BFwI/BS4L2n8PZuHFQkcH8AZgBPCq//nJeCQqIicFGSGEEEIIIWJAUZRLW1tbb47gFIthGIvdbndKpziXEVEjGeMNjEjOScbj4UwfmR8SXkEGImjsK4aG/q6ONYi8AiwBNvmfvwP8FXgCuN2/7SngKrovx1YMvBiHHMUAyFA9IYQQQgghoqywsHAacLiurq4h3HNUVS0DVscuq8HF7Xa/bhjGhWPGjBkV5imBxr5RcJhjIbYec0YnejjXSpRo32NsXrNh4b+BD4B9Xbb/CfhK0PPvYo6Q6ep+oD42qYlokREyQgghhBBCRJlhGHMMw4iofwxwu8/nuzwmCQ1eG0eMGHEd8P/6OjDSxr6wlae/8ypcCvqH53DLXYsYC+DcytPPOFDZRCVl3HXXXHh7HU+/CeqED6jcdg63/Nx/bLgx/Y49dz0PfVjG43fNBeBfj1zPK1xNcdgxDnPs7bU8dT9cufknfLyHuH3HCrXd3KZeCpUfXsEtd80NcY8R5BbiNQvnNep8PxND3u8wkAPcgTntqKtJdB5Y8WVgGTAfc4rSAmAj5lQnkeRkhIwQQgghhBBRZhjGHCDsgozVar1aUZT3jh496ohhWoOOoigbfT7fdeEc63a7A1OWwnLsudVw80+46YafcCWb+FdgJIdtLjfdtYi5dz1GMQ5z9MpFi8xtN/yEK4uCjg03JgBbeW0bjA88da7jlQmPcdddi5h716LwYjjhmO0Kis/tJW4Y+YTc/varcPNPzHvk1dAjhCLJrYfXrPfXqMv9hLzfYWEl5siYUD1yvgsEXrU0IBdoBhZifr7fGI8ERXRIQUYIIYQQQojoi2iEjKIoZYZhyHSlLiwWy0ZFUcIqyAA+YK+maReEc/CxD0G1mY/HTgA9qDBw7O2tbH1kLfolXUdvbGVv1dV83BZpzMNsfeRVpt3TMWjh2PZNqB/+lae/cz2PPLI1rLywTeTjtolBG7rHDSefkNsvKkV983qefuRu9k4oDTkaJbLcAjq/Zr3G6Ho/PcYc8v6Lnvu/XA580f94HvAbYA/wbbr3kRFJTgoyQgghhBBCRJGmaVOAE0ePHg2rNYh/qeuJuq6/2ufBw4zT6WwB/q5p2rwwT4lolExPxtom8vEvnwN/WNcxUsS5jke+4+DyHqcr9ezYc2vRLwkx5eaSRdz08z9zy4T+1eJ6jNsfb6+lcsJj3HRXKeqHa9kajd4vEb5mUb2fwa0d0ENsvxFzdMx+//NyzGLMSCArPqmJaJKCjBBCCCGEEFEU6XSl4KWuRXeRTFsigsa+PY0YAcA2kbG2RUwr+sAsyDjX8cgzdu7qo7AQOuZh/vUh8ObdPP3MJo5UrWbr24cZOz70PJxe8+okdNxwYoXa/q8336d49kRgIh+f8H6XkSuR5kaPr1nPMfq+nzhQiUJBLwoewBz9EiwbWEfn2WnzgN9i9lhKhrxFhKSprxBCCCGEENE1B7O5ZjgUwzD+y+12yxelPTAMY6OiKNvoWOa3t2PDbuw79oYy+M71PP0m6JRxl81sJvvShxoZjALeR59Qxl2Y04uoOpenHzF/rOqXf8LcEMWIrjFv2X49T49/jJvu+ol5gHMd+jN25l40EShFfeR6nn7zXPSqq4F3e83rtfGPcdNFwdN3JjI3ZNy+7/G18V+EP3Tezpev5pGH70YvAr3qam75efivWffcQr9mfcYIeT9xK8o8gdkc9w7gm4Tu3xIrdwGP0jHl6CHMkS9zga3ANf7/Rgadczawzf94DWYR+B7ghV6u8wPgxyG2fw2zsJMJtPq3fRe4APg6MhUqZpREJyBEb1RVNXRdlz+ng08NcD5Qm+hEIlVcXHwNMLeysvLOROcyHMjf8fgoLi4uNwzDu3v3bulPIUQcqKr6oaIon3G5XB+FcewdmNOVvhtqv/EGhnJZZO/ZIz1nMBxvtVr3pqamftXpdP6zj9Mtqqqe1nU9pacDVFU1Ht98MNx0enXH/MlIrMTEAnj4a5+hsrIyGu8jPolZ8At0V1aAzwPPRyF2X14EPtfDvicwCyO+KF7vLeDiLtvOwywAZQRtexRYEsXrihCkEi+EEEG8Xu8+RVF6+kdRiMHqciB674CFED1SVXUCYIRTjPG73efzyXSlPiiKsrG9vT2caUs+4J+FhYXTY52TGDJy6BhdAuZS0+/Tc1PdaPoi8OsQ2y3AXzCLRF2LMV2LKZFaCnyry7ZizEJNwHeRYkxcSEFGCCGC/POf/zzs8/neLS4unpzoXISIhhtuuCEFGG2xWLYkOhchhomw+8dYrdargP2y1HXfDMPYCITbR2anYRgzY5mPSA6jxxV2/bszmo5RLvu77Ps75pScbOBvQds9wGk6RnafxuzT0o45UmY68C/ADsymY/rOYqDeHzPgRszixljMaUj/DaQA/+GPC+Y0o3b/498Br3fJUwE+AzwGvO2/XhWwG3Nq0VsMzD+An3XZNh14x//4fMxeNSIOpIdMGKZNm1Y4avSI5e1erkjPtngaj3rtic5puGhsbKS4uFjmLMZR9rhUR1ujL80ygs1Ndafv37t3b3Wic0qAxcAzs2bNumHHjh1HE52MEANx6NChTRaL5Y6dO3ee7vtoIUQUzFEUJayCjKIotwOr+jrOeCPy/g2RnpNsx3fldrv/oarq+DFjxlhramrcfRweaOzb44fK2uoqCgqLBpKSSLDa6sM0N9Z3/Tz7GWAh5s/+1qDtNcAEoMX//JKgfTOAvwY9nwv83v/YAGzAz4FGzL4y/8Z8r7gG+B/Mgg7ADYALqPQ/vxWYj1l8+StmweMS4FL//kzMKUKNXe7BoKM3zEWh7n2AWjALV5l0vB6zMfvWWDCLUe/F4LoiBCnI9GH+Fy6aVe/2vv7pbxSkjxqTYsnTRiQ6JSFizX7SdZpTNd6v/98vj994xQ0zL3v1uZ3v9H3a0LF7927XtGnTblQUZUtxcfER4DVkKcGY0HWd4uLi+xKdxxB0EvMNZZHFYlm8c+fw+jssRILNURSl67fP3RQWFp7r8/nCWup6OPaQ6WHXxtTU1OuAX/Z6fhiNfetrXL6CwiKZLTCIHdc/8o0YkfZKl80bMYsptwFP+rddhzk6prmHUN8GfhX0fBVwWdDz72FOK6oBfuOPuwYowJwOHBhJ80c6f76eROeOxI9iFlje9D/PDpFLNhDudMdIzMUcYQMdI3ysQflNwBwF9BJwdQyuL3ogBZleXDj7wotPtxgv3/SkLbPvo4UYOvK0EeRpIyxfedKW+eJ9+uYLZ1941T+2/2OgwyMHFf/IoGkXXHDBFYqiTKHzcFQRXfLaRplhGC2Kojzd0NCw6eDBg22JzkeI4WLs2LHjgNzq6ur3+zq2vb29zGKxSKPtCBiGsdFisSymj4KM2+3epapqr0sAb/zFg23la16Rf38GsQ3/84DR0txcFrQpG3O0yWjMkSxrMPuvfA0I/rv2GcxRLgG3YI54CTgPOBH0/BI6CjSfw5yKBFAGrPQ/vh6zN0vAAuBAl5Q/jln8ecT/vIXuAvn35g3gFJgrsofhAeBIiO31QY9HYhaxpBgTZ1KQ6UXqCN/qT3+jIDfReQiRSBd/PT9368+PPQEMx7nYvt27d1cAFYlOZKhSVfW+ysrKHyQ6DyGEiAaLxRLudCVFUZTbXC6XjNCIgNvt3qSq6kbMaRW9rTpzprFvdXX1nlAHjB5X+Nlf3XPzqyXf/H6u7dxPxiJdEQO11Yepcx9pf/HJ+8nXJk3cvOEZT9DuBzCLJT7M3itpmEs4fwA0BB1XAYzyP84CdDpGz+RhFi/sgANz5Mj/YY4qGeGPedx/7P3+OCOAT9AxssUOTAZ+4o8MjfBuAAAgAElEQVTfjFnkWUFH0eZizF4w7ZjTlgJLTYdjZlD+/TECs2BVF7RtJLB8ADFFP0lBphdpWSl5Y89JT3QaQiTU2HPSGZGZ0lelXgghhBBhNvRVVfV2zOVsReQ2app2ncvl6msFnEAfmW4FGcMwlr38/DM7Lpw9+6oXHr93dfrIUXknjlb3q0fkqFGjePhrn+nPqRIrQqPHFTqaG+tTR4xIe6WlubmsSzEGIB24A7N48hQdRY57MKcx7QCK6DxV6NOYjXcDCgEnHSNKbgUe9D++Hrjb/1gBmoCpmL1hHsVsvHsjZt+YGZiNgw3MAs4nMIsgWzCb9d7pj7Mac+TMzrBfiIGPLLYCz3XZtpDIikIiSqQg04vGY9K8VwiQvwtCCCFEmOZYLJZf9X0Yt/t8vstjns0QpCjKRp/Pdx19L0kcWGnpf7vucLvdywH+sX37W5gfnMWgUNnXAWW97PtqD9vvwSygBOyjc/+Ye4Me/ynosUHnUSqnMHvKBHwl6PFZQY+v7XL9JcDLwJU95BdKbwtufAEzz5RejnnCf1ywv0RwfRFFMkxSCCGEEEKIARo9enSuxWKZ4HQ6/9nbcbLU9cAoirJRUZQ+l782DGMXUmwRoVkwm9ymAb+lYwnqRPBhjrwpDfP4r9F9mexgf6Zj+e5QrgJupvcpfyKOpCAjhBBCCCHEAGVmZs7x+Xx9TlfyL3Ut05X6qbq6+jhwQNO0i3s7zu12S0FG9ETBnMI0iY7lrROpBVhL76NaAlYCi3rZfws9jxRSMEfjNEWUnYgpKcgIIYQQQggxcH32jyksLDwXCGupa9GzoGlLvTnT2DceOYlBpR2zV8x7iU6ki3BG6owFTnfZ9l3M6VJPYS7L/aeuJ/n1tJy8SCApyAghhBBCCDFAhmFcCmzr7Zj29vYyRVFkqesBMgwjrGlLdDT2FWKo6Pr5fRdmY+BazCW1xSAjBRkhhBBCCCEGoKioKAP4hNvt/kcvhwWWuv55vPIaqnRdf88wjBE2m21yb8dJHxkxxIzBnN4U8D3gh3SMrPkaIZpYi+QmBRkhhBBCCCEGwOPx9DldSZa6ji5FUTa2t7f3NUomsNKSEIPRTV2erwW+4X+sAD/F7AkTeP448P34pCaiRZa9FkIIIYQQYgAMw+izIKMoSpnX672iH+HfMN6IvPdDpOck2fFv9BnPnLa0HHisp2PcbvcuVVVlhIwYbDIwl9FOAXYD//Zvn0HH8t0ZQF3QOQ9gjpQJ3nYX8EhMMxUDJgUZIYQQQgghBmYOcF9PO61W61WGYRw4duzYoUgDK5fx2QFlNkS53e5tqqpekJ+fn1NXV9fQw2FnGvtWV1fviWd+QgxAK+bn9DrgLSDPv3080Ox/3AI0As9hFm0exCzKjAOO+o85G7PJ7/3AkXgkLiInU5ZEjJzgLyXv8nZ1pPuEEEIIIQadz+i6/reedspS1zGzMT09va9pS9LYVwxW5wC5mL1hoHP/GIAi4AZgBWbxUaGjGJOJWaxZghRjkpoUZESEWnj79h2sfOxEnK53gr+U7GBlySE+CN5c7eI3XbcJIYQQQsSZqqq9Tley2WznAHZZ6jr6wlltSRr7ikHsOLAec5TLjcDrEZz7KcwRNI0xyEtEkRRkRGSqT/AeWVhfc8ZxhEsW1nNqefP5rkVhIYQQQoiE67Ug4/V6b1cURUbHxMCoUaM2GoYhjX3FUHaD//+/Bu6N4LwvAu/SvTGwSDLSQyaIpmm/MQzjpK7r5YnOJVl98OwRuPSTLLj0IBvebuGiL2R27NxxiJXLas3HlxfwieATe9sXdMxvnBrfCI7pd/7d51K76CBvX/QJLioMcW61i98sOoLb//QTy2ZxzazA9hbGXF7Lu68VsHBdJm8uauH8Rc28vq4ZKGBhRT4HSt7nXYDLz2XpnaMjek2EEEIIMazNURTlZz3sCyx1LV+CxsDBgwfbVFV9Q1XVK3oagSSNfcUQsBR4GHBEcM5t/v//NurZiKiSfxyCGIZxuaIo/6WqqmG1Wh9OdD7J5wQHXsvi/Isyyb/oLFjn6pgyVO3iN8ua+ey6WSytmMXST5sl2T73hW001yzL4vWfuDq1Dj8Tf9Fxzg/EXzeemmXBPWpq4dOzWFoxiXP8z99jMksrZrHw8lrWl9QxpWIWSyvO5RNxHfkjhBBCiCFgTlZWVsgRMpqmlQGr45zPsBLGtKUzjX3jlZMQUfYT4EdAU6ITEdE3JEfIWK3W1xVFuawfp7YYhpEGYLFYvltbW4vZnFoA1D3v5N3LbSwtBBjN+ecc4cCOSZwzC3C24L7cxjcCo1dm5fOJQBPw3vYBHzy2g/WvBZ7VsnIdcM54bn1CIz84gVmTWPj3Hby1Q+MaW9D2rvELNS65/AgHnIANoIAps4IDFXCJfxTOWROy4PJ8f6Emg4Jzmql1AqFG4QghhBAJNH78eM3r9b4DZPt8vvlHjx7dEe9jRWdWq/VTwN6DBw+29XDI7e3t7f1Z6lqEKSUlZaPP51tKx4iAUAKNfWWlJTFY3Z/oBERsDMmCjKIol+m6rkR6nqqqTkVRxhiGMcIwjFUFBQX3xCK/wamF97c1wwfvs/K1oM1Pu7h4lgbOZuhcPjmjrpd9AOfcOYuld9LrlKWOY8/lQMkhPljX8zFCCCHEUHT69OlPA78C/q0oypVAj4WTWB0rupmjKErI0TEDWepahK+6utqpqmqNpmkXuFyu3aGOMQxjl6IoM4D/jXN6QgjRK5myFERRlFcMw/i5rusWXdeXJjqfpLLDxesfFLCwwj8tKDDF54MjvLUD8i86q1Oj37rnnWemJfW2L3KjuWYZrP/J8Y5NtszOTYarXbz5WhYFtlDnCyGEEIPTiBEj/q4oyn8qirLOMIxXEnGs6KbHhr6Kosh0pThRFGWjz+frbdqSLH0thEhKQ3KETH+5XK5Fic4hWX3w91qsiz7pn9oTMJqLF2Xxi7+f4Jo7NRYsOs4vFu0w12O7vKBjWlJhL/uCzZrEN2Z13xzquIV/38H6D7LOxP/GshZWBuKTxWfX+Zv/Sj8YMcxcNPOCkqxM78pRGUa283iaPdH59KWxsZHi4mIj0XmEw3aWx3GqVWlsbkld+vbO3RWJzkcMP0eOHHHhn4ybqGNFZxaLZU5LS8tXu2632WzntLe3T9J1XQpc8bFRUZRfActD7XS73TtVVU2KlZZk6qEQIljE03oGA1VVjf5MWeqquLjY+PqvpYeMEL/95kdUVlZG8neqBjgfqI1RSiKEb3z+3C95vMovv/95Z84ni6TvWyz8s2okP/2zrT4txbj1Ny+8/2yi8xFCJI7NZvuk1+v9vdvtntZ1n9VqXW2xWA64XK6fJyK34UhVVWdKSsosp9MZ8us4VVV3WyyWb1RXVye0j4zVar0B+Bjwb+Bjbrc7ZBEplscKIZKHTFkSQogh4KKZF5R4vMov/3DnASnGxNAni5r4Q/mBXI9X+eVFMy8oSXQ+QojE8fl8vU1X+s4wKcacDwTGN69NZCKKomz0er1JP21Jph4KIYLJlCUhhBgCsjK9K7//eWdOovMYLr7/eWdO+f/aVwIydUmI4WsO8FzXjZqm3W4YxhMJyCcaUoBLgp5XAsVBz/8OXAikAe1AM+bKRaX+/xLGv/z1HcCaHvYnRWNfmXoohAgmBRkhRCw0Ar5EJzGcjMowsmVkTPx8sqiJURlGdqLzEEIkjmEYc3w+X1mIXYN5qet2YB/m1GMLYAC7gXrMYo0P2A68BlwOfBOzKPOrRCQbTNf1VzRN2wiMAE6HOGSXYRhfj29WYiiaPXv6xVlZ7atHjjTynM7k79cnImOzeRynTiknW1pSyrZv3/NWrK8nBRkhRCwoQA5Ql+hEhovB0MB3qJHXXIjhq7Cw8Fyfz1d/7Nixo8HbrVZriWEY7w/ypa4zACdmMQbgMf//A1+0PIxZjAGYDfwNs5CTcIZhbFRV9Tpd15/vus/tdu9SVTXhU5bE4GW1Wh+YPz+noqnp9Ms/+MGHudOnnxpwzEcfHcWSJQOPIzGjGtO+Z88ofvSjCS9/9avnXPHaa41XxrInk/SQEULEwlFgXKKTEIm1Za2Kdl8OjsCGyny0G1W0G1VK/pJ25jjHX8aE3G5KY+19qn//GNbq8cpeCCF6ZhhGyP4xiqLcDgzW6UoB4wC3//FE4EXMRrEAZwGPBh37AvBB/FLrnWEYG4Ge+si0A+8WFhZOj2NKYghRFGVZVVXWG+vX74tKMQbg0UejP9hWYg7c9OmneP75fblVVSNfVxRlWVSC9kAKMkKIWPgrZqM/MVzpOTy6rfPzkp/BU3/Ucf2xnvOezjWLK5X5XLK9jTe7bvfbsvYsNsw+juuPOq4/1lCqxvtGhBCiO8MwLgWCf8ths9nOAYbCUteTMUfIACwExgD7/c/vxZzOFJBUfbQyMjJ6K8hAkjT2FYPXQw8dTk90DiJ+VqyI/c9bpiwJIWLhPqABeB6zn4wYVtJY+/N0FtzUxt7t5hbHrnT2XtrEPACaufrSXB7dlcZ8Upg2+xT2oO2bdEDFLOocaeLJUk9ibkMIIXo2R1GU+4I3eL3e2y0Wy2AfHQNwAfAO8H3gZ8AqzMa9PwbuSmBefaqqqjqpquq7qqp+Rtf1v3XdH9zY12q1PuB2u5dPnTo1TVXV1R6P58q8vDyv0+mMeDpqY2Mj2dnR+7Y/mvGGYiybzeY4derUyZaWlrLt27fHvMdHME1rkwENw4j5886K6TWkICOEiJVJQDWwCPhTgnMRcRQY1VKhjeLBoO3TbN4zj+02L3udqdg/1c7e5zNwXOPBThoHj8B+WxoUe0BPZe94L5vvU3nQAdibePOhBqRxixAikVRVnQAYLpfro+Dt/qWulQSlFU0fBzYDL2H2kfkU8D/AW3T0lUlahmFstFgs12H2tunqTGNfRVGWffnLX/71oUOHDt97772cffbZKZMmTerXNTVN4/333+9/0jGMN0Rj2ffs2cOPfvSjl7/61a9e8fvf/35HVJIK58L21nhdSiSBePy8pSAjhIiVGsxxDr8Gnsacj/4WcG6C8rkgQdcdXirzuYV6XNd4zMVSezHN5oXiOp56R+WSG0cCXr50aUfRxuFKgW0p8JiOSzV70tz2l1YqrpERM0KIhOrWP2aQL3Xd1RTgQzp64eQD84E/JCyjCKSkpGz0+XwvAd/ruq9rY99Dhw4dfuedd1LimqCIiunTp/P888/nzpkz5/Vp06ads3fv3upE5yREf0hBphfZ41IdIF/GCuH/u9AfTcCXMH/XWDGbAQ6Fbw9FSGmsfT4dHOlo23L929K55MZUfnoT7HWmAmYxxeFMBZt5xLxSHVep//z7cpmywDzGrrXDpa1n+sbM+1Qbt7zTEUMIIRJkjqIoXRv6DualrruyArcFPc8Hvp6YVCJXXV39vqqqhqZpU1wu14Euu9uBfxUWFk7z+Xw8/PDD8p5kkFuxYkX6gw8+uBxzRLYQg44UZHrR1tieerL6NHmFIxKdihAJc7L6NG2N7QP9XeHFbBDo7OtAMZh5KH1IpzTwtDIf7XmvOc1Iz+HppzPYUtrMPLLYtM3Lgse6FFYqR/EgbbwZaNyrepm2LXAObHknnWm26C6PKIQQ/TBHUZSfBZ4MkaWuAxSg6ypEl9Cx5PWgoCjKRp/Pdx1mD5yudhqGMRNgwoQJ0g9kkNM0zeLxeIZKMVTEicMB9iQZdiG/hHphGWF5pf7o6fZE5yFEIjW4T/ssIyyDfcWIIc9W4OnvKKb4UBt48qYUbrlRRbsxF74XWDEpi3L/ktfaz+Cp4B4xagMV38N/jsot1CfVdKWkf82FEFE3duzYcUBudXX1meYXQ2Sp6wAD6FpYil5zlPjZqChKyNWWDMPYBcwA6G/PGJE87HY7ubm5yfPmwM8Rw3cI0Ywdizxjde/hx82ivCSf8rX5lJTn0Om0LTmUl+eweXM+JSWBfWk4tuRTouWzJco5h0MKMr2oP9Zctm3N8USnIURCvbHmuFF/rLks0XmI3tU3p6Q53BmJTqOz4jpcQQUW+zU1/uWrdVYVBw5qZpV/m+uPdf5VmLrECOwvbY5b6n1xuDOoP5WSlug8hBDxZbFYOk1XGkJLXQ8pLpfrTWDq2WefPTrEbln6eojpz8pYAxPLD/zRjB2LPGN179GL61g7EpbUsaq0jiWkszk42LwGVq1qoLS0jiXn+fc5wGFvZcG0XhOMGZmy1It9+/Z55iy4cOJTi44cvmzxWUqOdYRFpi+J4eBk9Wnqj55u37bmOFmFlok7N+xLum8eRGdpqe2vuurSv2G3tkqhPQ5cx9N9I1J9mxOdhxAi7jo19PV6vWUWi2V1LC/4H28se91QlMtieY1koxjGG3+9bNlnBxRDUTZ6PJ7rgN8Fbw9u7Hvy5Eny8vIGcpl+6z5lwoEDe9I0r4zFlI7uMbdQXrIJFsD+A1N4clVpp/t3rC3hkgNLcK2aBzhwbFnNbbfAEteq7l/gxJH5gb+GVfNgS/kYNjugNJD4vAZW+ZObfMC/j8AH/r6/OItm7FjkGat7j+p9H4Ap883H9imwKWRX2Cw27W+jzA7gYR5wsNcMY0cKMn34vw3/ODJ16tSst/5wYrXvtO/K9OwUb+NRb7L8rhzyamtrKSgoSHQaw0r2uFRHW2N7qmWE5ZWW5tYyKcYMDsdOpDxw3x8mfmXbij2Zic5lOLjv6Ylt9U3G/YnOQwgRd3MsFsuvAk8URSmL9VLXhqJctvXSB8K+xtxty41Iju/POfE4Ptxje2IYxkZFUW4iqCAzbty4kYqi/BCoBcZdeeWVvPbafdz/xa09FAW6FgHCLQr0UmjYspbyTTBlygE2bJjCkxWlOMpLeJQFLADmryoNI07oPDoXMMLMp9u+yawu2cSUBbDhwNU8uWpeD0WiCHILcc9mvo/Ckgr/h/ASNjtKOz6Es4XVG2DaeWd+FDjsV7Ng2qYeX/V4ieUH/mjGjkWesbr3uBZRHDmU3AZPVjQkRQFUCjJh2Ldvn4d93JroPIYbTdMeNgzju7qur9J1fWmi8xEime3du7f6qwvO+ewXHp766g+/9GHu9InS/DYW9hwexY+fnVBfNLZ5/lMvvi9LbAoxjIwePTrXYrFMcDqd/4Qht9T1kKPr+kZVVZ8N3ubz+RampqbeBowCMAyDmqf/p+eiQNciQJhFgV4LDfNKg77tL2HzNtgw5UkqSrt/NOwxTsg8uhQwwsyn277fnwdLVlE6DyaXl+MgdEEmoty63rPDX5Dp8UO4g7Xlm7j6yQXsD4w/s9sTOoohIrH8wB/N2LHIM1b3HkHc4D9LwX/GzsRZ7aWiInmmwUtBRiQrxTCMu/2P7wGkICNEH36/4YMds2dPv2rJryeuHpVh5DmPpyVD4X/IsJ3lcZxqVU60eFNu3/7KvncSnY8QIr4yMzPn+Hy+M9OVfD5fWWpqakkicxK98gKvWa3WErfbXQFQU1PzO1VVPwN8BcicP38+jgM7e/5mvmsRIMyiQHjf9m9h0/4FfO69DRw4AOUlG9h/3hIqgka39BinWx4hChhh5tNtn1rGlE0llG86D6aUsSrSe+z1NTLvucwOD/YQF8CxdjUHrl5FKWt5tJfjEiWWH/ijGTsWecbq3qN636VNUDKG8k2wnyYq7OBYO4bVk+spO5gO+1MpLzenOk0pqyNELTSupCAjkpKmaY8bhuEB0hRF8aiqukrX9fJE5yVEstu+fc9b+FePENFVmegEhBCJdqZ/jNVqLVEU5QOn0zkovrAfxgKrLVUENui6vkjTtE8bhnHe5ZdfjufPO+OflWOt/9v+Uli7Aa4uZdWqUhxrSyjfEnl3lKgWMHav9o/YgbXlq1nrWBWdD6xB93ym3hXyQ7iDzQeAA+WUs5+9+2HtFjul85LnO6ZYfuCPZuxY5Bmre49u3GZWdSne2EtrzOLivBoqSkOd46G0oi68ZKNMCjIiWWUBR4ECwzBqgZEJzkcIIYQQw5hhGHOAMjiz1PXjic1I9CU1NXXj6dOnfwgsDt7ucrnOV1XVmDNnDo5/r+z5m/l+6v3b/rWUrJ5MRUVgDk+IOUbhxOkI2GcBo7c4XfcpjftZcK957vwp+1kdcnRPuLn1cM+BGKVLoKTE/yF8CU9uLqF88pOsWrXqzHn7V09OqmKMKZYf+KMZOxZ5xureB1cRJZqkICOSksvlWgSgqqqh6/rZic5HCCFEcrpg5swSb0rmSiM1Izut5fiA37V7Ms9yKN7WxtT2lqW7d+6sCHWM1Wp9YNy4cevGjm1f7vGkXJGb2+5xOgc2RbCxsZHs7OyBhJCYUYxps3kc9fUpaSNG+DbX1Fjub2pqqj116lSx2+1+x2azTfZ6vZPdbrcsdZ3kjhw54lJVVVdVdYau67tCHdO1KGB+M1/C6slPsqqfhYDeYpYd3AD7z6O83OyxMqWsjCmrzSlC+/cv4MkKeLaHOGcKFp3yslPaRwGj13vsuu/eg5TcVs6B8ziTTzj3GDo3f1qbu95zYCLUPFZ1KtLM6zxFyl5KRecNlFb0NIlKiMEppl3hE8X/IX5I3ttwIz9LIYQQPTn3ss9/SfF5f+mc/PmcppyiqMUd2VCF7dCf6w0l5db333jh2a77VVU1zjlnXMtDDx1O17Q2i93eOuBrapqKy6UPOI7EjF5MhyMDlyvdd999E9uam098v7ras1rXdcVqtT5hsVg+cLlcMV3uOiDWKxrF4xrxuIeeWK3W+y0WS4rL5XogeLuqqobL5YrGJdA0jWjFina84RBrxowZVFZWxvzzgvlnJvl+V0nM2MeM5edRS6wCCyGEEELEygUzZ5YoPu8vDxTfGdViDEBTThEHLijPVXzeX14wc2anpq2zZ0+/GGDbtj2Zl1xSH5VijEhOdnsrl1xSb9m2bU8mWB4JbPcvdR2XYowYuJSUlI2GYVyX6DyEECIUKcgIIYQQYtDxpmSudE7+fE4sr+Gc/Pkcb0rmyuBtmZnt8kF8GBo9uikdQNO0MsMw5M/AIFJdXb0HOEvTtPGJzkXEhs1mc8TrWv/8p7S1HE7i8fOWgowQQgghBh0jNSM72iNjumrKKcJIzejUiGTUKCMvphcVSemKK8xmkz6f7/bU1NQnEpyOiJCiKBt9Pl+3UTKHDh1KRDoiihwOB/X19Wnxut5Pf2priNe1ROL99Ke2+lhfQwoyQgghhBh0otHAtz/XGWjzXjE4LVlyCgBZ6nrQCix/3clHH33UnohkRPS4XC7fiBEjNsfremlpxrdvvnlKvYyUGdr++c+R3HzzlIa0NOPWWF9LVlkSQgghhBAiDDJdaXByuVybVVXdOHny5PSDBw+2BbbffffdvPPOO4lMTQzQfffd11ZfX39/PK5lGMay3/zm/WcvuuiChvJy+8pRo4zsgRbpR41qZMaM4milKDGjENNm8zhOnVIam5tTl7799u4Kq9Xa89r0USAFGSGEEEIIIXpRVWW+ZXa73T0sAhxbc7ctN2J5fDyu0Z+coklRlI2nTp26DngusG3SpEkTP/WpTx1++OGHlQkTJlgmTZqUwAxFJPbs2cOPf/zj+qKiovlPPfVUdTyu6Xa7lwO8/fbuCiAhvwtE7FVWdn4e+LnHihRkhBBCCDF0NeqEai7gyVbjcnmHA+wxmuQUzdjRznOo3fe6dVnRuWA/Dcdlr8M9NlyGYQSmLT3nf77smWeeOTJ16tSslStXrvZ4PFfm5eV5nU5nxH+6Ro0axYwZM6KWazTjDcVYNpvNcerUqRMtLS23b9++XYY4iUFNCjJCCCGEGKIqyd/uonWqBo3vMLLeRpPNfJyRXUpD4UDjZ1FekgELYP8BL0+uauDMJ7ktOZRvgilTUtmwwcuTFQ3YScOxZRS33QJLXHXMi1vsaOcZaTwg7HtPzvt+7z15yzzYtbW1bUxPT38y8Dzwrfe+ffs8+/bti3mfCBE9lV2HMAgxiMm/LkIIIYQYunI1vDkqYKOdjsfReAPkWDsSltSwah5sKR/DZgeUBj7xz2tglf8T/eQD/n2Aw97KgmkZcY0d7TwjjmcHHOHde7Le9/PP16FpKqqqHvL5fHccPXr0L73eiEg6dXV1Daqq7rZarZe63e5tic5HCCFACjJCCCGEGMrqXaQ2AI1OUuohNdt8THZfJ/bNcQCmzDcf26fAJgfQbbJDFpv2t1FmB/AwDwhniZ5oxo52npHHA+zh3Xsy3zeAz+e7PCUl5XFVVe8wDOMOt9v97z5uSSSXDYqiLAC2Wa3WB9xu9/KpU6emZRbkrja83istI9O97bVN/ZoQ19jYSHZ2FH6xSKw+pRSMdPhaTp+0eNvL/rH9H28FfpZRSUyIOJOCjBBCCCGGrhiOkOmTI4eS2wiatpOksaOd5xC+76NHjzqAazVNmwc8p6rqm+np6XdUVVW1DjQdEXvt7e0bU1NTXwXuVBRl2YUL5vzaV918OPOGT5AyJjvFYu1/sUH/8lrGr7s5KnlKrD7ZvYfraH5mz8szFnz2Ctc7+5cBUpARg5Il0QkIIYQQQsSOi9QGndRGJyn1HY+jwT4FDjjMx44DMCX4U70jh5LVXir6WTiIZuxo5zlc7zuYy+Xaouv6VGBXW1vbCU3T7u5HGBFnx44dO2QYRpvVav0YgK+6+XDuo9emjPiENqBijIi/1In55Cydm0tN8+uJzkWIgZARMkIIIYQYmqrfAVspzYVAo4sMZtBcqEKji5yGgYe3lzZByRjKN8F+mqiwg2PtGFZPrqfsYDrsT6W83OxHMqWsrqN/SZxjRzvPUPHAjLnifQX2e4fkfYei6/ovgV9ardaHNU1z+Xy+291u9/rII4k42mixWK4zDIO0L0+LaDUqkXwyvzojnQc/SnQaQvSbFGSEEEIIMSRlOaF1VvAWnaz9G8j46AjeqddE4QrNrKpo7rTFXlrDKoB5NVSUhjrHQ2lFXZxjRzvP7vECMdf1cEbfMWORayx/Pp253X6duU0AACAASURBVO57CgoKHh8xYsQTqqreoSjKHS6XS5aCSTKapmUZhtFuGMadACfeOmDJvPDsRKclBiAlP0tmfIhBTQoyQgghhBiSmmcFfeLOvoa68wCKaT4vURmJoay2tlYHbtA07RLDMH6lquq//P1lTiY6N2EyDONl4EIgC2CEmpvYhMSApchUMzHISUVRCCGEEEKIKHG5XG/quj7DMIy/trW1HbZarQ8kOidh0nX9MkVRTgeep599ViLTEUIIKcgIIYQQYvDxZJ7lSMR1bDZPXK4rBj+32/2UruujLRaLoqpqnaqqX010TgJcLleeoihtAOm2/DDOOIknrG0D49GjHHCAYpFP95hVuO7diuulrTjW7On2mnpeWs97a6r8z07iqdyK48tbaYx+akIkjExZEkIIIcSgo3hbG0c2VNGUUxSza4xsqELxtnZ679/UpMj0k2Foz55R/T7X5XItO/vssx8/ffr04/7+Mre7XK63Iokxd9tyI5bHx+MakRxfs34nmqZluVyu7s2KosDlcmWoqmqk20ZjFgUcMBtanfnYFk8nLXCgXoXrxZOkcZAGZmJfXETjmvXUMJkcICf42E56iUkVrnt3wvh8sNkpKDxJ7Q5Is9XRsD0f24rpYcQ5iaeyEudPYcwzcwlM2vG8tJ5Dzpmcv7gogpy6bs+j9l4HabOhwWnHtrgownsMkVvlHlwh7tHz0k5YuBCtGBrXrKdBn06B2hG/djukjw/8LKBNtZNjl5q4GFqkICOEEEKIQSe1vWWp7eALzxwovjMnVtewHfpzfWp7y9Lgbc3NKWXA32N1TZGcfvSjCfVQ1++GIx999NEJ4BZVVWcYhvGEpmnO06dP31FTU+MO5/ytlz4Q9mpAc7ctNyI5vj/nxOP42vU7azRNm+ByuWrDPa8/ei0KqEVoiwGKYE0VHn0PNbZ52K/N639M/STMnocWFEMrNv+f7jSP7TNOyOJElwJGmDl1274lHxbOpaAY0tdspY3QBZmIciueHvIe25yQNtO/3QaNOqACnKR2jYPsssm0vhj4WeSRDbT1+soLMfjIlCUhhBBCDDq7d+6sMCyp356ye1X9yIaqqMYe2VDFlMrHGgwl5dbdO3dWBO/bvn3PWwCXXjq95c03c30OR0ZUry2Sh8ORwZtv5vrmzJneMnKk54poxNR1fZeu65/2+XzPp6am7lZVdWU04g5Fuq6PNAzjPU3TYroMUpsT0vzFknRb92k1nsoqatdU4pk1HXYeJMNZheve9TjOTKWJPGbr9kpca7ZS22l7FY1HJpOjdmzpMY6aR7YaXBTqKGBEmlO37fnFpO1Yj2vNVhptxfTUMjf83Hq/x1A8L1XimTW3x2sLMZTICBkhhBBCDErvv/HCsxfMnNlg3/e/K43UjOy0luP2gcb0ZJ7lULytjantLUu7FmMCDMNYVl9vrFu+/OwHT5+2zM/Nbfc4nWkDuvaoUY3MmFE8kBASM4oxbTaPo74+JS0trf3Vhgbjgd///oNqq9W6LFr5ud3uPwF/0jTtHlVVm4E7dF3/FUBBQUG2x+MZ0dDQEPn620OMrutjVFX9UNO0K1wu1/5E5JCm5pHzuXxqV+/BMxuYNR1t8XQ8L63HVVl0ZuRH2NTp2FcAnKT23q00rphLtr4Hx2qwrehpClTvAgWMAvZQ04/zOzlYSYNtHvZroXZNJbX63KBpRAMQ4h6DR8V0jJY5SYMTcG7FRR1tR6C2Mo+C4t5HJQkxWElBRgghhBCDlr9oErJwEitut3u52+0G+FY8ryvip7Ky+za327082tdxuVwP22y2x9vb2x9XVfUOi8Vyh8/nW5mamjqjoaEhJdrXG4x0XZ+gqup7mqbd5HK5QvxkBiZ0USCImkca08kevxWjMJwmwGHEBCCP9PF1tO3dQ81bedhXFPUzTngFjJ5idd1uNNeR8xXz3BxbnTmKJ0RBJrzc/PQ9OF7sfo9p186Ee9fj2gGtzMS2cz2uwnloi+eeOa/1RSnGiKFNCjJCCCGEEEIkiNPpbAG+bbVap/p8vj8oijIRMFRVfVnX9asSnV8y0HX9fFVVd2madofL5XozmrG7FgXsqtkct7ZwHgXVldQ6Aepotc3EXpxH25r1uHbk03pkMrYVkcfUqMK1o+5MTNtHO2k4ko9rjdlzJe1zc3uMc6Zg0alAkUdBGAWMHmN1zfUrJ3Gs3opnPBHdY+jcTJ6dByHkPRahdSrSFKEFn6hOx744eEMeBSvmIsRQIgUZIYQQQgghEsztdu9TVbXQMIxcAEVRLtY07UuJzitZ6Lo+Q1XVv2ma9iOXy7U5epG7FgUg7dqFZmGgeG7nAgFQsHjhwGIyvcs0pyLs13Y+uyZoX88FixDFiW4FjN5yCsTK65arvYciTHjxuueWdu3CXu5RiOFNmvoKIYQQQgiRYDabrdAwjHeBauAEkO7z+e5McFpJRdf1zxiGsUTTtM8lOhchhIgGGSEjhBBCCCFEgjmdzmrgP7pu/xgYCUgnaem6foWqqn/WNC3L5XL9v0TnI4QQAyEjZIQQQgghhBCDhq7r1xuGcbWmaYsGEsfnboxWSiJB2uVnKAY5KcgIIYQQQgghBhVd128yDGOWpmm39zdGe01jezRzEvHnO97sS3QOQgyEFGSEEEIIIYQQg46u6/9pGMYkTdPu6c/5zb/dFe2URJw1/2FXW6JzEGIglEQnEAuqqhq6rkft3qZNm1Y4dnT7co835YrcrHaPszbNHq3YoneNjY1kZ2cnOo1hxVbgcdQ3p6SNsPg219Rb7t+7d291onMSQgghhqu525YPyx4yWy99IOz38qqqrgS8uq7/MNxzrFbrA+NnnftrX3Xz4YyvzVBGjM22WKz9f89Zs34nYxbO7Pf5Eisy3sN1ND+zp56MlPnOt/9d4na7l0clMSHiTAoyffjqgnNmfVgz8vWHbj6cruW3WezW1miEFSKpOdwZuI6n++57emJb0djmy5568f13Ep2TEEIIMRzN3bbciKQ4Eenx8bhGPO5BVdUfAKN1XV8SyXlTp05NyyrIWe3ztl9pGZnuba9tki9ek1xKwUiHr+X0CYu3/fZ/bP/HW4nOR4iBkFWWejF79vSLm9pOv7xtxZ7MROciRDzZra3Yra2WbSv2ZC58eOrm2bOnX7V9+x75B08IIYQQSUnX9R+rqnqnqqprdF1fHO55+/bt8wC3xjA1IYTokfSQ6UVmavvqH37pw9xE5yFEIv3gSx/mZqa2P5HoPIQQQggheqPr+mPAXlVVf5foXIQQIhwyQqYXozKMvOkTTyU6DSESavrEU4zKMEYnOg8hhBBCiL7our7WarU2q6r6nK7rN/R0nNVqfcDtdi+fOfOikoyRWSvTs0Zmnzha3a/pStHseSixejd6XKGj+VRDWkrqiM2NdTX37927tzrws4xKckLEmRRkeuE8Ls17hQD5uyCEEEKIwcPtdj/lL8ps0nX96lDHKIqy7Jobbtnf7j39y/m3fDencPLH+329O+ZP5qEX9vT7fIkVEXttdRX1x1xf3/iLB2+85oZbLtv15mvLACnIiEFJpiwJIYQQQgghhhS3273eMIwnVVV9vadjfL7Tv/zGg+sGVIwR8VdQWMSkCy62lK99JbOtuXFzovMRYiCkICOEEEIIIYQYctxu98uGYSxXVXVHqP2X3/zdnHjnJKKr5Jvfl36fYlCTgowQQgghhBBiSHK73W8YhlGmquq7AJqmLdM07ScAMjJm8LOd+8lEpyDEgEgPGSGEEEIIIcSQ5Xa73xk3btyNqqruNgyjCBiR6JyEEAJkhIwQQgghhBBiiEtJSblZUZQJQJ6iKN5E5yOEECAFGSGEEEIIIcQQpmlaQXt7+2hgJNBkGEaYfUcOcyzE1mPOKCbXx7USJdr32D3eVp7+zt08/dzdPPLIutCv83PXc8cjW4HDHHv7bh6Zfzf/im5aQiScTFkSQgghhBAiic3dttyI5fHxuEZ/cooWl8tVC9w6evTo76enp19vsVhuMQzjs+berTz9nVfhUtA/PIdb7lrEWADn1v/P3v3HR1ne+f5/35PJJCQkQQgw9yQRiOKPUgsNKGC1aIooq34prS6yuJzTXc4Wj7K7KK1Vu4ru+oMWZXvAb9mWXXc95SAFa/lWiqAi7GH5JUZopSpgAEnmjhCQJJCfk7m/f8wEkjCZ/Jqfyev5ePAwc9/XfK7PdUXyYD65ruvW6tdKZWqjSrRAixYVS7tXafUOyRxxWCXbR2vuimDbS3QQM+jkupl69vgC/WxRsSTpo6Uz9ZbuVFGXYxzVyd0r9eqT0h1bluirHcTtPFao64Fr5hSp5PjtmruoOMQYu5FbiDkL5Lpcuv8NzZkUGP9HZfNUnN+2j7e3SwUjJZVJJ/NvV9FVm0PONpDMKMgAAAAACWzrlKeMrrYt3v603Z32PXlPLNp3tW13fPnll1WS/l3Sv5umaUthCgP5xZqzqFjSt6Sl7+qkijVs0jzNmRSINex4qCJCQPhiQ6tCgySVrdJbI17SontHSZI2bHmh8xghCxTt4nYhn5DXyzZL9y9R8SRp2NJHA+Puzvja5xZiziTp5HHJnBy8PkI6UCbpwhwd1dalmzX2R3fKek1S/ih9VdLWS4cGJD22LAEAAADol04el8xgIWDYCMlqtbXm5O6t2rp0payb2q+E2aoDx+7UV0MUY8LHvFhouNB210aZx9/V6odmaunSrV2IoUCBIn9UqwuXxu1KPiGvT5ovc8dMrV76qA6MmK9Qz6HqXm4tws9Zm/jrVsq6aUnIvoG+hoJMwsnQwtmD9U6vYwzVSitCKV0Su4P8rGxNj1q/XRHJcbcfZ4YWzjbl6fX3JkriPvcAAAB9y7D8UfrqfaOlX7U646RslZY+VKrbOtyu1LEOCw03zdOcFW9o7ojlPcozogWM3StVMuIlzVk0X+bxldoaibNkQsxZR4Uh6ag+Oi5px6Na/dpGnTi2XFt3H41AEkBioiDTKy6tfMKU54lslXbrXrxEOt/AexaWBF+a1dq05pTmm+HahygalAyO+jyVvjlUntlm8E/3Cxelb2bqkzmn5V1zRlPDtgzO48qMS65dmKdLXvdEd+ceAAAA7XVcGJCUP0rD8udp7MjDgYJM2Sotfa1QizopxoSOGbrQMKzgqu7n1UbnBYxOV8W0uv7RjkMqmjxK0ih9dcShtqtfup2bOpyzYfcukH41U6uXztRbWhDcQjVTq3dLxYuWaM6iJZpz350qGLlAxZNCrbgB+gbOkOk1n8YqU8tLqrWs9UlcJQP1jHwaG7e8OpJs+UZAyWDdtKtBO9acUmEPQ5SWOVvtaw3DStcG+TR2e6ZWzqilQAIAAJDAht27QHpoplbvkCwt0KJgYeB3xz1K10BJh2SNWKBFCmwv0rGrtHpp4HwU874lIc+QaR9z7q6ZWl3wkuYsWhJoULZK1muFwULDfJlLZ2r1jqtkHbtT0h/D5vV2wUua06ZAMUrFIeN2IZ8Qfei+O7X0hUdljZSsY3dq7oquz9mluYWes4BizVlR3C7uG5rT+kL+PC1a1GqcK5YI6GsoyETAjMkNeub1bC0oqg5+4Hdp5etpmjX5vD7Z1dIqQwtn52hty8spVfLO92nlE0P0THBpyKwfWG2LJC3vmVIl7/zawEqSn6YFbhWe145nqy8WGFrfm9KgWb3N18rW9IedeuTCipAMLZydrjvX1AcbuC7m/lMzmKOCbTpbRRJGyDGGmrvabo+7e31e9M5KU3O3S9IQeXZder+1dzZkSpNP6+XJOXrwA5fm36V283ROT54Y2G7eOvreBuf8B9Lc4L2xc05r0yUxQ8y9la3pD2fqQDCvi/9vdRSzsSczBwAAkORCFwb+OkTLYfe+oUX39iRmcfhCw6I3Ltz6u2kvhM3rYpwQBYo2cbuSz6hL+lD+PC0KUYQJHy9MbiHmbENn4YF+hC1LkTD+nJ5Uppa3bB8pGahndF4LxrduVKtlayx511jyrqnSrO2ZWvnOQD1TUBW81r4Y49LKJ3KkH1iBD+xWtqa/7tOOYNsdk9P04JuuQFMrW9N/mqInXwrGv0EXixc9zrczjZr/7Gk9WRj4sH+hQNIpp5552Gy1fci8WIjocIwh5s7qxriLzujVgkzdNNvU9JY5axFuXoOmzrf06pRA4cIbphgjZWjjdp9mjG9U4fgGafVAvXPJPNVcOm9hc0jT3L31gfG9dL6DmO3m3srW9IfTNKNlXl46r09+2nqbVqiYAAAAAIBYYoVMRDRq2mRfcNVJvba8nqZZ3z2jQmW3a+dquyJGDRq7PUeeE852qy5S9OITQ6TJp7UpWKQp/SBNB0qduml25sVwU5ySGiXLqQNTzmtTy/aYonrNUqt2Pc63F9qs0PDpyZdazjdp/XVQyWB5XpdOhBtj+7mzJKnr454635J3fiCGZ3WDXg2uJOl4Xrs/ttI3M7V2ynl5TUmq14zCIdpYIk0tChutkxwa9GpLwcWs14zCHB2xpKnhtkK1///BrNYjU0xttCSZPYwJAAAAAIgoCjIRUnjXec1anaPlK51aW9qgV4sktT44tmSwPC2rOcxAYeDTwdXatKY6cG+2ecmWpQNlLcWIoNZbdVop9aZEPt/eMoNj665QYww1d+rJuBs1/1lLV6409eKbLk1t2aYTcl4zLnn3BSHH5tKWXU6pNEee7TkXLweLXp3qbg4AAADolfIjHynvSh6unMzKDv0h3ikAvcKWpYip1YI5Pq3dnqaxc85dcoZKqTdFmnI+sDLESteGUkmfZQS2ihSd0Y45Pn3ibdmm0qxHnj2tJ0/kXHhaT+H4hsBBsS1Fk5LsC1+3v1f6Zmb4LUtdyFemT9coRUe6FbN3CjoYY8i5UzfGXTK4zROOjpyQrvE0hozRel67pWSgnilt0KsXtlYFt1eVttoa1oGI5dDC9LWNZ2Xrxe0+Xc0KGAAAgAu2vPrPPfjtIRLJpn/7SVW8cwB6g4JMBBXedV6z1KBHQhyQWnjXec3anhM4M2WFU9cUSrpC2hg8R+Wm1c3t3hc8J+RETuCR0Ga1Xp6ji+ev7PVd3PbT7t5NZc1dOtw2XL6Bgs3FmA8q1IG5ga1Pa3/a/jHPPdTBGEPOXYj2HY676Izu3NtyZs0QPVNQdXElUrh57YZ39oYqbAWLXnud7eap3bz1KIcwc29Wa9MPmi/GezhNM9pvEwMAAOjnUpypf/Pvi+dVlR/5KN6poBsqy4/ps/07/cseuKMuNT3t9njnA/SGEe8EosE0TduyrF6PraioyP7gpU6WNwD9wPiHi1RSUtInf14AAJDIvrVt8Xu2YdwS7zxiybDtbe/esvjWaPbhdrufqqioeHrChEnT0zMznk/LyMz68ovyjp/dEEZNTY2ysrIikhexwrtseF5p7bkqV0pK6uaaLyufOnDgQHnL9zIiyQEx1ic/YFGQASKLggwAAAAARBZblgAAAAAAAGKMggwAAAAAAECMUZABAAAAAACIMQoyAAAAAAAAMUZBBgAAAAAAIMYoyAAAAAAAAMQYBRkAAAAAAIAYoyADAAAAAAAQYxRkwsgf0lga7xyARMDfBQAAAACILAoyYZyvN87uPzow3mkAcbX/6ECdqzfOxjsPAAAAAOhLKMiEUetLWfBPa0dUxTsPIJ7+ce2IqjpfyoJ45wEAAAAAfQkFmTB27dq/MzO9adqUx8fV7TiY4y+tSI93SkBMlFaka8efcvzffHxcXWZa4+27du3fGe+cAAAAAKAvMeKdQDSYpmlblhWxsY0dOzZvaI7/mSafY1rOwObGskpXYaRiI7zKykrl5ubGO41+JT+3sbTqXIrL5WrefPLLlKcOHDhQHu+cAAAAAABJwDRNO945oPc8Hs8LpmnWm6b5fLxzAQAAAAAgktiyhERl2Lb9qKQ0ST+KdzIAAAAAAEQSBRkkJI/H8zNJjZJkGEajaZrL4pwSAAAAAAARQ0EGiSpD0heS6mzb/kJSZpzzAQAAAAAA4XCGTN/B9xIAAAAA0BexQgYAAAAAACDGKMgAAAAAAADEGAUZAAAAAACAGKMgAwAAAAAAEGMUZAAAAAAAAGKMggwAAAAAAECMUZABAAAAAACIMQoyAAAAAAAAMeaMdwLRYNv2NtM07XjnAQAAAAAAACQdCmsAAAAAgL6ILUsAAAAAAAAxRkEGAAAAAAAgxijIAAAAAAAAxBgFGQAAAAAAgBijIAMAAAAAABBjFGQAAAAAAABijIIMAAAAAABAjFGQAQAAAAAAiDEKMkhotm0vjncOAAAAAAAAAAAAAAAAAAAAAAAAAAAAAAAAAAAAAAAAAAAAAAAAAAAAAAAAAAAAAAAAAAAAAAAAAAAAABBxbrf7KdM0ywoKCjwt1zwez689Hs+v45kXAAAAAACR4oh3AkB7FRUVTxuGsbOpqel/SNLw4cMn2rZ9XUpKyt/HOzcAAAAAAIA+q6CgwGOa5scej+c2t9u90+123xvvnAAAAAAAAPo8t9t9r2maNluVAAAAAAB9DVuWkMi+IulgvJMAAAAAACDSKMggIQ0fPnyiYRj3GYZxj9/vz2fLEgAAAAAAQBTl5uZmtT43Jrh1qc1TlwAAAAAASGaskEHCcblc/+pwOMoqKirWSVJFRcU6wzB2Njc3/3O8cwMAAAAAAAAAAAAAAAAAAAAAAAAAAAAAAAAAAAAAAAAAAAAAAAAAAAAAAAAAAAAAAAAAAAAAAAAAAAAAAAAAAAAAAAAAAAAAAAAAAAAAAAAAAAAAAAAAAAAAAAAAAAAAAAAAAAAAAAAAAAAAAAAAAAAAAAAAAAAAAAAAAAAAAAAAAAAAAAAAAAAAAAAAAAAAAAAAAAAAAAAAAAAAAAAAAAAAAAAAAAAAAAAAAAAAAAAAAAAAAAAAAAAAAAAAAAAAAAAAAAAAAAAAAAAAAAAAAAAAAAAAAAAAAAAAAAAAAAAAAAAAAAAAAAAAAAAAAAAAAAAAAAAAAAAAAAAAAAAAAAAAAAAAAAAAAAAAAAAAAAAAAAAAAAAAAAAAAAAAAAAAAAAAAAAAAAAAAAAAAAAAAAAAAAAAAAAAAAAAAAAAAAAAAAAAAAAAAAAAAAAAAAAAAAAAAAAAAAAAAAAAAAAAAAAAAAAAAAAAAAAAAAAAAAAAAAAAAAAAAAAAAAAAAAAAAAAAAAAAAAAAAAAAAAAAAAAAAAAAAAAAAAAAAAAAAAAAAAAAAAAAAAAAAAAAAAAAAAAAAAAAAAAAAAAAAAAAAAAAAAAAAAAAAAAAAAAAAAAAAAAAAAAAAAAAAAAAAAAAAAAAAAAAAAAAAAAAAAAAAAAAAAAAAAAAAAAAAAAAAAAAAAAAAAAAAAAAAAAAAAAAAAAAAAAAAAAAAAAAAAAAAAAAAAAAAAAAAAAAAAAAAAAAAAAAAAAAAAAAAAAAAAAAAAAAAAAAAAAAAAAAAAAAAAAAAAAAAAAAAAAAAAAAAAAAAAAAAAAAAAAAAAAAAAAAAAAAAAAAAAAAAAAAAAAAAAAAAAAAAAAAAAAAAAAAAAAAAAAAAAAAAAAAAAAAAAAAAAAAAAAAAAAAAAAAAAAAAAAAAAAAAAAAAAAAAAAAAAAAAAAAAAAAAAAAAAAAAAAAAAAAAAAAAAAAAAAAAAAAAAAAAAAAAAAAAAAAAAAAAAAAAAAAAAAAAAAAAAAAAAAAAAAAAAAAAAAAAAAAAAAAAAAAAAAAAAAAAAAAAAAAAAAAAAAAAAAAAAAAAAAAAAAAAAAAAAAAAAAAAAAAAAAAAAAAAAAAAAAAAAAAAAAAAAAAAAAAAAAAAAAAAAAAAAAAAAAAAAAAAAAAAAAAAAAAAAAAAAAAAAAAAAAAAAAAAAAAAAAAAAAAAAAAAAAAAAAAAAAAAAAAAAAAAAAAAAAAAAAAAAAAAAAAAAAAAAAAAAAAAAAAAAAAAAAAAAAAAAAAAAAAAAAAAAAAAAAAAAAAAAAAAAAAAAAAAAAAAAAAAAAAAAAAAAAAAAAAAAAAAAAAAAAAAAAAAAAAAAAAAAAAAAAAAAAAAAAAAEgObrd7V7xzAAAAAAAAoaXEOwFEnsfjeUHSzKysrMxz5869G+98AAAAAABAW0a8E0DEGaZp+lteWJbF9xgAAAAAgATjiHcCiCyPx/MzSY2SZBhGo2may+KcEgAAAAAAaIeCTN+TIekLSXW2bX8hKTPO+QAAAAAAAPQPpmna8c4BAAAAAACExgoZAAAAAACAGKMgAwAAAAAAEGPOeCcAAPE2acLXp2cM8D0/MN3OKjvtKox3Pn1J/pDG0nP1Rk1tnfOx3fs+3BTvfAAAAIBEwSOR+yjTNG0eeQ107nvfuWpWo8/4xQ+/U5b9tZHn451On/SHY5n6yRv5Va4U+/uv/ObQ2njnAwAAACQCtiwB6LcmTfj69Eaf8YtfPfwpxZgo+trI8/rVwk9zGn3GLyZN+Pr0eOcDAAAAJAIKMgD6rYwBvud/+J2y7Hjn0V/88Dtl2RkDfM/HOw8AAAAgEVCQAdBvDUy3s1gZEztfG3leA9PtrHjnAQAAACQCCjIA+q1EPMD3nZWmPE9kq7TlQslgeWab8sw2Nf1NV5u2pW8O7eCeSyufMIP3hmqlFavsO5eIcw4AAADEAwUZAEgUVrZe3N729fSfSq+useRdU6VrVudcLK6UDNZNuxq0I8S9d1YO0YbJp+VdY8m75pTmm7EeCAAAAIDOUJABgITg0soVaZoxp+HCldIP0nRgSr2mSpJqdecUpzZ8EFgJU+pN0djJ9Spsde9TS4GizonzevmuxpiPAAAAAEDXUZABgAQQWNVSpfmettfH5vsufF2Y79OBMmfga0+zDuxKD25tcunICekTr0uynDpQIG1p2bLUevsTAAAAgIRBQQYA4q1ksOaqSpu6sKrlQoGm6IxeLcjUTbNNeWbn6NOCwPVSb4q0PU16yJJ3jaVXCzL1YLuzZwAAAADEHwUZAIgrl1a+niZtMHQE3gAAIABJREFUzwmsaPlpmlSaqZtmD9ZO6cKKGEkqbfW1JE2dbwXPianS1SekGeMbVehplqacv3BuzNQbGtrEAAAAAJAYKMgAQFw1av6zLYUVS94fNEiF57VjzRndP75BY7en6x1JUoY2bvdpxvgQq2hKBuoZNWiaKcn0tXqP9M7etDbbngAAAAAkBn5tCgCJyqzWy3OG6qbZgeUus35gtXpiUoYWzs7RWklSg15dUx044Nes1qYfBB6VLUmaUiUvB/wCAAAACYeCDIB+Kz+3sVQKPqgoURSdkbfo4svCu07Je1eohrVatqZWyzqKsSY66fVWfm5jaUm8kwAAAAASAFuWAPRbVbUprtKK9Hin0W+UVqSr6lwKJwwDAAAAoiADoB9zOZs3e8+k+eOdR3/hPZ3mT3X6t8Q7DwAAACARUJAB0G+d/DLlqSd+Naoh3nn0F0+sHtVwqsrxZLzzAAAAABIBBRkA/daBAwfKRww9f+t3XxhTtf/owHin02ftPzpQ97wwpmrksNpbDhw4UB7vfAAAAIBEYEQr8JgxY1w5wzKW+5v8d6RlpfhqvvAl1sGZfVxNTY2ysrLinUa/kjXMWdpY23zW1+RY8P6u93dGIOQDkjzBr90RiNcTP5V0KE59x8zkyeNuHOBsXj4w3R5UdtqVFD+rKisrlZubG+80OpU/pLH0XL3xZZ0v5W937dofib8XAAAAQJ8QlYLMN2dcX1Dr9R+d8sAQ5QxPTRmUlxqNboCEc/Jwg/7rlTNVqQOM27e8vntPD8N8Q9JGSS9KsiWVSsqIVI7dtFGSFae+0QGPx/OCbdt/L2mZZVmPxTsfAAAAAN0X8YLMmDFjXAMGpNfOXVWQEunYQLJY/WBZXf25ptE92J5xo6R/kHSfpKrIZ4Y+wDBN88JBxJZlRW2lIwAAAIDoifgZMjnDMpbf8sAQPiCgX5vyN7lpAy9LfboHb31H0ndEMQYd8Hg8P5PUKEmGYTSaprkszikBAAAA6IGIF2T8Tf47st2pHBaMfm3g0BRHs0+3d/NtiyQ9JqkuCimh78iQ9IWkOtu2v5CUGed8AAAAAPSAM9IB07JSfJwZg/5ukCdVaVmOxm6+7XJJh6ORD/oOr9c7T5JM07Qty7o83vkAAAAA6JmIr2ThaUpAQA/+LvgkfR6NXND32La9Ld45AAAAAOi5iK+QAdBjBZJYXoZOmaY5XhLPtQcAAACSGGe9AEDyGS/pg3gnAQAAAKDnKMgAQPKhIAMAAAAkOQoyAJB8KMgAAAAASY4zZAAgydi2XVNRUUFBBgAAAEhiFGQARNyECRNuaG5uvs4wDHe8c+mLLMu6paio6Il459EfGYZx2u/3/+nDDz/8z3jnAgAAgORGQQZARBUVFb1h23aqYRhHJJ2Ldz59hW3bKTk5Obc3NzdfIUmZmZk/TElJ+ayqqmqzYRjN8c6vv2hubr7M4XD8Y1FR0QCfz3fXH/7wh5PxzgkAImX48OETHQ7HM01NTfdUVlbWRCKmaZqr/H7/L7/44os9kuR2u5+SdLvP57u9q31EOq/2OXk8nl/btn2vJNm2vbiiouLp3vYBAF1BQQZAxBQVFf1/Dodj/b59+16Ndy59ydy5cy//+OOPS//hH/7BGDFihOPmm2/WK6+8kv3555+PffTRR7927bXXFr766qufxzvPfuT5oqKiK1NTU9ffcMMNM/fu3Xs63gkBQKIrKCjw+Hy+vZL+KCkixZ5IGD58+ETbtv/Vsqw/D+b47vDhw99qKdZ09J5oFq7cbve9hmH8WpJs2/7zioqKdZHoA0Di4VDfhPKl3pz+R+0u7+49IP7Gjx//jMPh2EAxJrLGjBnj+vjjj0v37t2bUlxc7LjiiiskSVdccYVuvfVWx969e1M+/vjj0jFjxrjinGq/UlJSckTSgz6f7xfxzgUAksGJEye8lmXl+/3+xfHOpbUvvvhij2VZm6VAjpL+K575FBQUeAzDuNGyLMPv908yDGNebm5uVjxzAhA9FGRipk67/3aPnn/pyxj196XenL5Hz0//TIdbXy736pX214AIsG17jmEY78U7j74mLy9vxZIlS4xwbV544QUjLy9vRaxyQsAHH3zwR0kTx44dmxfvXAB02ZWS6iQNl/S5pJnxTScxpaam/to0Tdvtdu9sKQa43e6nTNO0TdO0PR7Pr6VA8cA0zbL21z0ez69brkm6N1p5RTqn4cOHT5RU0Nzc/KdI5dxdwcLVwtaXIrUKB0DioSATK+Vf6mNlyP12WQxXuWTIPbpSO16vi1WH6KeuvPLKbMMwDr///vul8c6lr6mvr7/98ssvD/uzesSIEY76+vrbY5UT2lifmpo6Nt5JAOiyUkkPSbpd0uWS3ohvOglpkm3b/9bU1JQtSU6n847hw4dPNAzjxqampuzgyo2Dbrf73pZVL5ZlGU1NTdm2beeYpvm4JLVck7Q7GnmlpqYuiGRObrf7XofD8brT6fxeVwsg0SpctcQwDGNZU1PTwpCdA+gTen2GjMfjecW27bPtKrlo5/DaE9KUr2nGlCPasLtOk747IHBjz2d6fnFl4OvbcnVd6zeFu9eqzStlHn2vJV471z56lSrnHdHuSddpUqjf4ZZ79cq8E6oIvrxu8UTdNbHlep2G3lapP76dq3tWDdCOeXW6dl6t3ltVKylX92warE+nH9IfJem2q/TYw5d1a07Qd+Tk5Bi2bU+Kdx59UU1NzcCbb775kusej6fNa7fbPTBWOaGNEbZts10MiC+HpGZJr0u6R1KGpC8krZT0g2Cb05L+TtI+SXdL+nbs00wau30+31uVlZU1Ho+nzO/3yzCMOyRNS01NrTZNU1Lg8NtW58K0/CuzWtLnfr9/nSRVVlbWmKZ5Ikp5jTMMIyI5tRRIvF5vfjfymWTb9jyfz/fnTqdzc7Bw9XlLkaiysrLG7XY/FSwSrZOUL0m5ublZqamp61sXiVqutQQOHir89PDhwyempqbuLSgo+FZwOxWAPqbXK2Rs277NMIz/GawOvxCJpPqeL/Xp2xm6dtIADZ40RFrlDWwZKvfqlcW1unXVRD22aaIe+0bglDN1dq9bLtNdizP03hKvzrS/Ve7VK/NO69qWPlYV6NTi1ufUVErfmKjHNl2h0cHXH+tKPbZpou65rVLrp5/R1Zsm6rFNV+m6mK78AfqPQYMGndy8ebO8Xu+FP5LavN68ebMGDRrE034A9Ff+4H8fCf63QVKKpF+2avOUpF9JekDSXEk/jFl2fcOfDMNYZ1mW0fKnoqLi6aampv9h2/YvLcsynE5nniSvJDkcjnulwMoQSd+IRkKGYZRFIie3232vJHm93j/vZgoXCkQOh6MsmFPrwpVtGMZiSV9pvUImNTW1WtIkSaNaF4kkXVK4Cm6d+ryxsbGgm7kBSBIXVsi43e73DMO4pQcx6lp+O+hwOP6+srJSgRWgaHHm9TL98bZ8PZYnSZfp2tEn9OmeKzRadaq4LV/fa6nfTxys61Qb+LoszD1Jh1/ao/Vvt7yq1POrJI0u0Pf/l0eD2ycw8Qrd8197tHOPR3e1rvu37yPPo5tuO6FPy9RSw9fVE1sHytVNwZU4Q0ZkSLcNDhZq0pU7ulaVZbr4uwgAEdHU1LRi48aNz1133XXZHbXZuHFjdVNTE2fIAOjvWhb8Pq3ALx1PBV//m6S/UuBD8CwFCjd/LalA0oIY55iUKioq1rnd7q8Et9ZIUrXf759m2/ZbDodji2mai30+X7WkE7Zt/x/btp81TdP2+Xzl6unvFDth2/Yu27YjkdNXbNu+t1Wc3jz6+k+GYaxrX9wJPur7lxUVFU+3PMlJulAkWhe89g1Jv2wpEFVUVKxLSUn5iqTLXS5XpFYZAUgwFwoyhmHcYllW2IMjQzFNs8wwjKG2bafatr0sNzf3R5FNMdnV6dD2WunwIT3/dqvLq736ypRa6dLyiSTpTFnH9yRp9MMT9djD6nTL0sX2V+nT6Z/p8Krw7QAklh07drw8ZMiQmb/73e+K77777kt+Rv/ud7+zd+7c+f6OHTtejkd+AJBAGiSNkPTPkp6QdE7StZJattXvluQOfn11zLNLAsFHPV84k6x1YaFlG02It+WEuHZjV/vobV69zSnMuLotEoUrn8/3ltPp3Gya5q9b3s92JaDv6vUZMoZhvGXbdpVlWY9IkmmaFGRa2+PVe4dzdc+FbT9S4AlIh/SnOwoCh/zOukyT8oIraSTdKmnwpCFyrwp9r2cu012Lz+j5JaflVkbgUv6ANv2r3Ksdb2fo2lm9GTCASNuwYcPUc+fOfVhdXT362muvzZSkkpISffzxx+dfeeWVw+++++7UeOcIAAniv0t6Pvh1k6RvSvqXuGWDPikGhasOC1oA+pZeF2S8Xu+8SCTSVx3+r0q5532tVTFGki7TjfMy9C+fDND350n/Mm+P3pOCB/cGtyXleTRj3unQ91qbeIW+N/HSyyEFty6tP5xxoY/vLa7T8y19KEO3rgoe/st5MEBCeffdd7/e3Nz84/T09PslXfXEE08cqq+v/9W2bdv+Kd65AUCC+LECH4RzJZ2RtFxsSQIAJLALy99N07R7smWpvaKiIvu//xtnyAD//lefq6SkpDt/p9ZJWitpfWcNE8348eNzbNs+XlJSMijeufR1Ho9nt23bE23b3l1RUTE53vn0d0VFRW8YhvEfH3zwwW/jnQvQj+VIOitpuKSTkr4q6QNJV0gqkyR7m96TdEuc8uuNbcYtvVggDQBIaL1eIQMAiBmHbdsTJckwDB4zDgABV0hao0AxpuX1ywoWY4JuMW5R2F+S2Ntkx6pNd2J1FgcAkLx6/dhrAEBs5OXlfdj6tcfjKYlXLgCQQL4h6S9avR4t6eE45QIAQJdRkAGAJOH3+9MlNQdfNtu2zWPTACBwVkxrS+OSBQAA3cSWJQBIEpZlXS1dOPOLn98AAABAEmOFDAAAAAAAQIxRkAEAAAAAAIgxCjIAAAAAAAAxRkEGAAAAAAAgxjgUEgAAAH2evU12IrXpTjsAQN8U8YJM1nBnqaTCSMcFkk3w7wIAAEgAxi0ywt23t8mOVZvuxOosDgAgeUV8y1JDTbPzbHlTpMMCSeWst0kNNX5XvPMAAAAAACSmiBdkHKmOt6q+aGqOdFwgmZw75fM7UrUl3nkAAAAAABJTxLcsVZ2sXbD95/6/nvvLjEiHBpLGf/7idEPduaYn450HAABAKG63+6mKioqnJ0yYMN0e4HzeMSA1q7nyfI+OHaipqVFWVlZE8opkrEjHS5RYKbmZpf66phqjzvfYvn37NrV8LyOSGICYinhB5uDBg43fnHH9qFfnnTh6ywNDjGx3qmNQXmqkuwES0snDDdr572eqcjyatnvdgfJ45wMAABCKYRiLr//Otz6Rz/5Fxnevy3aOHNzjWNZ9K1Ww6v6I5BXJWJGOl0CxCn3HzqjuN39cc/3l3/p+2a4/LZZEQQZIQlF5ytJ/bnj/xJgxYzJ2/urL5f4m/x1pWSm+mi98HPQbQ5WVlcrNzY13Gv1K1jBnaVNd85dNjY6/fX/jvr3xzqcvcrvd7xmGcUu880gAZ03TjOlBj7Ztb6uoqLg1ln0CAKLMZ/8i65Ep2fFOA93nHDlYWQ9Pyal5cfsv4p0LgJ6L2mOvDx482KiD+n604qNjHo/nBdu2/96yrGWWZT0W73yASDEM4xbLsjp9cgUiL9YFIABA9A347nUUY5LcgO9el633P453GgB6KOKH+iLuDNu2H5WUJulH8U4GAAAAiak325SQGPgeAsktaitkEB8ej+dntm03SnIZhtFomuYyy7IWxjsvAACAeLK3qdOVfrFs0512AIC+iYJM35Mh6QtJubZtV0rKjHM+AAAAcWfcorBbXu1tsmPVpjuxOosDAEheFGT6GK/XO08KnPdgWdbl8c4HAJAcxl0/+cZmh3O57Uwf5Ko73euD+BsHDCk1fPVnU/y+Bfvf37UzXNvJk8fdmJHRvDwz0x5UVubiIQB9TH5+Y+m5c8bZurqUBbt27Q/7/wIS0Vk1apBcnV7rnUZLcpkRDNhLkc4ndLxj8j5eKk2W6ssGK/+BcW3mtPF36/VZ2QRd+8BISWfVWFKisp9IQ18rVuQeDA4gnijIAADQz11187dvaFL974+PnpVzLntUpMIWDqw+qhGH1v5+9K0zbj/83oY97Ru43e6npk3L3nT+fNPvf/zj4znjxp3rdacvvjhQjzzS+zjEjGjMwv37B+of/3HE7//yL0ff/vbbNXdUVFTwiN6EEaYoYB2T97dn5dIRVWuCCh8YqZqfr9cpXalsSdntCghdiqlj8j6+TyoYLOUXKjfvrCr3SK78M6reNbiLMUIXJ9oWMLqTT+t7g1T5eKlck6XqskLlPzCym2Nsl1vJfnlbjS//uYt9N/5un3TPPfIUSTU/X69qa5xyzYvxK3dJaQUt3wupwSxUdmFpyGwAJCcO9QUAoB8bO3ZsXkbDyW0Hx/8oksUYSdK57FE6OOFHOZnnT703duzYvPb3DcNYfOxYxrb16w9GpBgjSS++GPnfGxOz98aNO6fXXz+Yc+xY5nuGYSyOSFBERKAoUCzP3cUaqiOqtlrdNEfK88A45T4wVdk6q0Zrv07lT1XhA+OU22ExppOY1llp8lR5HiiW5+6RchWNC/Rxd7GGFhzpYoyW4kTrXoMFjG7mc8m9d0qle4oD+ahUDd0dY/vc2o2vdd8NZRdXzaTlB1bRBJxV5c9LlbXgyouNzUHKMgd1kA2AZEVBBgCAfsyfnvPM0WvmhPoMEzFHr7k/rXnAZSFXRDz77NGo9o3E8txz0ft+Dx8+nHPzOuHxeF4xTXNZ62sdFwUCGkuOqfLnJWqcOE7ad0TpZcfkfXy9Sn9+rMN+OotZv6tE3p9vVWWb68dUc+JiASJsjEuKEyEKGF3M55J7g4vk2rNe3p9vVU1+UYdbgzqM2WHhJDC+7C5sg2r8XYkaJ7ItCegPKMgAANCPOWz/tIb0IVH990BD+mBHir/x9lD3PJ4G/i3Sj0Tr++3xeHIdDscf3W734eHDh7/k8XimRqOfZGfb9m2GYfxP0zS7fFiwyxyk7G8PltbvV6MkTRwnz3P3KD9/n7wlPUjCHKfC54rleaBIWr5VNZJk7Vfp42eV+9y4HgSMcAHjSImq86fK80CRXGUl7YpGPdRqfK1XFbUu5Fws8JxVdZmkPVvl/e0RNZzYp8qSsxFIAkAi4gwZAAD6sebUjMb6DHdU+6jPcKs5dWBjqHuFhfVR7RuJJVrfb6/XW2maptswjAGGYfyd3++f53a7D1ZUVEyOSocx8uL6gTLNrEg+aanOtu0LNYGjP/6N8iZKNZYkM1gUmNDuHeYguTROWQVbZecNVlek5XcSU5I0SGkFZ9RwYL9O7RykwudG9iCGdKGAUbZVXp1RwwmpsmSQcosGdSlW+3t27Rll/0Xgvdn5ZwIFmRCrWrqcn7Vfpb+9dHyS5Lp7gvT4enn3SPWaoPx96+XNC2znanlv/W/bjgVA30JBBgCAfsxVVxmTpxrFqh/0D263e6Sk6x0Oxw22bV8v6QZJNZIGGIbRIMmyLCupizGS9Mg957RoxblOH6HdVaZplhmGMdS27VRJxqh/+o6kY22KAoVm4HDcyrypyi0vUWWZJJ1Rff4EFRYNUsPP18u7Z7DqT1yp/OdC99O+0NA6pkfH5N1z5kLM/M/3qfrEYHl/Xtr1GG0KFIOU20kBI2ys9vf+4qxKl29VY4G6NcYLxZR2fTfuOyK1Gp/r28WtDu4dKU+bQs1Iedp8w8ap8IHWFwYp97ni0AkBSEoUZAAAAJCw3G73UEk3OByO61sVX84ZhvG+3+/fK+kpp9O5t7m5+ceS/s627d9YljU3rkknKMMw3rJtu8qyrEcubltqXxSQXHffEygMFBW3LRBIyn3gni70FCamxslT1LZt4d0XX1VtP9SFGFLI4sQlBYyu5DPoknuFHRRhwsccGTq3u+9pMz4AaI2CDAAAAHqltFQqjMAaKI/Hk+H3+29QYPXL9bZt3yApwzCMvX6//31JLzscjv/m9Xor27936NChzzudzmOWZf0yVGx7mzrd+hPLNt1pFyler3deLPsDAIRHQQYAAHTKVRP6ZMvGrC48MiQCIvWBP9qxo5FntMbe9bgZWjg9XZohffKpTy8vq9aFt72TrYUbpauvdmrDBp9e3lStQrlU+s5APThXesR7RuFO13W73der1dYj27ZHGoaxN7j6ZZ1hGD+wLOt4V7I8derUOUkhizGSZNyisFt/7G2yY9WmO7E6iwMASF482QAAAIRXY8lZHfxTvkI55Rdfu2oi0UGGFk4frIUrB2v6wmy1OUninWwtXJitLVsGa/r0lnsulb4zWNM9g/VOTGNHI89ojT1ycUtXZkqPnNGy+Wf0iNK0pXWwqdVatqxa8+ef0SPXBO+VSqWF9ZoxNmyCcrvd7xmG8bLD4Rjj9/vfs237XsuyMi3LutXr9f6woqJiXVeLMeiZ5oqI/AVGHPE9BJIbK2QAAEB4WaZqW1bClO9VuopUmxe58IEP/Ke0bKr0zsKh2lIqzW9ZgjG1WsuCSyyu/DR4Ty0f+NNjGjsaeUZr7BEd96fS1dMCXxdeLW0slXTJypoMbfykQQsKJalRUyUdCZuh5HA4Dvr9/o8ty3q5k6aIkuYztf4Udxa/oE1i/tO1fvFLdiBpUZABEDNjxoxxOQfmLrf9vjv8rkxfd5+6UlNTo6Kiom4v324ckFvqaDzvNJzOt3zVlQsOHjwY8vG7XdXbcfRUb8Yx7vrJNzY7nMttZ/ogV93pbufb87kfUmr46s+m+H0L9r+/a2dX3pOM89u3Wcr4ZIPSq4Ivq04oRSs1uCz4OucGnbumSL2ZrGh94I907GjkGa2xR3NOL+0sW9MfVHC7UresMAzjDUkUZOKk7n9/0OB6/s8GxDsP9Fztrz5okMT3EEhSFGQAxMQV35xRkHa+/OhnV96jxsyhKXUZ7lh2XzigtkKu2pPzrvj41b++4pszRn32nxtO9CRQMo7jqpu/fUOT6n9/fPSsnHPZo2KRZ2uFA6uPasShtb8ffeuM2w+/t2FPuMbJOL99n6naa+arNvgqY88TysyZoTPXxObsGEm9+cAf29jRyDNaY+9G3NYFndaFngtxlvu0aVNtR2/vkNfr/cTtdpfn5eV9q7y8/N1uB0Cv2La9WEMz3qp+fuvmjPvG5ThHDe5xrNx7JkQsr0jGinS8RIrlO3pGta/trzKGZU6zS+3pEUoLQIxRkAEQdWPGjHGlnS8/WnLz0pR45VCX4VZdhttRcvNSFf3fRUfHjBmT0d0VEMk4jrFjx+YZDSe37b/xubj99uxc9igdnPCjnHE7H39v7Nixow8cOFAeql0yzm+/U/OmMvVdVWmDsmvmqzorMmGj9YE/0rGjkWe0xh7Rcc8/L00fqoUbpU90XpsKpdKVQ7X8yiotOJImfeLUwoWBrU5XLzhzcWtUFzgcjhV+v/8hSRRkYqyiouLpig0Vun7y9X92/l/3LHcMSB3UXHm+R3W/VEln/yvkj/a4xop0vESJlZKbWeqva/rS4Wv+2/ffen+vpL0RSQpAzFGQARB1zuzc5Z9d8d1OnzgRK59d89808sj65ZK+3533JeM4/Ok5z3x+9ay0GKbVoaPX3J9WcOjXT0sK+djVZJzf/sRV/qZyDkpV04rUKFPpW55Q9piHVJ3X+5Uy0fzAH8nY0cgzWmOPbNxaLWtXvCmcf0rLJGnqKW2aH+o9jZq/6UyneXq93t+63e6XCwoKPCdOnPB2bXSIpPd3vb9T0vh45wEA/REFGQBRZ/t8dzRmDEuYA+caM4em2H7fHd19XzKOw2H7pzWkD0mInBvSBztS/I23d3Q/Gee3v8j45InAyphpLWfFmKqe9pAyPtmgoZ/coFPXFPWyh+h94I9s7GjkGa2xR3NOI8swjBU+n+8hSY/HvHPo+smTb0xzDVielpE56MsvymNyZhd67rLheaW1NVXO1FTXW6dPWpx3BiQ5CjIAos7vyvTF+CyQsOoy3PK7Mn3dfV8yjqM5NaOxPkFyrs9wqzl1YIf/cEzG+e0vaq95Vpdubml7tgzQU01NTStSU1PLFeWCjL1NnR5MHss23WkXDW63+6kJN0/b1FBb8/vpf/XDnPyrvtbjWJv+9//S9L/824jkRaxOFVaWH9Vp6/N5G/7fp/562oz7Rm3Z8BrnnQFJioIMgKiL1VNyuqMnOSXjOBIt53D5JFquUmLmBPQ1lZWVNaZpvuF2u+dWVFS8Gq1+jFsUdkukvU12rNp0J1ZncXrKMIzFp71HH1248q1enzH2VgSLFcTqXG7eKOXmjXL88N+26Sd/dQvnnQFJLGGWhgMAgNhrHDCktC/1g+Rk2/bLhmE8GO88+pv/5/tPJsQZY+i5bz/4jIYMM5fHOw8APUNBBgCAfszw1ddkVh+Lah+Z1cdk+OprQt37wx8yo9o3EktH3++Kioq9kgy32319bDPq33KGefgskOQGuwtSmpoaOe8MSFL8EAYAoB9zNtc9ln/kN9XR7CP/szeqnM11j4W695Of5Ee1bySWn/wkv6qje7ZtrzAM46FY5tPf5eaNjHcK6KXcvFHKyMrhvDMgSVGQAZAQMvbMlrnlTblaLpSvlLl2tsy1szX0E+tCO9cnT4S8HmApe8vs4P0nlB3y9/HR1dVxSOHGErtxXJJvmJwTMt8En99k8OG+fZtsh/Nvrv5wWVWkV8pkVh/T1SUvVdtGyvc/3LdvU6g2Lpf9N/fff3UVK2X6tj/8IVP33391tctld/gY+eD5MTNzc3OzYpgakPR4OhaQvDjUF0D81bypzGOSLrv4eugOqWrWGtWqRIPXrlB23rOqrl6pIZ9P1ulZz6qx9fXgP90z9jystMtfkjXNTOxxZEkq73gsMRtH+3zD5Rxm7uOWb6LPbxIVxl64AAAgAElEQVQ5tO03a78+YUJ14cF/fd52pme56k73+h/3jQOGlBq++hpnc91jHRVjbNte/Morh9ZOmvT16oULC58fONDOKitz9arvgQNrNH58bx/DTcxIxszPbyw9d86oqa11PrZ794eb3G73NWGav+xyuR6U9EKvOkWEHNVJjdKwdldPlknD8qPTV18VnTkDkOwoyACIM0vZu3apYewUOT8PXHGV75Jz5HeDj9MtUv3Inyqz3JJLJ+S7fIYaW11Pr5aUpcCH9ao5qpoYrw/ZXR+HrjHlqulgLIrVOC7NN1zOHc59HPNN7PlNPsGiScjCSbRUVFQ8LUm7d38Y874ROyUlbV+3fN9DSUlJWdHc3LxHFGRiaKtWP7RZmiJZx0dr7qJ5gQJM2Vatfq1UpjaqRAu0aFGxtHuVVu+QzBGHVbJ9tOaumHdJsSZszKCT62bq2eML9LNFxZKkj5bO1Fu6U0VdinFUJ3ev1KtPSndsWaKvhonbG+ELKN3ILcSchY8RajyjOhwzgOTGliUAcRVYrfDQhVUuLXw5ZquvC+WsstSYVSDn5x8Et6tYclZJKTXBrSjVZXLmSOktW1Hab8OJsu6MQ1LHY4nRODrKt6OcEzXfRJ1fAD1TVlZWLul9j8fz7Xjn0l+cXLdcun+J5ty7RHdooz4qC97IL9acRfNUvOglFalUJyVp0rzAtXuX6I6Rrdp2NaYkaave3i4VtLwsW6W3RrykRYvmqXjRvM5jlEkn829X0VXte20Xt9291Q89qtXrHtXSpasCY+nweuDaR7se1dKlW1u17cL4QuXWwZyFn6N24+lwzACSHStkAMRP+Url6AeyrjGl8vBNfTmmlDdfVWWzNWTtakmFahh5cWeDq+aEdOyE9GdrZGUFzhrJ+WS8Tl0Tg5UQ3R2H1OFYYjKObuR7IeckyTch5hdArzgcjhXNzc2PSfptBMNus7fJ7qxRLNt0sd22rsTpjZPHJXNy4OthI6QDZZKCK0NO7t6qj3ZslnXTErVdc7JVB47dqds6WEHSccyj2rp0s8b+6E5ZrwXb7too87i0+qGNskYu6DxG/ih9VdLWNj1eGrdNPuuWS/e/oTmTAqtxPiqbp+L8Dq6XbZbuX6LiSdKwpY/qpIovXbnSrdwunbMNYecoxHjCxgWQzCjIAIgTS9kHt0tfbpd57OLVIWvLdG6sgisdAh+SnVWlUk7gfu3ENaqdGHz/lhXyfSXQpjGrQBp5w4UVFLX5U5RTdjFGoo2jo7E0Vkd7HB3nWzVrvnzq3tzHM9/EnF8AvVVeXv6uaZovezyeq71e76eRiGncolsjEae/GZY/Sl+9b7SsF1bp5KSWrUyrtPQFhdmu1LGT61YGizur9FbrGzcFVpGcXDdTz/Ygzw7jttzvoPgR8vqk+TKXztTqHVdJI+ZrTg/yuUQ356yz8QDoOyjIAIgTU9XT1ujC827LV8o8mK/T0+5SY82bSj+wVxkTi1SrEqUfK1TDn7X7wFy+QZmarNMtW1iy8+U71vIeKaNsu3w5MxJ/HJeMJdrjCJOvJOVNlq9bcx/HfBNyfgFEgmEYK/x+/0OSFnTaGL3SUYFCkpQ/SsM0T2NHPqqTkoaVrdLS1wq1aEX4M1pCxzyqj45LOv6oVuuQThyTtu4epeKC0PtwwubVRgdxJ/XwgODdK1Uy4iUtulfaunSltpYtUXG7lUBdz02BYkyIOes4Rkfj6dlwACQ2CjIAEk/WXaoa+4SGrJ2tHEkNN60Jrmgo0eC1P1WaJGmKqmYFiwjB95y6KfAI5BxJGhnc4hJPHY5D6nAs8R5Hd+c+nvkm4/wC6BKv17vCNE1bFGSi6sWHvqNHViyQHpqp1TskSws0d9dMrS54SbedWKm3j0vSIVkjFmiRAtuLdOwqrV66WZJk3ndpsUKSht0bOuacRUsCDcpWyXqtMFg0ubgixTp2p6Q/ho9xSaFllIpDxm2VT2erYlpd/+i1Qyq6L/D+r444pLfbbCXqZHwhikCh5ixUjEX5gUN83+5wno528F0EkMyMli9M07QtyzLCNe6OMWPGuJwDc5fbft8dflemz1VX2etHaKLrampqlJUV4rRORE3wEa9nU/y+Bfvf37WzByHWSVoraX2EU4u68ePH59i2fbykpGRQqPtFRUV2yTdfinVaYRX958MqKSnp1s+8ZBxHouUcLt9Ey1Xq0vy+YRjGf3zwwQeRPOsCgCSPx7PC7/d/XFFR8XIMuntR0v9RoBqwQtLfxKDPmMvNzc1KTU19yLbtZwzDcA4aaurp1f+313H/btqV+tmWIxHIMFqxtmr1Q8ulkcECyojlgcLHpKNtri9aVBzcXnRY5kjJOnbxSVKJOkZJeuG/3dztf9MASAxRWSFzxTdnFKSdLz/62ZX3qDFzaEpdhjsa3QCJpnBg9VGNOLT296NvnXH74fc27Il3QgAAJCvbtl82DON1SbEoyFRKKpH0H5LmxqC/uHA6nYskLTIMwylJ7hGj45xRrBRrTpstQ8XBs2FGtbsuKX+eFq2IXWYA+reIP/Z6zJgxrpzz5UdLbl6aUjX0Ooox6FfOZY/SwQk/ysk8f+q9sWPH5sU7HwAAkpVlWR8bhmENHz48/IElHfuW1OYpRlMkWbq4QtyU9Kvg19+UNFF9uBgjSRUVFf+kwNOrzkvSyGvHxjchAOjnIl6QcWbnLv/s2rksmUO/dvSa+/9/9u49PKry3Bv/d81MJieSQAhk1mQiIYigUYMBDShtMFUQS1+1ykZf3Lbu8lZspVsUW8H9FuK7Ea0WdgV/0pZqty1FBA/UA4gWSTcCgRhAjSKHEMxk1gAhkBlymszM8/tjZpIh5Jw1s2aS7+e6uJh1utf9rECSuec5xHrihxVpnUekcMUPr9A6h/b6klM0tiPScu4qn0jLFYjMnIgGEyHEGp1O90gfL48HsDdouwiAFW1Fmv8AcH/QuYf6eJ9o0gJghtfr/SkAjJ/4HY3TITUMS8/gzyqiKKV6QUa43be5EkaqHpcomjTHper0XtcMrfOIFJK76fwQR+RMRjfEcQKSu+l8b6+LxnZI7iZnoqMyTBl1LdFRCcnd5OzseDQ+XyIKLUVR3hZC5GdmZpr7cHke2oos1wBYD9+wJACYAGBJ0LnPAWjsc6JRQpblv0mStODUqVN/AwCj0ah1StRP1iOfo7n+An9WEUUp1QsnXmOim8OUaLBrSjDBEzPE1f2Zg4Pe614w6ujGOq3zCBh1ZGOd3uvu9cod0dgOg6dxseXYW46uzgkXy/G36wyexsWdHY/G50tEoSdJ0ktut/vnfbh0EoA98A1RusG/fRC+339vBRD8/WZrf/OMdCaT6ceSJDXbbLYNgX3bX/uviPj5QH239ZXf1DW3NPFnFVGUUr0gw9WUiHz4f6HNwf17drcgbvqE3UsaU2rLvXEN9rDnENdgR0rtV94Ju5c0umJiZ/RlJaxobMeB0tKtQmf46bgDq+q06imT6KjEuLKVDiHpHzpQWtrpm55ofL5EFHrNzc1rAPRl2NINAEoB/Mn/5zoAnwP4DYDnVUswCvh7GC232WwPBu/XG2J++udl8+qqj32pUWbUFzXVlTh+cLd31cO3NcbExc7Yv4c/q4iilerLXkfisqVEWujDssoDdtnrgNzc3AxvXMrTOuGe7okZ4upt0aqmpgZpaWm9zs8Vn1ahb7lg9OiMH+obzy09dOhQda+DBOlvO4C+taU/7bhu0qSZbn38CmGISzI2ng1LvkDrcvBOg6dxcVfFmGDR9Hy57DVReMiy/BqAjxRF+UsvLjsP4Bb4hi21wDd3zO0ASgDUqp5kBJNl+UshxBy73V4e2GcymZba7faiSZMmz4xLTFgRm5CYdO5UdZ8+THI6nUhKSlIlV8bq2rD0jIqGC3VGvT7mQ+e5mn7/TkNE2grJstdERB3x/9Lwk75cazabnxVCPKooyipFUTod9hIO/WkHoE1b/MWQPnXJD3e+0fh8iSi0hBBrJElaDaA3BZlYAFPh6yUTMBmDYHhSMFmWVwL4U3AxBgDsdnsRAJSW7u3zzwfSQln3pxBR1ODku0QUDSQhxK/g++X6Sa2T6adoawvzJSLN2e32fQB0sixP6sVlTgD/5X+tg69XzFK1c4tksizfBuBKRVFWaZ0LERFdigUZIop4ZrP5dwBcACBJkkuW5aj9xTLa2sJ8iShS+HvJ9HQuGT2AcUHbMQCuUD+riKYD8L6iKDO1ToSIiDrGggxR5KgC0KR1EhEqAcApAI1CiFMAEjXOpz+irS3Ml4gigt1u/28hxN0jRowY0oPTPQDOBW03Azgbmswik8lk2q7T6aZrnQcREXWOc8gQRY7rAbyldRKRyGazzQNaJx+/TOt8+iPa2sJ8iSjCrImJiXkEwLM9veB7O5d9IiRpWuhSCg1JiJ3/mLbs5r5cazabf+X1ekurq6v/oXZeRESkHhZkiCKHB4Ps0zsiIqLe0Ov1azweTwl6UZARkjRtR8HSLlc9LCwuEmqco2aswuIi0d29OmI2m6/zr6iU15friYgofDhkiSgyfB/ABQBfa50IERFRpLJardUASs1m8x1a5xKphBDbJUniUCUioijAggyR9kYBWAHgR1onQkREFOkkSVojhOjp5L6DiizL6yVJ+nebzVajdS5ERNQ9FmTCSkHy9vsgb38Pxl4dC1aG1I33QQ76k1rdUaynkOxUL3NS3YMAfg5gAYBiADPA4UpERETdstlsHwPINJvN47o9eRAxmUw/kiSpxWaz/U3rXIiIqGc4h0zYZcON9RhSPQu1GUG7q7cgEdlw9zBG/e3L4UgKTYYUFs8CSAJQDeCXABRt0yEiIooekiSt8Xq9j8D3wcagl5aWJut0uhU2m82sdS5ERNRzLMhooPmyAiSWvwdjxiy4AAAKksuL0XzZXOi/9Z/kfA8jPljf+gVqnrrh4gJOn5QhdePziA1sZj0BJV9G8vbHEHvZSpwZL/v2V6+FbL0BSn6e7/WuYt/+YXNxdvosuJzvYcQHVniyihFbWYC6OfPR0N/UBp90/9+xAF4HYAGwUrt0iIiIoofNZntJlmUPWJABAMTExGz3eDycN4aIKMqwIKOFjDtQ/+1jbb1kqrcgEXNxNgNI+Rb+YsweNN++AWeSAttPIbm1V0wFEj+4D4kAetdbJg+1czb4X5chdeObSL5qORw5BZDLP4Nx/Cy4oCC5vAr1U+b77ltuwdk5G+ACYDz8FFIOT8SZDAAoBiwboOSr/XAGnWYAd8FXlHkQwKvaphNaOTk5RsOQtNXC677Na0x0GxtrsntzvdPpRF5eXq9XnXDFp1XoXPUGyWDY5nbULCgvL3f1Nkaw/rYD6Ftb+tOOCddPudGjM6wWhrihxsazYckXAFzxwyskd9N5vde94OD+Pbt7ck00Pl8iCjshSdLLJpPpZ3a7/f/TOhktybL8WwCvnjp16kutcyEiot5hQUYTMpouy8bw8vdgzJiIuPJiNOdsgAvv+Q47rDBk3e0rxgBA0izUZ61HnAO+QS79GrKkIHn7Y0g85990wFcgKvcXiJI/QyymoC4JMB7eA8O5CgzfuL7t8iwFyACAAjT1u8cOBbkXwKcA/gZfkWbAGfPdOzJj66tPHL/8HrgSR+gbE0zhvH12fIMdxobT88Z8/dpPxnz3jtHH/7mlqi+BorEdV3znzhta0PTBybFzUi4kjw5HnsGyhzhOYNSRjR+MvfmOGUc/2VLS1cnR+HyJSBtCiDWSJL0JYNAWZGRZngEgR1GUx7XOhYiIeo8FGY24xt+N5kPPY0iJFbHnClCXASDUk/BWr4W8qwr1t2+AkuQrzPj+Aci+XjLWMiRgPTw5/h4xgH9YU97FcZy2ECc6aCUCGA/gkNaJqC0nJ8cYW199ouw7L+i1yqExwYTGBJOu7DsvIO9/Fp3IyclJ6G0PiGhsR25ubobUfHrnwRufiQ9nnsEuJI9G+aQnUybsXvJJbm7u2EOHDl0yFTkQnc+XiLSjKMrXZrNZSU9PLzx16tSOrs4tLC7qtsecWueoHasLEoCtiqJwkQ4ioijFgoxm8nAhNxvDDxXDnbvy4jlYki1wV76J5KvyfL1gnO8hsTIbzVf1745GZxWQdbc/5meIPQd4Agf9vWRSMBdn/cOQXBlT4D4UlEf1e0hOngVH/9KgztkBmDAACzKG5LTVx8fcLWmdR8Dx8T9C1rHNqwE81JvrorEd3riUp78dNye2s+PhdGL8/bGZR94oAjCvo+PR+HyJSFtCiJd0Ot3PAXRZkNlRsLTL7y2FxUVCjXPUjNVdwUaW5e2SJHHeGCKiKMaCjIZ8vWT2oSkwmW5A0iycmWqF3Ok8McFzyADu3KAJedHxOb4Jee9G88bnIVcCGFaA5mHB58twpwDulIlo/Sg4aRbqcvdgeCBO1hO+OWO4nHao1AEYonUSoSDc7ttcCSMj5hM8V+IIvfC6b+vtddHYDp3wTm+OGx4ROTfHper0XteMzo5H4/MlIm0pivKW2Wxek5aWJtfU1AyaFQtNJtMTkiQd8C8BTkREUYoFmbCS4Zi+PGg7D7VzgoYDJc3CmcDnHBnzocyZ30GM4Il5u7rPhg57slx8bVB853tIrCxA/ZyLCzuu8cuhjG8XJGkWzszpJgXqCx183Y8HHK8x0R3muUC61JhggteY2LNV5oNEYzs8MQmupgjJuSnBBE/MkE6H/0Tj8yUi7Qkh1sTExDwC4CmtcwmHjIyMXK/XO9dms03QOhciIuofFmQICSX3IaXSt7Q2l6+mUOjLKjmh1pecorEdkZZzV/lEWq5AZOZERBdrbm5eExsbW4VBUpDxer3bvV7vNVrnQURE/RcxXcNJOw35G6DM2eBbgpuIiIgoitTW1joA/F2W5fu1ziXUZFn+C4DHT506dVrrXIiIqP9YkCEiIiKiqOb1etdIkvSI1nmEkizL/wpAKIryV61zISIidXDIEhFFhISS+5BSNxdnp8/yTSxdvRbyrmIAF09cbTz8FIYfqrhkv49vOffEc8Clk2GHR0/bAXTVlvC145J8u8g5IvON8OdLROFx6tSpElmW9bIsT1IUpVTrfNQ2cuTIdADPK4oSORNtERFRv7EgQ0Tac76HxEoAw9q2R+wC6uZsQAPKkLpxDZIzlsPhWIvh307B2TnL4Qre738znVDyGGIvWwllevtVxyKsHUkAqjtvS9ja0T7frnLu4tlrlm+kP18iCishxBqdTvcIgB9rnYvadDrddr1ezyWuiYgGGBZkiEhjCpL37EFzbgEM3/r2GKv3wJB1t3+S6Tw0ZT2PxGoFRlTBfdkd/p4cvv1xDgBJ8L1Zr5uLunyt3mT3vB0YL8Po7KQtCFc7Ls23q5w7ffYa5hvZz5eIws1ut/+3LMsvpaen//zUqVP1wccKi4tEd9erdY7ascxm8/Ner/cvVqv1856cT0RE0YMFGSLSVKC3wpmkLUgM2u9OkYNeZ8NQp8BlyYSh/DMYx8+CCwoMdYA+RQEgAw4rDCkWxG2/D8PPARjWbhhOBLUDkOFK6qwt4WlHZ/l2lnPnz17bfCP1+RKRNoQQa/R6/SMAngvev6NgqdTVdYXFRUKNc9SMVVhcJMxm861CiFy73c7eMUREAxALMkSkneq1SMETUMbLQHXXp7pTZCBjPuqs92H4xvUAstGc1bYisdFZBVRWAbdvgJLkn2vk8MR2c8yESG/bAXTalrC0oxf5tuYcJflGxPMlIs3o9fo1Xq93D4DnTCZTlt1ur9Q6p/7wer03shhDRDRwsSBDRBpRkFxeDJwrhlzZtnf4Risu5KK1pwMAGOoqgBTf8Yb8DWjI91+/fQ3cV/nOcSVlAlk3tM4n02ApQIq1LUaktaOztrgcoW5H5/nWzZkPN3r37LXMNzKfLxFpqbq62irL8klZlo8DSDabzVFdzLDb7UVa50BERKGjekHGFZ9WASC72xOJBjj//wXqlAzH9A1wBDar10Iut/iGjzjfQ9yhfUjIz0MDyhBXmY3m29u9Ya7egkRMwdnA6jjJFrgrA9cACdZiuFPuiPx2XNKWULeji3wBIGMK3L169hrmG5HPl4i0JMtyJXxTfycLIRw6nc6rcUpERESdUr0go3PVG+Ib7GhM4Kp8NHjFNdihb7lg1DqPqJU0C3W5T2H4xvuQAqB56gZ/j4YypG58HrEAgALUzQma+yNpFs5MXQvZfw2y/ENctNRpO4BO26J1O3r77LXMNxqfLxGFlBDiBUmSngYASZL0Xq/3vNY5ERERdUb1goykM2wz1p/5SWOCSa92bKJoEdt01uuVDNu1ziOqZMyHktG26Rq/HMr49ifloXbOhq5jzJkfiux6rkftALpsSzjb0S5foA/PXsN8I/75ElFY2e32NWaz+Vuv1/tXnU4X29jYyIIMERFFLJ3aAd0XahaMOfzfaocliiqjD69v1jXV/VrrPIiIiAYbm832d4PBMNHr9R48d+5cndb5EBERdUb1gkx5ebmrLjFjdN7/LPKk1HzujW+wq30Loog1xHECOaXP1jXEjpx26NChHqxfQ0RERGqzWq1H7XZ7vtZ5EBERdSUkqywd/+eWqpycnISs42+uFm73bV5jotvYWMOJfsOopqYGaWlpWqcxqLjih1dI7qZzeq/7F+X7t+3TOh8iIiLyKSwuEuE6R+1YREQ0cIVs2evy8nIXgIdCFZ86ZzabnxVCPKooyipFURZrnQ+RK354xK2+5s+pL9dEVTsiLeeu8o20XIG+/Tshosizo2Cp1NXxwuIiocY5asZiwYaIaOBTfcgSaU4SQvwKQCyAJ7VOhggAJHfT+SGOE1qn0WqI4wQkd1OvJ3qMxnZI7iZnoqMyTBl1LdFRCcnd5OzseDQ+XyIiIiKivmJBZoAxm82/A3yru0qS5JJleZXGKRFB73UvGHV0Y8RMrDjqyMY6vde9oLfXRWM7DJ7GxZZjbznClVNXLMffrjN4GjvttReNz5eIiIiIqK9YkBl4EgCcAtAohDgFIFHjfIhwcP+e3S2Imz5h95LGlNpyb5wGk33HNdiRUvuVd8LuJY2umNgZB/fv2d3bGNHYjgOlpVuFzvDTcQdW1WnVUybRUYlxZSsdQtI/dKC0dGtn50Xj8yUiIiIi6quQzSFD2rDZbPMAQJZloSjKZVrnQxRw5H/e2Zebmzv2sm82Pq0T7umemCGu3k723dfJql3xaRX6lgtGj874oWiuX3p03+4+r4ClRjv6qq/tOLLzrY3XTZrkyC7/0wphiEsyNp7tdb59f/bDKyR3k9PgaVzcVTGmNdcofL5ERERERH3BggwRhY1/KfCf9OXaSJqsuj/t0Iq/GNJtQaQj4X720fh8iYiIiIh6i0OWiCgacLJq7fDZExERERGFAAsyRBTxOFm1dvjsiYiIiIhCg0OWiCgaBCarThNC1ICTVYcTnz0RRb3C4iIRrnPUjkVERIOALMv8oTCA8OsZlTYBuEfrJPpi4sSJKXl5eedDfR/+u9YOn33H8vLy3p44ceKdWudBRJ2L1mIMCzZERAMfhywREREREREREYUZCzJERERERERERGHGggwRERERERERUZhxUl8iihpCiJ0DcS4TIcROu91+s9Z5EBERERFR+LAgQ0RRY6AWLQZikYmIiIiIiLrGIUtERERERERERGHGggwRERERERERUZixIENEREREA9myMJ6jxf2IiChKcQ4ZIqIoZzKZPpEkaVoo7yGE2BnK+EREoVRYXNTtXF2FxUXL1DhHxVg9uhcREUUvFmSIiKKcJEnTFEWRtM6DiCgS7ShYWgSgSOs8iIiI2mstyAzU5WSJiIiIiIiIiCJNa0FmoC4nO1ixuEZEREREREQUuTipLxERERERERFRmLEgQ0REREREREQUZizIEBERERERERGFGQsyRERERERERERhxoIMEREREREREVGYsSBDRERERERERBRmLMgQEREREREREYUZCzJERERERERERGHGggwRERERERERUZgZtE6AiGgwyp9404EW0TgBAJxOJ/Ly8gQAxEjxB0s++/Q6bbMjIiIiIqJQY0GGiEgDLaJxwne9v/BtJALw+l7+U/fiBM2SIiIiIiKisOGQJSIiIiIiIiKiMGNBhoiIiIiIiIgozEI2ZCk3NzdjyLCYIo8bM2KTdC7nKXd2qO5Flwqek4LCI2mkoaKl0eN01UuLS0tLt2qdDxERERERDWzp6en5Op3u6ZaWlntqamqcasSUZXmd1+v946lTp0oAwGQyLQUww+12z+jpPdTOq31OZrP5DSHEbAAQQiyz2+1F/b2HFkJSkJl+9+T8Orv7k5seTIsdMkKvG2qOCcVtiCJN9unjzShZf27D9NGTH9q+ae9GrROigYuTAhMRERFRKGVmZprdbvc+AF8AUKXYo4b09PR8IcSfFEX5F3+O/0hPT98WKNZ0dk0oC1cmk2m2JElvAIAQ4l/sdvumnsRQvSBz/ZTrb2xpFB/MfckSr3Zsokg3ckwsfvBrU8q7RcofJk2a5GBPGQoVTgpMRERERKFUVVVlA2AJFDO0zicguPBSVVVlk2X5Uy3z8ReFblQURQo8q7S0tG09KfyoPoeMIca7+qYHU1PUjksUTfLvT002JooVWudBRERERBTlUgH8HYAM4DUAs7VNJzLFxMS8IcuyMJlMu9PS0pIA31AjWZaFLMvCbDa/AfiKB7IsW9vvN5vNbwT2QcVn3D4vtXNKT0/PB5Dp8Xi+Uivn3qqqqrIpirIweFdPe+GoXpAxJuiHjhwbq3ZYoqgyckwsYuL1SVrnQUREREQU5WoBHAZwNYCfAejRUJBBZrIQ4pWWlpZkADAYDLelp6fnS5J0Y0tLS7KiKJLX6y03mUyz/cUDi6IoUktLS7IQIkWW5SUAENgHYG8o8oqJiVmgZk4mk2m2Tqd702AwPNjTAkioCleBGJIkrWppaVnY4c07oHpBxnmak/cSAfy/QAwkDBkAACAASURBVERERETUCRlAI4AqACMB5AAQAEoAmOCbWqMOwGYAwwCMBvARgAtaJBsF9rrd7m01NTVOnU5nBQBJkm4DMD0mJsbhLxQsA3BVcKEhJibGAWAygNFer3cTAPgLG1WhyEsIMUGtnMxm8xs6nW62oigW/9CqnghZ4cputxcpiiIJIRbGxMTsy8zMNPckIS57TUQUgfIn3nQgLy9PBP/Jn3jTAa3zIiIiIlKBAuAcgOkATgMoB3AKwKMA7ADcAN4FcA+AB+HrGTNHk0yj11eSJG1SFEUK/LHb7UUtLS3/RwjxR0VRJIPBkAHABgA6nW424OsZAuCmUCQkSZJVjZxMJtNsALDZbP/SyxRCXrjyD5361uVyZfYkoZAte01ERH130aS9fpywl4iIiAaQOAAn/a/vBxCLtje4jwH4V//rXwJYCeD7ACoA7A9jjlHLbrdvMplMV/mH1gCAw+v1ThdCbNPpdNtlWV7mdrsdAKqEEH8TQiyXZVm43e5q+FZVUp0QYo8QQo2crhJCzA6K05+lr7+SJGlT++KOf6nvP9rt9qLASk5Aa5Fok3/fTQD+GCgQ2e32TXq9/ioAlxmNxh71MmJBhoiIiIiIiMItDkCD/+/PAQwFUAMgCcBW+IYwAb4hTADwQLgTjAb+FYdmBLaDCwv+AkVHRYqOFuG5saf36G9e/c2pi3b1mhqFK7fbvc1gMHwoy/Ibget7OoyKBRkiIiIiIiIKt3j/368DuNv/ugnAM/D1kCFSTRgKV50WtLrCggwR0QCWP/GmAy2i8ZKhTjFS/MGSzz69TouciIiIiPymAbgTQCKAFgA/AvCElgkRhRMLMkREA1hHc9EAnI+GiIiINDXE/7fb/3cyfL1jTgLwAIDYiU/gK9hEm53SNNysdRIUHViQISIiIiIionAyAzgGYFfQ9iEAO4POmSZNg9RVELETIlzn9CZWd3GIArjsNRERERHRIJSenp4vy/KHaWlpSWrFlGV5XXp6en5g22QyLTWZTLvVvAcNCFf7/wSMBfA9jXIh0gx7yESUc3hvphVp667B5IzeHCOiaJKTk2M0SPFn/6l7cXj7YwbEIi8vTxgQi3/qXuzwWOB1++Ptz+nqvBjEH1KhKURERB3yLwm7D75VSJxa50MR5612269rkgWRxliQCZtG7P3F5/gk6wosfmxYGO53Du/NPIIvkIZ7to7B2MDuahtendeIqcH7iChsxnz3jszY+uoT34y/F67EEWhMMHV/kYriG+wwNpz2jvn6tavHfPeOzOP/3FIV1gSIiGhQ8C/5aklPT8/X6XRPa50PEVEk4pClcKk+h6+RANNHVuytDtdNE2AaW4NdbzaG64ZE1IWcnBxjSn31ibLvvKCvG3GNPtzFGABoTDChLu1aXdl3XtCn1FefyMnJMYY9CSKi8HkJwLsAhgP4h8a5RKyYmJg3ZFkWwUOLTCbTUlmWhSzLwmw2v5GZmWmWZdkavC9wvdlsfiOwH8BszRpCRBRl+t1Dxmw2vyqEOK8oykI1Ehqojm6sAgquxR0Fx7BlbyMm3x3vO1ByHCuW1fhe35qGa4Iv6upY0DmvWs14MBCvnSt/dQVq5h3D3smdDHWqtuHVeVWw+zevWZaPWflo7Ukz4tYafPFRGu5ZF49d8xpx5bwGfLKuAUAa7tmaim9mHsEXAHBruHr+EEUvQ3La6uNj7u52wrhwOT7+R8g6tnk1gIe0zoWIKET2AXgWQBo4P0VnJgsh5rnd7n8xGAwfGgyG29LT07+VJOnGlpaW5JqaGqfJZFrq9XpvstvtFgBIS0tLiomJ2Zyenp4vSdJlAKAoihTYr21ziIiiR797yAghbpUk6Wf+qvqzaiQ18JzDNx8l4MrJ8UidPBxYZ8NRwFf0WNaAm9flY/HWfCy+yTfIFt0d65VhmLUsAZ88Z0Nt+0PVNrw67yyuDNxjXSbOLPsiqAdPDXBTPha3Dm+qwde4HIu35uOeW2uweWYtxm3Nx+KtV+CasPb8IYpOwu2+zZUwspffdxUkb38KySEYfe9KHKEXXvdt6kcmIgqpMQAEAIt/+3r/dqp/eyiASgCJ8PXWGAPgm/CmGFX2ut3ubTU1NU6dTmcFAEmSbgMwPSYmxiHLspAkaRmA/EAPmZiYGAeAyf7rr/J6vZsAoKamxgmAQ2GJiHqotYeMyWT6RJKkaX2I0SiEMAKATqd7tKamBsBlKqU3MNS+acUXt1qwOAMAhuHKsVX4pmQMxqIR9lsteDDQcyU/Fdegwffa2sUxAEdXlmDzR4GtGqxYB2BsJh560dz620ir/DG459MS7C4xY5YlaH/7e2SYMfXWKnxjhf9XnDSMyw8OlIap/p44w0clALem+gs1cUgb24AaKwBOOEzUKa8x0d3lMCXnexjxwfrWb8zNUzegFluQeK4C+OA+JAIAslF/+3I4Llmrogyp2224MH0WXD3MpzHBBK8x0d3LZhARac0GwAHA6t8e7f878NnTjfAVYQDgHfhWbzkE4Fy4EhwAvpIkaZPNZvuXwA6TybRUCPFHu91e5J+wt3UImE6nmw1gk3//TQD+qEXSRETRprUgI0nSNEVRet2VXpZlqyRJI4QQMUKIVWlpaU+qm2K0a8SR4gbg6BGs+Cho93obripoAC4tnwAAaq2dHwOAsY/lY/Fj6HbIUtv5V+CbmcdxdF3X5xFR6Bgba7K7PSnrCSj5eTAefgpDUIbUXcWt++B8DyP2AE0qLhzao5yIiCJLItpW7YkBMBJtxRkAaATgAbALwBEArwI4BV+PjrLwpRm97Hb7JpPJdJV/ThgAcHi93oU6nW6VLMvL3G63A/6eMG63e6XBYPhQlmXhdrur0ddO3UREg1C/55CRJGmbEKJOUZTHAUCWZRZkgpXY8MnRdisd+VdA+uq2TN8kv3OGYXKGvycNgJsBpE4eDtO6jo/1zTDMWlaLFc+dhQkJvl2W+Ivuj2obdn2UgCvn9KfBRNQvlc9DrvS9bM7aB33uSpzFGozY/iYM5zJRN2e+vweMguTtjyGx3ee9sRvXt20Mm4uzvegxQ0QUJTLh6yEDACsAfIK2IkAxgAL/66lB13AC8w6cOnWqBMCMwHZwjxi73V4EoKjdJa90EurGnt6DqDfETohIOqc35xH1RL8LMjabbZ4aiQxURz+tgWnete2WmB6GG+cl4PeH4/HQPOD380rwCeCfuNc/LCnDjDvmne34WLD8MXgw/9LdHfIPXdp8NKH1Hg8ua8SKwD2QgJvX+Sf/5XwwRNrIegJnU97EkKTlqPUPAUwoqYDBX3gxOAG09pApQN2c+f7vDO2HLPm2iYgGoKsAfA5fj5f/APAofEOSbgEwTbu0iEht0jR0OYJD7IQI1zm9idVdHKKAfhdkqGtjH8tvV4zxSb37GiwGAAzD4ruDDjzW7pxOjnVvGGZtvXTVo9ahTgH5Y7B465hLzkOGGQ9u7Xy7LX8AiMfkF3taFSKiTiXNwpl8wHj4Td929VrIu4rRPHUDlHzA1yvmPsgpT0DJl7XMlIhIS5MAHASQA2AvgJvgG5ZkAPhGiIiIogcLMkREkcL5HkZ8ZUZdChC76z6kTl2J+mHFSNx1H9rKLwWom54HQAFQjJSNxUgJCtF+yNKFcOVORBQ+EwGM8v8BfEsK/Bf8q0qIYiyFwDLV7iZhmVRwydAdIqKwM5lMS+12e1Fubm5GzLCEIri9M6QEo8tTU9/rOQGdTieSktSZmFDNWGrHi5RY+rTECm9ji1NqdC8uLS3dGvhasiBDRBSBmqduQG2GguTy4GFJCpK3bwk6i0OWiGhQmgr4F57zGQlgXGBDKkCR2Illqg1jYDGGiCKEJEnLJt5x8zacafgkbs51sfrUBJ3e1LcCgXLvWmSuu1+VvNSMpXa8CIqV7a6sReNbX2y4/rLvPWTd89UyAEU6VTIjIjXUA+ASxERERF1bDt9KSgH/Cd/PUCKiAU9q9n6YsuL2eONV6X0uxpA2DFmpSHqsIAVu8YfWfVomREQX8QK4dOIfGmRsiPu2ArHn7sOI3CfQfMmwpALUtb7mkCUiGpT+b7vttZpkQUSkgYR7J6R0fxZFsvi7r0nG/q8BsCBDFElOw9ftOup89tlnzuuuu+601nlEOlf88AoAnY7xTfhqPQyV2Wi+fQOUJABQkPxtT4cstdezIUv+nKjvWoQQZ7VOgoiIiAYHw+hUrVOgfjJktX0NOWSJKHLsBpCldRJ95JUkScnLy7tW60QimeRuOj/EcaLT4w35G6DMWQ5Ha+9TGY7pwQWX4O32x9rLQ23rfDIdG+I4AcnddL4XTaB2hBBT4uPjD2qdBxERERFFH/aQIYocfwfwYwD/BuAVbVPpPSHEakmS/hPA/9I6l0il97oXjDq68YPyiU9GRFfTUUc21um97gVa5xGt8vLylgB489NPP3VqnQsREdFAJHZ2v5R9OM/pzXlEPcGCDFFkmQ1gC4AxAIqALjs4RJQDBw5svu666xLy8vLe8ng8Cw4dOlStdU6R5uD+Pbuv+M6d0yfsXrLzxPi5sc1xw3VNCaaw5hDXYEdsU6139OG/NtcnjphRvmtPSVgTGACuu+66ETqdbp4QYlRZWdlDWudDREQ0UKm2WpoK5/QmVndxQu88XBgKY7f7+selAEZZxYD9pHY+HcerhG1JBTAFaLKmwvLwhIueqevdzThunYQrH84CcB6usjJYfwOMeL0QHU3BzIIMUWTxAJgFYAmAfwK4EsB2AFdrlM8DAPb39OQDBw68lpeX59Hr9W9MnDgxTQjhDWFu0an+WwCozvp6/QhJQqLbkOA1NtWq+bOxU664VJfB3aATAvU6T9OZpLqqP+fl5YXj1gOGJEnHhRA3SJL00meffcZiDBEREWmgi6KAUgnbO+dhxDE4MAnZD2fB+fJmnMHlSAaQ3K6A0KOYqIRtSSmQmQpYspGWcR41JYDRUgvHntQexui4OHFxAaM3+QQfG4qaJRUwTgEc1mxYHs7qZRvb5VZ2ELag9lmeabu3691S4J57YM4DnC9vhkOZgDS5LX7NHiA2M/C1AJrlbCRndz5lo+oFmaR0Q5eTVhINFv7/C331DIDnAcTDN9GvVsXTb3t7QVlZ2XoA62+44YbhHo9nRAhyGhAM3mYAgN7TDEjdfiCjitjmc20bYbrnQBMTE9O0d+/eSq3zIKLOiWIshVBxGEMxlkoFKFInOyKi/uuyKCBnwfwwAGQBL1fCpRzEGcstyP7B0L7HVM4DU26BOSiG2f+ZXqx1M6wVPYnRUXGiXQGjh/lccuzjVOCeQqTlAbEv70AzOi7IdBqzfW55Ey5qX/C9m62AcZL/mAVwKgBkADiPmpcrkLTgcjS9E/haDEUSgOYunrvqb/KanR7D+eoWDM2IUTs0UdQ4b2tBs9Pb314PLf4/DhVSCrt9+/adBcDVZ4iIKKykAhSJnVim2jAGFmOISENms/lVIcR5RVEWBvZ1XhTwcZVVwlFSAVd+IVC6GXFWwLbkGJoyfT1mOtJdzKY9ZbBZAeOdhRf1CHFWXQ6gpvsYlxQnOihg9DCfS46l5sFYshm2klTAkgdzhy3sImanhRNf+9LkSw5cwvVuGVz5hUjDQZzp/vRWqq+ypIvRbas71eJROy5RNLlwxu3VxWC71nkQEREREVH0EkLcKknSz2RZ7vHcNEZ5KJLvTAU2H/RNSJk/AeZn7oHFUgpbWR+SkCcg+5lCmB/OA1bvgBMAlIOoWHIeac9M6EPAtgJGR/Oq9NqxMjgst8D8cB6M1jLUKCrEDGpf8KfssRbf3DKAv8Dj7x3jsAIo2QHbO8fQXFWKmrKeLWSqeg+ZutMNC4pf9v7kgT8mqB2aKGr88w9nmxsvtPxa6zyIiIiIiCh8frt5CGQ5Sc2JfRuFEK01gRP/8RYy8tt6dwT3+mglD4URE5CUuQMiIxU9EdxjpMOYAIChiM2sRfOhgzizeyiyn8nqQwygtYBh3QEbatFcBdSUDUVa3tAexWp/TDTUIvl/+65NttT6CjId9GrpcX7KQVS8c2n7AMD4g0nAks2wlQBNmARL6WbYMm6B+eHC1mub3rm4LV1RvSBTXl7u+u4d149+bV7ViWkPD5eSTTE6Dl+iweL00Wbs/nNtXYoZ0/du4ipDREREFBlMJtNSu91eNGnSpJki3rBCFx+T5Kmp79O8j06nE0lJ/ftcW5+WWCEaXEavTrfdU9fwa67OSAPF4/dcwKI1F1SbrE+WZaskSSOEEDEApNH/+UMAlRcVBbJl3+S4NRm3IK26DDVWAKhFk2USsvOGovll33CepqrLYXmm4/u0LzQExzSjEraS2taYlm9L4ahKhe3lip7HuKhAMRRp3RQwuozV/tj/Po+K1TvgykSv2thaTGl3b1fpMSCofRcP08qC+aJCTdbFQ6TkCch+OHjHUKQ9U9hxQkDbuFlZloWiKKr9w8nJyTGmjExY7W3x3habpHc7T7k50W8Y1dTUIC0tTes0BpWkkYaKlkbPuRaX7hf79+zfrXU+REREg1W4l8KNBrIsC8uUq+6FW/wh/u5rkg1ZPfvUvCNf37sWV74+v985eexOeM82eBv++lmzNDJxWuk7O/b1OygNGOH8f6z2stdqft8wm83rhBB1iqI8LsuyUOP/HqDe/2O1Y6kdL5JjKYoihWzllvLychfKwSVBNWA2m58VQjyqKMoqRVEWa50PEREREUUAt/hD0uMFyVqnEaA3JUFvStKlrLg93rFix/brp1x/Oz/UomCqrZam0jm9OU8tNpttXjjvR+Gl1VK6FDqSEOJX/tdPAmBBhoiIiIgQf/c1EVOMaS/h3gkp9X8qeRFAp7NO0OATrT1kuotDFKD6KkukLbPZ/DvAN5m2JEkuWZZXaZwSEREREUWA/gxTCjXD6FTo4mOGaZ0HUaTz2p1ap0D95An6GrKHzMCTAOAUgDQhRA2ARI3zISIiIgobUYylECoOYyjGUqkARepkR13p6yTDRIOJ54zTozMl6bXOg/rOe7bBC3/nGBZkBpjAGEP/JM2XaZ0PERERUThJBSgSO7FMtWEMLMYQUQRp+PNnSPmtufsTKWI1/PWzZgDxAAsyREREg9KE66fc6NEZVgtD3FBj49l+fyrtih9eIbmbzuu97gUH9+/pdFLOnJwcoywbVrtc4rahQ71uq9XIT8QHEIvFVXH+vM5gNErbFMW9oLy83KV1TtQb5+HCUBh7vL/vXApglLs/j4jaCCGW6TISXql7/N0TcT+aKMWMTNLpTH1bgj7tHvWma1IzltrxIimW+0QtGl4/WCeNTJwuKsRMgAUZIiKiQeeK79x5QwuaPjg5dk7KheTRaoXNHuI4gVFHNn4w9uY7Zhz9ZEtJ+xNGjZJXJiTE/mLJkuO47DKXfsyYxn7f9Le/HYLHH7/Q7ziMqVrM7OPH43HypHHek0+O+cm9944ZvXNn/b/Z7Xb2MokYlbAtqQCmAE3WVFgenuArtCiVsL1zHkYcgwOTkP1wFgDA+fJmnMHlSAaQHDi3pzFRCduSUiAzFbBkI+0HWTCWHYStBDBaauHYkwrLM53FJKL27HZ7kX2LHTk5OQm6zZ+vbnJ7btMlxrr7MtwvBsD5T6tVyUvNWGrHi5RY+rTECm9jyzmd2/OL/dv27wOwD0BbN03/EBfV1ksnbfHrSUREHcnNzc2QYhOPHrzxmfhQ3WPC7iWNorl+7KFDh1p/a8nJyTHW1tY222yKqvcym2UwZuTGvOGGPI/VqujD/TtJuFdeiQayLIsrX58P17ubUZNxD8x5vmJL8533IO2inirnUfNypa/4ohxERWkWsn8w9KJYX9+7Fle+Pr91u9OYykHYSrNgbnd9QPv7n1+4BWVlZQPieVP/hfP/sdqrLA2U7xsUeuwhQ0SD3uRJ181MiHevGBInkqxnOXxCTZbhrooLTZKzodGweG/pga1a50OANy7l6W/HzYkN5T1OjL8/NvPIG0UA5gX2ybJhdW1tKO9Kkei5545j7tyEkMROT09PPHXqVH1Igg8QZrP5VSHEeUVRFgb2NVsBo7/XfawFcCoA/AURV1klHCUVcOUXwgjAVXoMcVbAtuQYmjLbes2011XMpj1lsFkB452F7Qo/lXBWXd5uHxHR4MKCDBENag/+8Io5LnfDH375Q2vytVn8vT4Esj+vTMRv3rZsuPKyKx569a0jG7VOaLDTCe/05rjhulDeozkuVaf3umYE73O5xG2hvCdFpssuc+l9C0Cqy2w2pwkh9plMJo8Q4l29Xv+BzWb7WPUbRTkhxK2SJI2QZfnRnpxvlIci+c5U1Kw+CFfeBN/O/AkwPzwBrnc3w1aWBXNeLxKQJyD7GQA4j5olO+B8phBJAKAcRMVqcLgSdUu11dJUOqc354WCyWRaarfbiyZNmjwzLjFhRWxCYtK5U9V9+jDR6XQiKalv888wVu8MS8+oaLjgMOoNMdudtWd+HdyDmAUZIhq0Jk+6bqbL3fCHvz72TbLWuQxk12bV468Lv0m5f+W4P0yedJ2DPWW05YlJcDUlmEJ6j6YEEzwxQy6azHXoUK87pDeliOSbJ6jj4Sr9YbPZamRZNkmSFC9J0r97vd55JpOp3G63T1EjvslkWipJ0jJAgSzLmr35UkGjEKK15nHiP95CRn5bD5bgni0AAHkojJiApMwdaAaQlJHao5sE94q5JCYAYChiM2vRrABJOIiKd4Yi+5ms/rWMBoVoHbLUXZy+kiRp2azZDxz2uFv+MP2BR5MzLr+6z7H+ffrlWP7WQVXyYqxuZddUV6LutO3Hf//90/fNmv3AtPc2vbYPYEGGiAaxhHj3il/+0MpiTJj88ofW5IV/yl4BgAUZDRkba8IyLK/9fbiaEvWHyWTKAnC9Tqe7QQhxPYAbADgBxEuS1AxAURRFlWIM4Js4E0ARgKiek0+WZaskSSOEEDEApNH/+UMAlcCSzbCVAE2YBEvpZtgybkFadRlqrABQiybLJGQDQF4ejC9vhq0kFU1Vl8PyTMf3Mf5gUocxzaiEraS2LaYMuN49BlSlwvZyhe/aS4YyEVFXvN6WPzz49Dr+/hpl0jKykJaRpVu4dlv8H5+8f/v1U6bcvn/Pnt0syBDRoDUkTiRxmFL4XJtVjyFxQp1+o0Q0YJlMphEAbtDpdNcHFV8uSJK03+v17gOw1GAw7PN4PP8B4N+FEG8pivKApklHKEmStgkh6hRFebytp08WzBf1TsmCGQDyCn1/X2Qo0h6+pwd36iQmJlwyxMn4g3uQ/YMeN4GI2rn1/kdZjIlyM//tlylvvfjUiwAmsSBDRINWJE7g+/FaGQ9U1WPXcofv08myVJif982/mjv3LLbOahsFUvHeCExdb+jgmBFrnxqOpysAwI1frzyD+RHy6WMkPnMi6p2KCiBbpf/JZrM5wev13gBf75frhRA3AEiQJGmf1+vdD+AlnU73I5vNVtP+2hEjRqwwGAyViqL8MXi/KMZSCBXnlSjGUqkAUblst81mm9f9WUQUTfozTIkig+WKaxGbkDgM4JAlIqLIoSTjt8UAstu2Zz4PvLZBwS1IwML7UrB2or+4UpaKqXuasWvDGWS3O/bx2uHYMuUsbMtdXdyMqGtGZ8dLH7uSwlPdU/NNfyhjq51nJLR74cxU4A7g8DduvLTK0fotCR8nY+H7wLhxBmzZ4sZLWwPHjKj4eAh+/gDwuK0Wt3QR22QyXY+goUdCiCxJkvb5e79skiTpCUVRTvakPWfOnLkA4I/t90sFKBI7sUy1eSWitBgTjfRpiRVa50BEFA6ByZhDusoCERH1lBFr18TijrnNrXsqPovFoYIm/5ubBny/wIAtn/nmZqyw6ZE7pcn/Zsh37BsFvqJOVT1emsViDPWDU4HB4f9TvQYp1W3bRqcaN0jAwpmpWLg2FTMXJuOid2AfJ2PhwmRs356KmTMDx4yo+DgVM82p6H4ZHTVjq51nlLT78Vqsml+LxxGL7cGBbnFg1SoH5s+vxePjg45VABXZTbgjt+sMTSbTJ5IkvaTT6XK8Xu8nQojZiqIkKopys81m+6Xdbt/U02IM9Y27MnLXnnefqIW3seW81nkQUW+cwGmtUwih09bQ34M9ZIiIIkCgV8tW8xA8HbQ/19K2ME22xY1DVgMAF7LNHhx6Mw4Vs1zIhhHHqoDDFiMAAw5lurH9Kdk3ZCk7aPgTUU8lyWgI9ISp3oc45KEhQ73wFWsTgcfPYNUtwMcLR2B7BTA/8I/0FgdW+btYXP6N/xgCb/jjwhpb7Tyjpd3j/NdljwPerwAu/QaSgPcPN2NBYH+2C7cAONZNjjqdrtzr9X6tKMpL3TaIQqLxzS8cSY8XROT8Ew2vH6zTuT0LtM6DKPqdwGmMxsh2e09bgZGWrq7bgfWPfAgUAMrJsXhg0byLYpzedBeWn1yA3y0qBAB8+cJd2IbvI69HMU7g9N61eO3XwG3bn8PVXcTtj67b2Ivc9q7D+l2APOooyorH4oE187qJ0VF7Rnfa5mAsyBARaa0sFQ+gDrZZLqCs61NbCzR5tXhtn4yp9yUCcGNOgW9/hU0PFOuBlQpssm9Omp+/13TR3DNEXVOQcHgL4ur8m3VV0GMtUgOfEqXcgAvj89Cff1EV3wDjpvte9+xNf8/e8KsdW+08o6XdXd8oGTN/jqDhSr2yRpKktwGwIKMVg/RT58ri38f/8JoUQ1bPlrQOJY/dCU9tg7fxL581Y0TCjNI9+0u0zokoOnRSGLDuwPrXKyDjfZRhARYtKuywuNC+iAAApzetBu5/G3Mn+4otX1rnodDSdr+PioHMLP+mdR22jVqJRbNHAwC2bH+26xhW4LRlBvKu+PCSdlwUtydt7HC/b59cAJSdnIEHFhV2UCjpRW6T52HuZN/LkSd953b/jNq1p9M2X4wFGSIiTRmx9s1YoCIW5uIU/75YTL3PgN/MRWuPGACosBqAoG/6t8xXYJvvwEb+nwAAIABJREFUj/FUCsbd4UK24gEKmlon8b3lhmY8sK8tBlH3ZDSMn48G/1ZCyVNITLkDtePDODN0/970hy+22nlGSLu/8Rdzgos8rTFWu7F1a0Nnl3bJZrMdNplM1RkZGd+rrq7+R5+CUJ8JIZbtf+sfGydNmuSoX1eyQhcfk+Spqe/TP7UhQ4bg/MIt/cpHn5ZYIRpcRhh0H7rrm5Ye2l1S3a+ANBDtVG1ybpXO6eF5O3sSpz86LQxYCjF3USGA7wEv/AOnUYiRHRQXCjvoRXL6JCBP8Z83Cjhkhf/3zhPY8cKHyH3y+1Be95+7533IJ4H1j7wPJWtB9zEso3E1gB0X3fHSuD1pY4f7rR8C9z+HwsnAyBd+5Wt3T9vXYW4BO3Co8vu41QJs6fIZddCeLuO2YUGGiEhTLsxfrmB+YLMsFeY33b5hRkoy1q+Pw8fzG3ALEvB+sRt3rOygsFI2BE+jGbtkAHAjtzhwDfDxvljkWi6ErTU0wDjfQyLuRh22INk5Hw6VFi0P7sGh9pt+NWOrnWe0tBu/HYGF7wOHUY+t/rfrFWtH4JkjEnDYjYULfcOcxi2obRsW1UM6nW6N1+t9BAALMmFmt9uLAKC0tHQrgK0ap0PULWkabtY6h0jVVWHg9N4d+HLXh1CmPoeLBwG1FRd6da9Na/2x1mFb8IGp8zB30TzfEJ2+tKGzuIHjnbSxw/2T50N+4S6s33UFMGo+5vYhn0tY1+GFZ9Fpj6LetqczLMgQEUUq2YGX5o7A1Pt8PRPmPKEELV/tW1lpIwCgGa9t8H/qLTuw9YlUmP3XoMA/FIqol4zV7yGlHKibngcXZMRtfwrJOY/AkdH/njLZ8+uBmRe/6a9YOwKrL6/DgmOxwGFDn9/0qxlb7Tyjpd2rtp7pIP4ZrOsyAxfmb+1+wlibzfaOyWR6KTMz01xVVWXr9gIiIuqVkZbRuPresVCeXYfTkwNDmbovLnRc9DiBL08COPkrrMcRVFUCO/aORmHmFb2I0ZFO4k4e3bdG712LslErsWg2sOOFtdhhfe6SXkA9zw2+5/V6Nhatubik1XmMztrTfeosyBDRoGVJc3U4y4Km8mphC5odLXvWGdhmdXRiA1ZtaMCqzmJsCE16/WVJc1V0M00ORYCEw0/5esZMD8wVI8Mx/REkHN6CEYdvwJnxed1E6E4DVrXrrZE9/4zv3/MtZ7B1fkfX9OwNv7qx1c4zWtodWpIkrXG73Y8AWBL2mw9yOTk5xuEj5dUtLa7bEpJS3IFlV7UwLD2jormh/nyzq3HB/j17dmuVB1G0+e0jP8S/FnRRXLCMxkjMQ27Wr3AawMhOigvtjZy9AHjkLqzfBShYgAf23IX1mSsxd9FzvhOs66C8nu0vmrT1SFEqvw/gi65jXFJoGY3CDuMG5dNdr5ig/V++fgR59/quv3rUEXx00VCijtu3yOKbgPejzJWtQ7oCTu95H6i8Autf8M3/It/7XPcxOmzPiS6fOQBIgReyLAtFUaSuTqbowa8nUfcKpuZWvfLIN5ZsU5PWqQwKFfY4/NuL46zFuw9lap3LYJaXlyfKvrsy9Pf552MoKytr/TmUl5cnFEWBzaaoeh+zWWbMKIgZ/DtJWlpaUkxMTLWiKCFZ7UcUYykElqkWUMIyqQBFqsXTgMlkWnpt/rRXam3HT9z586eRasrUp2X07ZPorX95ETP/9Req5GU98jn+vHxBk2X05dM+ePN1TuhLvfUZgAPwFXc/BTBW23RCw/898xEhxNOSJBmGjpBRtL4I6x9ZDWT5Cx+jVuOjzJW4tWotPjoJAEegjFqARbMLcXrTXXit+ArIWb548r2+3iP/Pv1y/G57r6d271BoYu3osI1zJ5+4aP+iRYX+HkBHIWcBSmXbxMWR2kYAePZH30FZWZnEHjJENGgZDZ4PbbWxD2abmnRa5zIY2M7GemMM3u1a50FE2qqpqXHKsvy2yWR6wG63v6Z2fKkARWInlknT0OUHU2InRI/OifJiDABIkrSs1nb8//7ylZ36/sbapmJBxnLFtTijVMclJsR/kpubO/bQoUOc2Jd640UAfwXwMAZoMQYADAbDIgCLJMn33t00aiyAQsy9qMdLoW/elMnPXTJ/ysjZb2PR7PDkqq5O2ojR7fYDsMzDojXhy0xNfBNCRIPW6XP6pU/9dXSz1nkMFk+tH918pk73a63zGOxc8cMrtLiPxeIKy30pOgghXpIk6eda5zGY3PGzoojtOf2/Hvp1bNKwtKgvfJEq/g8AASAuaLsRQIJ/+0oAXwOIB3ATgJEAXglzjmFlt9v/E8A7AOoBIOvKXG0TIlWxIENEg9ahQ4eqR42ov/nuZ3PqDp4YonU6A9bBE0Nwz7M5dVkjG6bx00/tSe4mZ6KjMqT3SHRUQnI3OYP31ddL50N6U4pIBw92/L3VbrfvAyCZTKbrw5vR4DVcvixif+9PGWHWeTwtM7TOgyLCFwDKAQTGk48FcAZAYJKsWwBcDV+RxgJfQaZvy9NFjxYAM7xe708BYPzE72icDqlhWHpGBcBJfYlokPvLlqMlU6ZMuP3xV0avHhInhlrPGiNrkt8oZxnuqrjQJJ1rdOt/sWdb+T6t8yHA4GlcbDn21uvf5D0Wkvk7AMBy/O06g6dxcfC+hgb9AvjG+NMg8v/+36g6oDalo2NCiDWSJD0C4EdhTmtQ6uucMeGQlpGFhCEpXBKQAOBaAF/5XycAqATwjX87HUAxAI9/+1MAh8KZnBZkWf6bJEkLTp06tUGW5fVGo1HrlKifrEc+R3P9hfMACzJERNiz5+BuABO1zmMg4opKkedAaenWK6b98KfjDqz6vXXMXSn1yVmqxU50VMJy7C2H0BkeOlBaujX42J49B3fLsoyCggmNy5efiDWbm3XZ2ZxQeyCqqIiDzRbrXbJkdHNWVv0MAHs7Os9ut78my/KatLS0R2pqapwdnUODh5YrPlFEyQPwuf/1SgDnAQQmfF4M4NGgc5eHMS9NmEymH0uS1Gyzta2fuf21/3I8+PS6kH2oQqG39ZXf1DW3NC0AWJAhIiIadI7sfGvjdZMmObLL/7RCGOKSjI1n+/1GyBU/vEJyNzkNnsbF7YsxAUKIZXV1Yl1R0WVPt7TopqekeFxWa/96pQ0Z4sTEif1dhpsx1Yppsbgq6ur0RqPR86HDIZb+5S9Hq00m07IuLnnJaDT+HMCzfb4pqegETmM0RgbtOW0FRlo6vUC1+xD5TYav8LIYwHwA/4Bv8t6HACzUMK+wy8zMNLe0tCy32WwZwfv1hpif/nnZvN/fev+jKRmXX61VetRLNdWVqDtj8/799083D0vPmLF/z54SgMteD1j8ehIREVGks1gsGR6Pp0RRFFXf8vd4BSUVzokGsiyLtmVkPwQKAOXkWDywaF5bUcS6A+tfr4CM91GGBVg0tQLrdwHyqKMoK+5qGdkuYvqd3nQXlp9cgN8tKsSXL9yFbfg+8gBcvWgelvvjBZaADcPjoMh2AsAPAJwDUA3ABeAG+IYpfaFhXmEny/KXQog5dru9PLDPZDIttdvtRZMmTZ4Zl5iwIjYhMamvvcucTieSkpJUyZWxujYsPaOi4UKdUa+P+dB5rmZp8JyK7CFDRERERJqwWq3VsizvN5vNd9pstne0zmegO71pNXD/25g7GfjyhbvwpXUeCgOlMEsh5i4qBPA94IV/4PTkeZg72Xdo5Ml25/Y0JgBgBz4qBjKzAFjXYduolVg0O3LnsyHNJQMoAnC3fzsGvqFLhZ1eMQDJsrwSwJ+CizEAYLfbiwCgtHTvVgAd9kalSNT5IH4WZIiIiIhIMzqdbo3H41kM37Ku/SaKsRTC17ul23N7ck4xlkoFGBBLMp8+CchTfK9HjgIOWeFbpyZwfO8OfLnrQyhTnwt697sDhyq/j1s76cPUdcwT2PHCh8h98vtQXgdO73kf8klg/SPvQ8lagEWLBtV7bOqZoQBmB223YPAVY24DcKWiKI9pnQuFHgsyRERERKSZ6urqf8iy/JLZbB5ns9m+6f6KrvmLJwOigBJuIy2jcfW9Y6E8uw6nJ8/DSOs6vPAsWocr9dbpTWv9xZ112BbYOXUe5i6ah9Ob7sL6vYPqfTb1zCQA3qDtwbbogg7A+4qi6LVOhMKDBRkiIiIi0pQkSf9/e/ceHlV57n38tybJBBIIiEDWWkkEAh5abKHRili7QUpRqpbtq1aprdpdu4tValFaPOwt4H49VZS6wUpb226tFI9tbbUotQitryjFFK1sD5UQJMwaIEYCJpAhmef9YyaQhBxmkjlkku/nurgma82z7nU/K0GZO89heTgcvlbS3HTn0pe1HMHScmTLYcVjNFJXacLoBdpd9ZAeeaxU85d3XjTpOOY2vbVd0vYFWqn3tKNSemuEm+guoe/5e5vjfrVujG3ba3w+34x054HUoSADAACAtAoEAssdxzGiIJMwI0aMGJSVlbVI0hmStOCCz2hk0bGydYFWvix5mqv5xZEFd/9Ucp++uGOF/rRdkt6TN2quLt+wTKo8QSuXvCBJci69u901ZEZePFe6tv2Yl82/O9Ko6iF5j5Vq2hVjtHbJBVr58gnyKs/V5culjSl5Gsg0X1i36CVjWVPTnUe8LGPW/XnqorO6c63rugvC4fCmnTt3/jnReaH3StouSxMmTCgaeUzT4lBj1tlD8ppCVdU929YS8UnkitKITfGxoYqPD1r76w9k3/Tqpr+zyBYAAHFwXXd5OBx+OxgMPpCC29VJypd0gSLb6u5LwT1TznGcOkl5kpQ7IE+z/v1Gfe68r/Yo5tG7LPXMdeyyhHZMW7/YrJ2ysNOfh0S1Scf92nJd9zPGmJ97nlcW77XIbEkZIfP1WcdP2r7HeunWr+zIdYc1+Ertg8m4DdDblL5Zma8f/rZ41SeOO+Hbv/zNe4+nOyEAADKFMeYBy7KeltSdgkyBjvyiMSTJ3+K9RkkHJDX/pmqfpEckDZD0N/XRYkzUbyTNkjR46Ainx8UYAMlhjFljWdYn0p0HUs+X6ICTJ088o67B/8L6OzYPPPOTtRRj0K98enSdHp337pBQo/XT00/9zMx05wMAQKbwPO9ty7K8wsLC7qz0uk/SXkVGvByQVCvpVUlnKTIaJizp8eirkbRG0jclVSUg9V7Hdd0zHcfZallWhTHmL5L0b7emYuARgHg5jrPSsqzrAoFAdbpzQeolvCAzMLtp2X9esn1IouMCmeQH/6eqIG9g453pzgMAgExijFnu8/mu7UGIP0Zfh0o6QdJb0eNcRXZe2q/ISJpJ6t5InF7PcZyfGWPuDIfDXwwEAgv9fv/XJckeNS7dqXXqmMKiinTnAKSabdtXWJZ1KBAI/DrduSA9El6QGTTADJ045uNEhwUyyqdH12nQAMMiPgAAxMHzvN8aYyaVlJR0dzuemujrrYr8O3dP9HiZpA3RrwdJurH7WfZOrute6jhOg2VZr3me9/ldu3ZVSNIHH3zwkSRVvfdmehPsxM7331JDfd3+dOcBpNLw4cMdn893ZyAQuDLduSB9El6QqfqQxXsBib8LAAB0h2VZDzQ2Nl4T52XN/6ZtlHSRpPnR448lfU1Sy3h96oN/YWHhSMdxVofD4VnDhg0bHAgEHmqv3epf/LA21bnF6k+P/qj2YF39TenOA0ilnJycNU1NTWxx3c8lvCADAAAAdFdDQ8NySfFOW8qSdFDSQElBRRbslSJTlYKSDiUswV7Etu35Pp/vH5LuDwaDs7ds2RLqqG1u3uAZS+ecc2Dr318JV++sTF2Sndj5fmRGmc+X8+1Nm15lh0r0G47j3Cvpl7t27Xqry8bo05KyyxIAAADQHTU1Nfscx3nGcZyve573qxgvGyipQdKPJX1DkivJk3SPWo+O6RNc1y0zxjxsWdbzgUCgsKv2xphFzz75yMYJEyYc/9wv776tqTE0I2/QkNBHu3bGPZp30KBBuuuKz3cv8RaOKSyqaKiv2+/3+9969slH2JkS/YbjOGdLGu953g3pzgXpd3iPdMdxjOd5ce+Z3lZZWZl5/b7ynoYBMt4p15epvLy8x3+nAADob2zbPs2yrGWe502K8ZJPSHpTkZExTZLKJL2uSKGmT2356TjO/ZLODIfDV/DbdfRV09YvNunOobvWTlnY2b//LcdxmjzPY6YKJDFCBgAAAL1MMBjc6DiOz3GcUz3P2xTDJZ+RNEORYowkjZN0qfpQMcZ13S9HR8UsDAQC16U7HyDZuihsaNr6xSYRbRIZq6tCkuM4ayzLYt0YHEZBBgAAAL1Oiy2wr4yh+YmSWm4bmyVpVTLySrURI0YMys7OfjgcDmcPGDBgTGVl5d505wQgfrZtf9+yrL8HAoEX050Leg+GSgEAAKDXCQaDDxtjLhwxYsSgGJovbHPcJ4oxtm1/Jzs725O0MhgMzqIYA2SmoqKiCZZlXRYIBH6Q7lzQuzBCBgAAAL3V8pycnGsl3RXrBV9Yt+glY1lTe3pjy5h1f5666KyexukO13VPik5P2hQIBAanIwcAiRMOh9eEw+FPpTsP9D4UZAAAANArZWVlLW9qanpNcRRkjGVNTcVaEMniOM4dxpgLjDFXeJ63MR05AEgcx3F+JemGXbt27U53Luh9+tCUpTzNmz1M3Z+Ql6d5s0dohZfAlFrF7iA3r0Azk3bfWCSy3+31M0/zZjtye/S9SZK0P3sAANCZqqqqnZI2ua47K925JJvrutNt294pab/neZ8IBoMUY4AM5zjO1yUZz/MeTXcu6J3SUJDxa8UtjtxbClQR13vpkuh8I9fMa94Z3Nmn1av2aI7TWft2igblw1LynCqeHSF3thP9E3/xouLZfL1z2YcKrKrR9A5bRZ/jirx2z0eeVZvn1i3xPnsAAJBulmUtN8Zcm+48kshyHOdXxpgFOTk5n/U87850JwSg50aOHFko6R7P8y5Pdy7ovdI0QqZRE5SvZW0/XJcP0m1q1IS05NSZTMs3QcqH6cwNDXp5lafAKk+BbhQvKqpimBXnDdAzatSE9fmMVgEAAK1EdyQpcV33xHTnkmi2bV/pOE6TpBc8z/vijh07AunOCUBi+Hy+NVlZWWxxjU6lbQ2ZWZMbdNvTBZpbtk+lkiS/Vjydq0sm1+mdDc2t8jRv9hA93nw4pVaBOfWRtrccq9uiw0Mu+b6npWUto0evm1KrwGkD5N6TGzldWqeXb2++nyKjTJrfm9KgS3qar1egmddn64bDo0HyNG/2AJ276mC0QYu873Ei+c1RtE1nI0i60LIfrfrYwfOLo9/x3/OIF1c4uny9JB0rd0P7bSTpxWfypckf6oHJQ3TN637NOS+ko57VIEkfq8Vzq++i3wN07vely6PvT7isVrM2DOn82XsFmnl9vt6I5nXk56q9eB9q9Xmh7jw5AAAQJ8uylofD4WslzU13Longuu5x0UV7KwOBQB9aQgBInFjWcUpUm0THcl33nnA4/Kuqqqo3Y2mP/it9i/qe8rFu3XCslpXvi3zoLR+k21Snl0+RrjlckKnX0lX1Wiop8qE4Xytm1WuON0i3ldQqcHt9O4H9WnHLEOn7ngJOgWYub9TLq2pUqsj0m2ue9Uc+SHsFmnlPlm69z4uM+igfJne9dGuP8u1KSHNu/1C65Vi9e+GRD/tdy9Zt1zu6re3p0sZIP57uoI/tPb8zsvVMrP0uq9EjGx2dOTu/dQGiw3u2vnz6HE+PyNG9xZ0VL/L03PpGzbovpFI1SNcP0ovn1Wj6Uc8qUqA5/Nw67bck5eryjbUKrKqJFloGaNyqD3VrR8/eK9DM63M16z5Pq53m4xFacV/zqKC28ZrzBAAAyRYIBB6IjiTJ+IKM4zj/YYz5VnTR3nXpzgforRK1OHdXbRIZa9r6xcZ13S8aYyYEg0FGx6BLadxlKaQZkxujo04Oas3TubrkwhqVqqBNuzajYTxJTqMmrB8id0d2m1EXWbr3lmOlyR9qdZlU8Wyu3qjI1pmz84+Em5ItKSR52XpjSl3kw7cklR3UJWrRrtv59lCrURqNuvW+2uhrm+lC5cPkPi3teL2TPko66vm92xRXv6fP8RSYE4nhrmzQI6tqVNrhPePpV6Q/Fc/m6/EpdQo4knRQs0qP1XPl0vSyTqOpost+N+iROdGCnXNQs0qH6P3OpkO1/Xlw9umGKY6e8yQ5HcebzvozAACkgrEs60Hbtr8TDAZ/nO5kusN13TPC4fDDkh7zPG9UuvMBkBzhcPgMijGIVVq3vS49r06XrByiZSuy9XhFgx4pk9TyQ3P5MLnR0RwBJzpCQoouxrov8v5s56gpS29UtfhgfniaU2sVgazE55sIzX07zK8VXV3TQR/be36bPoy/35GRPZ7GrXB077N+PdDhPTsZ7XNUvyTJrzUbsqWKIXLXDzlyutXUsE501G8AANDnGGOWW5b1tKSMK8g4jvMTY8zJ2dnZM6uqqt5Pdz4AkicYDC5Odw7IHGktyEj1mntZvs5cmasJl3141PSPikCWNKUuMjLEG6BnKqSTJKk8Ty+W1Wt6WY1evmyErgn4pTJJatINt9fq/VuOlbtCCsxq0ISV0WlOjqTyAq1w9mmOI5We0vq9imfz9bg6mbIUQ75yGnWScg+PnIjEbNK5CXlW7Ss5peM+tvv8zmrQhJ/H2O/yYZqnmmixy6/3d0gnnRZSqdPxPeNSPki3VURG3Rx5lpF1bw5PDetA2+9ft3No5kQXFW6O5xXo3vWNmtXnN9kEACAzeJ73tuu6XmFh4bRdu3at7axtIteC6Anbtr9iWdbDkq7zPO/byb4fACCzpLkg0zzqZIDObWeNkdLz6nTJ7OjoidIGXdI8ZKJMem62o8j+YQ16ZFVIR7pyZO0Rd3mdVl0mzW5efyW6kKskydmnBy4boTMPv9egS9T16JHO8j1csInGnHBZnS456hFHpz61WFi2R47qx5GY7T6/YXH0u6xG565w5N4TPZ5Sq0CZJHV8z3i8uLG9wlb0GW7M09Ky+lbP6uVWz607OXTy7J19Wv39YXIPr9XTzjQxAACQVsaYB3w+3zWSOi3IJGotiG6kKElyXXd4dNHej/1+/zGVlZUHu74KANDfHP4fkeM4xvO8Lhc86kpZWZl5/b62+0MD/c8p15epvLy8x3+nAADAEa7rBkKh0CnV1dXtThxP5OKcsSwG2pbjONdLuskYc0UwGPxjvNcDSP3f43T/dwP9F9vsAQAAIGMYY5bn5ORcm+482ioqKppo2/Ybkoo8zxtBMQYA0JW0T1kCAAAAYtXQ0LA8Nzd3h6Rb0p1LM8dxlobD4anZ2dlfr6qqejPd+QAAMgMFGQAAAGSMmpqafY7j/N5xnK95nvdoOnMpLCw8z+fzPSzpvzzP+0w6cwH6mkQtzh3relC9ZTFw9C8UZAAAAJBRwuHw8qysrPslpaUg47puXnTR3gE+n+/4qqqqmnTkAfRlmbqGTFf3AlpiDRkAAABklF27dr1mjMlyHOfUVN/bcZw5xpg9xpjHA4HA+RRjAADdxQgZAAAAZBxjzHKfz3etpCtTcb+ioqITjDEPG2M2e56Xn4p7AgD6NgoyAAAAyDjBYPBhx3EeKCwsvGbXrl11Ld9LwFoQi1oeOI5zezgcvigcDl+xa9euV7uXMQAArVGQAQAAQEYyxizPysq6VtLdLc8naC2IRYWFhdOii/Y+6HneiT3PGACAI1hDBgAAABkpKytruTHmWkmybXt0ImMHfvySsrKybvH5fJM9z7sjkbEBAJAoyAAAACBD7dy5s0rSdsdxtlqW9TfXdROy9bRt2wvzT3YVCAS+EL0HAAAJl/CCTPGxoYpExwQyEX8XAABILsdxKiV9SlKpMcZvWVY4EXGDweDiIf/CDCUAQHIlvCBTd9Dau3nboESHBTLKm5X5+vigtT/deQAA0JcZY5ZIapIky7KywuHw3jSnBABAzBK+qG99Y9bc//v4qD8+deOWIYmODWSKH/62uLb+QPZN6c4DAIC+LBgMLndd94NwOPyoz+fLPXDgAAUZoI9IwG5pMbdJdCwgVgkvyGzYsPmVy//1hBlTbp647vbLtuW6xzb4Su2Dib4N0Cu9WZmvH/6meJ8/23z71U1/X53ufAAA6OsCgcDvi4uLT2lsbHz0o48+qk13PgASI0G7pXXZJpGxKNggXknZ9vqR3723ccKECccvfvy42w41+mYMGdQUqqr2lybjXmhfdXW1hg8fnu40+pXiY0MVHx+09tcfyL6JYgwAAKlTVVX1T0mT0p0HAADxSEpBRpLeeOONnZK+maz46JjruncZY77ned5Sz/OYNpMi5elOAAAASGLqAQAgMyStIIO0sYwxC6Jf3yiJggwAAOhXmHoAAMgECd9lCenluu79kkKSZFlWyHGcpWlOCQAAAAAAtEFBpu/Jk7RL0gFjzC5J+WnOBwAAAAAAtMGUpT4mEAhcJUmO4xjP845Ldz4AAAAAAOBojJABAAAAAABIMUbIAAAAAAB6DcuYdYnaLS3WBboTEcsyZl0s9wKaUZABAAAAAPQaf5666Kx05wCkAlOWAAAAAAAAUowRMgAAAOhTEjD1YFHisgEAoAuO48Q0tw6Zge8nAADoj1K97gQAAN3FlCUAAAAAAIAUoyADAAAAAACQYofXkDHGrGOaCwAAAAAAQPIdLsgEg0G2FutDKK4BAAAAANB7MWUJAAAAAAAgxSjIAAAAAAAApBgFGQAAAAAAgBTL7roJAAAAkBksY9ZNW7+4y7X0umizKPoHAAAgPizqCwAAAABA78WUJQAAAAAAgBSjIAMAAAAAAJBiFGQAAAAAAABSjIJMH2WMWZTuHAAAAAAAAAAAAAAAAAAAAAAAAAAAAAAAAAAAAAAAAAAAAAAAAAAAAAAAAAAAAAAAAAAAAAAAAAAAAAAgoWzbXug4TlVJSYnbfM513Sdc130inXkBAAAAAICj+dKdABIjGAyiRSJ4AAAgAElEQVQutizrlUOHDn1LkgoLCycZYz6VlZX1vXTnBgAAAAAA0GeVlJS4juO87bruF23bfsW27YvTnRMAAAAAAECfZ9v2xY7jGKYqAQAAAADQezFlqe/5pKQt6U4CAAAAAAB0jIJMH1JYWDjJsqxLLcu6KBwOFzNlCQAAAAAAIImGDx8+uOW6MdGpS612XQIAAAAAAL0DI2T6CL/f/3Ofz1cVDAaflKRgMPikZVmvNDU1/SjduQEAAAAAAAAAAAAAAAAAAAAAAAAAAAAAAAAAAAAAAAAAAAAAAAAAAAAAAAAAAAAAAAAAAAAAAAAAAAAAAAAAAAAAAAAAAAAAAAAAAAAAAAAAAAAAAAAAAAAAAAAAAAAAAAAAAAAAAAAAAAAAAAAAAAAAAAAAAAAAAAAAAAAAAAAAAAAAAAAAAAAAAAAAAAAAAAAAAAAAAAAAAAAAAAAAAAAAAAAAAAAAAAAAAAAAAAAAAAAAAAAAAAAAAAAAAAAAAAAAAAAAAAAAAAAAAAAAAAAAAAAAAAAAAAAAAAAAAAAAAAAAAAAAAAAAAAAAAAAAAAAAAAAAAAAAAAAAAAAAAAAAAAAAAAAAAAAAAAAAAAAAAAAAAAAAAAAAAAAAAAAAAAAAAAAAAAAAAAAAAAAAAABIgSxJ17f4+suShkuaJylH0n+lKa+0KywsnOQ4zgvDhw8fnKiYjuM8VFhYOKn52LbthbZtvxLPPRKdV9ucXNd9wnEc4ziOsW17YSLuAaB9vnQnAAAAACChJrT4k9vmeLCk0S2Ox0m6L3rdUEm/j55/UVK+pP9MYd79RklJies4TpVlWadblrU/3fk0KywsnGSM+bnneVZ2dnaRZVmXtizWdHRNMgtXtm1f3KJAdHGi7gH0BhRkAAAAgL7lDUmbJb0pqUHS29HjtyXtl1Qp6dfRdj9tcd3k6OtXJd0qaW9q0u1/duzYEfA8rzgcDi9Kdy4t7dq16zXP816QIjlK+n/pzKekpMS1LOsMz/OscDh8umVZVyWy8AOkW3a6EwAAAACQFCb6+rXoayj6+nVJn2nTxpLUGH3dJek6SQsk3Z38NHu3nJycJxzHOccYs6GxsfHs6urq/bZtL7Qsa5EkWZb1ZCAQ+EpJSYnb2Ni4UVJRy/Ou6z5hjGke2bFP0s9SlVdWVtb3uptTdIRKSVNT0/8mIt/uiBaF5rU8VV1d3WtGFAE9xQgZAAAAoG/xt/g6T1K1pD0tjj/QkeLMNEl3SfqcpOcl/Ycia8nkSLIVKd70Z6cbY35x6NChAknKzs4+p7CwcJJlWWccOnSoIDpyY4tt2xc3j3rxPM86dOhQgTFmiOM4N0tS8zlJr6Yyr0OHDn2uOznZtn2xz+d7Ojs7+xuxFkCiBSLTck0c27YXNk83cl33CenIdK2251uuXSPp8NSk5hiWZS09dOjQvHZvDmQoCjIAAABA3+K2+PpHikxRqo4e3yVpfYv3w5JulPRy9Pi/FBkZ85EiIxN+lcxEM8CrjY2Nz1dXV+/3+XxVkmRZ1jmSZuTk5OyLFgoWSfpky0JDTk7OPkmnSxoTDoeflKRoYWNHivOaFG9Orus+4fP5LvY8rzg6QiUWSStcBYPBxZ7nWcaYeTk5ORtLSkrcDnIAMg4FGQAAAKBvOVmRtT9mSJojqVRSUJFRBz9IY159xf9alvWk53lW859gMLj40KFD3zLG/Kx5QVxJAUny+XwXS5GRIYqMREpZXpL2x5NT86K5gUDgK3HeO+mFq+jUqQ9CoVBJnLkBvRYFGQAAAKBv+ZykDZIOKjIC5jOKLOBbHz2HHggGg0+Gw+EtzdNrHMepje5O9LxlWdc7jmMaGxvfltRkjPl1OBwujp7bqMhopZTlZYzZEWdOnzTGXNwiRk+2vu5x4cq27Yubi0RZWVmflHSc3+9P1CgjAAAAAAAS6iVJ/2xx/ISkf0jSPau2x/ThOpZ2va0N0qPttteu6z7RXERpuYZMc+Eq2r62+ZzjOG/Ztn2WbduvRM9VOY6zurCwcNLw4cMHtzhf29UW3ECmsdKdAAAAAICE+lhSgSKjY6TI9tefldRwz6rtpsOrernvzx7FZxcAAAAAANBrTW1zfHg9kFgLMrG0621tACDTsIYMAAAAcMR/SLpJ0hhJiyWdHX3Nib5XmL7UYrauzfET6UgCANA5CjIAAABIpp9Lypb0P9Fjn6RbJQ1SZNcfSfqzIlPpx0kakeL82qpTZGvocZIWSnpBkR1fDkl6TdKu9KUGAOhLstOdAAAAADLKXToySuQFRUaQNHtF0hpJi6LH/ynpR5Iao+cKJWVJ+qsiBZgno+1qJRlJfkl7kpb5Eb+UtFLSWkkDonlvlPTvkm6U9BtJf4q2zZe0RdJ8SUtSkBsAoJ+gIAMAAIB43KhI8eQcRQoyj0naKul8Sf8bbTNDUpGk70h6MHpuYrT9/ZJsSV9uEdOT9G+SfpHk3KVI8cdRZAtoRV9nSiqJHn9V0m8llUWPbUmlku5NQW4AgH6EKUsAAADojo3R15MlHadIUUXRr8dFv56hSPEmJ3rugCKjZGYpsjVzs8lKTTHmbUlX60gxptleSW9IulyR0TtnKDKNSpJOkPS8Iv1AGtm2vdC2bba/BtBnUJABAABAd3wUfZ2iyKjruujxTEUKL0MlXSdpVPT9JYoUY74bbXelIqNPJGlS8tPViZJOUmRET1sHJDVIekRSSNJBSV+Ivrda0ocpyA9dCAaDi30+n+U4jqEwA6AvoCADAACA7voPST+Jfn1I0tMtjvdK2h79cyB6blf02ERfgy2uTbbbJb0lKZyCe/UqjuOcbdv2EsdxXvrJovNk2/Zr6c6puwKBwCLP8ywKMwD6AivdCQAAACDjhHRkgd7wSz/Sh1MnJiiypUXWFC1OULSWyiX9XdI3kxC7V3Mcp1bSYElWVrZfp02/QpNnZN5j+P7sUUd9dnFdd5ExZqExZlEwGOzxz8348eP9A4cPWWYaG8/x5ec2NlXXlfY0JpIra3h+RfjAob2+xqa5f9vwt1fSnQ8QDwoyAAAAiMdASTWK7FJ0laQTzTq9Y03V99XJLkRmnYw1tfN/e8bSpgdWKzJqZ3aS4vdajuN8S9JSSfnZObna8UFll8/4nlXbTXsFkN7apqeFGdu2F5ZMOuEX4Z312/KuPEVZIwZn+ezB8YaRJO15apNGXHRqt65Ndry+GqtxW43qH9tca3J9Z+987e1zElGcA1KBKUsAAACIR7EiI2Ouih6Pir729i2hr5Z0qY7+haRP0umpTyc1HMf5nqQbJP1OUv2UL89Nc0bJ0dOpTJZlLQrvrN825N7zs3I+5Xa7GCNJ1U9t6va1yY7XV2NljxmmgpumDdGe+pcsy1qUmKyA5KMgAwAAgHh8WpGdh5p9Ml2JxKlSkdExbyqy4LAkjVVkR6VX05RTMvkcx3lB0ijP807Kysr6ljFm4fjTzk93XknVk8LMgCtOYfZAhhv49VNy050DEA8KMgAAAIhHtiLFjWavpymP7nhM0qcUmbokSVslvZy+dJLDtu1zHcc5ZFnWvZ7nzZOkqqqqA8FgcEl2Tv/4vNqdwkzOyMF8NspwWcPy+B4io/ADCwAAgHg83ub4r2nJAu1yXXe5z+e72vO8rEAgsCbd+aRbPIWZnkxTQu+QxfcQGYaCDAAAAJDhioqKTnAcZ2s4HH47EAicl+58epuOCjOu6/7Tdd03050fgP6JggwAAACQwRzHuS4cDv8hHA5/MRgMPpDufHqztoUZSSOMMWNij7BXoZjO9UzIS3DAHkp0Pr2tf0C6ZKc7AQAAAADdYjmOs1rSO57nnZjuZDJJIBBY5DjOV40xxzefq3urSvknNypwc4U0WTpYNUzFV0+Uv7mBV6nA7/bKr/e1T6eq9OrR2v/gU9qjcSqQVNCybSuVHcdUpQI3b5JKhknFpRpetFfVr0n+4hrt2zBMxXdMjCHOXoXKy1X1Q2nEY9PUPGkn9IentLXqVH3i6tFx5tPyvaGqvrlC/snSvqpSFV89Os4+tsmtfLMCbfrX8b1bP8/W/Wm/z0CmoSADAACAHjPrZBLSZr0WWlO0OBE52ba9MBgMLj799M/MzMtrvHPQIDO4qspf2pOY+/fv1+DBPfv4V1wcqqitzfLn5ITX7Nnju3XXrl1XBYPBuPps2/aXLMt6VtJMz/NeiP1Ks+6eVdu7/D5IUiztUtfGrOsqRjyKi4uPb2pqKmh5bveqjSo6PSxddJHcMmn/g09pnzdRw51oA2e03KslabT0YKVC3mbtKZ6u0vOHtg3fSugPmzqO6e2VJk+X2yKGWxZ5za2KtO0yjic1OKUqKK1ocddKVW+Qckviy+eo914cJl00TcPLpNwH16pB7RdkYs6tbOJR/evw3i2fU9v+tNtnIPNQkAEAAECPWVPV6ZbBZp1MTG0SVIyRJMuyFn3jGye8EwrV//QHP6gq+PSn63oc03UdvffeP3saprSiYoACgdwrb7llzOzdu62BUuz9tm17mWVZpZ7nxb38wPdnjz4r3mv6oqqqqn9KspuPHccxY27/P9r/4FPynxo5l1ss7fckOUeuC5VXat9rFQpNmiZtekoDqqTAze/rYElkxEx7GqrUacyDG8oVqJL8/zqtVQFi/45xGu5Ie7qK4wzVYEkNhyPuVfWDFRo8d5wO/i6+fI56b1iZ/K89pcBrw6TiMrkdPM/Yczu6f13n1U5/OowLZBYKMgAApND48eP92YOGLzPhxnPC/vxG/4HqHv22PjRweIUvVJdtZWc/37iveu6WLVuOWsqgeZTA+PHj/Y6TvSwUMucMHRpu7MlIgUSMEiBmYmMWF4cq9u71Zfv91vOe1zj3ww8/vCneURd9UShk/fTRR98t6LplapWWHlRp6UHf+vWbB7quo8mTJ56xYcPmVzq7pri4+PhwOLxa0o8CgcDcFKWKFvzOUBX86zBVL9us0GRJkybKvXqiQn94SoHy0YdHf8TMmajSOyRpr6pvXqv9d0zTYG+zKpapzXSe2IX+UK7QpGkars2Hiznd9n659hVPV+n5UvWD5ar2prUqonRLnP1LaH+AXoaCDAAAKTL2X2aV5Nbt3LZ13EUK5Y/IOpBnd31R10oH1gflr9991di3H/nm2H+ZNWbrX57Z0bKBZVmLLr107C+2bs3ddvPNW3XccaGssWMP9OimCRolQMzExizdunWgtm/3X3XjjWO/WVNjZSmOURd91Q9+UNXrijHtGTiw6b8lndrR+67rfrepqenapqams3fv3r01han1Ky1HZrQcsXGYM1R+TdTgkrUyRcMSE1OSNFS5JTVqeGOz9rwyVKV3jO5mnL3aVyWpaq0CqlHDDqm6fKiGlw2NKU7b90x9jQq+Grm2oLhG1W1G98SXmyLFmN/F07+u+wNkMgoyAACkwPjx4/25dTu3lX9+SVaiYx/Is3Ugz/aVf36Jyv46f9v48ePz2o6U2bp1yLaNG8sTfm/0LmPHHtDYsQd8GzeWy3UdjR8/3t/eqKn+JBHTlFJh0CBzTEfvOY6z2hjznud5J6Qyp/7If/6p0s1PKfCadFCnqtSJLCZbXTRdw3eWq7pKkmp0sPhUlZYNVcODkek8B3eMU/Ed8cd0VanAazWHYxZ/sEn7dgxT4MHI2ij+f53WYZziTU8pUDRdbqvixFANvzp6jbdZB393dPGi03zavvfVvapYtlahEsXVx/Zzk0Kb3pfa9K95xE2HMbroD5DJKMgAAJAC2QXDl20de2Gn62ckwtaTrtDo959aJunbLc/fddfWpN8bvY/jZC/bsqX1zwJ6p/amENq2PdOyrD8qsnDv82lIqx8aLbfN6A3/+RdF1k4pm3bUGirDr76oZzE1sc00p9EqPb/11XtavNc6zugW+QzV8DumqRVnokqvjjefoUe9V9pBEabzmB3kdv5FR/Uvthhqpz/t9BnIMBRkAABIAdPYeE4ob2TcC3DGK5Q/IsuEG89pe37UqFDS743eJxQyR/0sIDPYtv3flmWN8zyPYioA9FH84wwAgBQI+/MbE7RmTKcO5NkK+/Mb257v6ZoxyExDh4aP+llA71ZcXDzOtu1/+ny+f3qe96V05wMASB4KMgAApEBPd1PqrfdC79aTnbSQOBUVsbVzXXduY2Pj6uzs7JmBQGBZcrNCW+Hg/nSngB5q4nuIDMOUJQAAAPSYWSeTkDbrtdCaEv/uUK7r/tIYs9fzvHnxXitFiial3Spf5WnezAHSLOmddxv1wNJ9OhzmxQLNe0468cRsPfNMox5YvU+l8qvixUG65nLphkCNpkeb1tTUKBwOHx8MBo/vThY9cL+k4yRdIOl8Sf8mqVbSEElfkfRE9L0+r2nP/iafPZjFzzNY+MP6sBh0gAxCQQYAACBDdL9okHhtCyDWVHW61olZJxNTm24UYyTJGPNFy7JGOI7zPWPM3cFg8MYj7yamaNKeihX50g17tHS69OK8EVpTIc1pDj59n5ZGLx73bvQ9SRWlBzVrwoBWcfLz81VZWfnd7vS9h26VDn9fXpT0gqSxknZIKlSkKNMv1P/P6xpyb9tle5FJ6h99vUHSwHTnAcSK6iEAAL2If7/X7p9UinV6RTrjJiPH9Pc7T/NmDtO8FcM0c16BWl32YoHmzSvQmjXDNHNm83t+Vbw4TDPdYXoxwTnHIloA+Y7jOF2OeomFbdsL3dmOHMcx3fkjaZgxxi9JPp/ve7Ztb2iOHSma1GjpnBrdoFytaflwp+/T0qX7NGdOjW44KfpeRXPRpOu8K96VTowWYEpPlN5t9/udp+feadCMUkmlIU0vPXppn9zc3MgzcN1LY35oHfuSJCPpTkl+SZdEj2+WVCDpxOjxVyX9QNLe6HWfkxSSNEnSAUnDJB1KQD4ZwVeUN6b2hj80NbwZCDN9KbM0bqvRvjvX1loj86emOxcgHoyQAQCgt9jvKXtftPiy/2nl60LVDW5+01FocEcXxiNZIwXijSupTezk5thb+t1x3ESNtGjLtu2FlmUt6rRR9xxoLoBE77MhGAxO7m6wYDC42KzToq5G0XTEcZwqy7JGGGNyjDFLg8HgTc3Foop3pRNnRNqVnig9VyHpqJFGkaLJ3FJJCmm6pPe725mWKgo08xq1+LnvWDAYXGzb9irbtmf7fL7ZgUCgvpt3/WP09VZFCiq/jR43b2B8UNJESW9Iek3SLdHzx0VfJ0saKulH3bx/xjHGLPrbM3/ZMX78+DzfU28uO9jYdI4vP7exqbou7jFpgwYN0t55zyQst0TG64uxsobnV4QPHPrI19j03b89/7eNtm0vSkhSQApQkAEAoLcY7Kh+sBP5eudGDVCZ6osSe4tkfeiPO26pWoxCGNCzWDHk2Gv63UncZBUNgsHgYql704A607IAIsnqSTEmESzLet4YU+t53g1xXxxH0aStlt+rlt/Dw3GXNWr16tjrKsFgcLbrul82xuxxXXduIBD4RZwptdQ8FOevLb6WpHslzY1+/QdJuZK+KenH0XNjJH27B/fNONG/J9qyZUtI/azvfU3z9xLIBBRkAADoFTzlvfOMBtRGD2t3KEsrNKwqejzkNH18UplCPbxLsj70xx9Xkakb7cRORo69p989GHnRg6JBMrQpgCRk2lJPBAKBqzp6L9FFk1ax59RJM0do3nPSO6rT6lKpYsUILRtXq7nv50rvZGvevEgB7sS5NUcKdp335feS8m3b/rnjOLMty5odCASq40hrUPTVSDpV0nRJ26LnLpL0vRZt/2/09cctzrV8QgCAJKEgAwBAr+Co/qQ5av5ImPfaLcofMks1JzmpTSNZH/oTGTcZOfaCfiezaJAMnRVAeptkFE2OqNfSNt+X0jl7tFSSpu/R6jntXRPSnNU17b3RSjAY/KbrutONMW+7rrs4EAgsjzEpV9JuRRbrHSxpuCLrxAyQtE9SU4xx+g3bthcGg8HFp556+swB+Xl35ublD/5o185u/edg//79Gjw4IXNMidWFYwqLKuo/3ufPys5Zs79mz61vvPHGzoQkBaQIBRkAAHqb/c8qXxeqVs+oYP8c7UvMv3klJe9DfyLjJiPHjOh3UosG/V3yiibJFggEXpQ0wrbtZY7j/L/oaJkPurjsBEnvSHpckV2SpknyJC2VdHVSE85QlmUtOu/iy99pajz00xmXf6+gaNzJ3Y513Yxxuv03mxOSF7G6VFq9s1K1uwNX/v4nt80+7+LLpz775CMbE5IYkAIUZAAA6EX8O5/VkC1S7YwyheRowJpbVDD+Wu0rSsxImWR96G8vrhSJfcd7lvROY8xxk5FjKvvd/biZWzRA8gWDwbmu655hjPmr67oPBAKBH3bS/ERFRsWcHT0+TdIQSdclO89MFg4f+uk3bnuoIN15ID7Di0ZreNFo37wVzw/82Y1fW/PZyZO/9LcNG15Jd15ALLq1ij0AAIhPWVmZKf+X+zptk/fOLZGRMa3WiomsLZOv07TnpLLY7vWX61VeXn74//GO45hAILFbZ7uuI2L2/piO47T6WUgWsy6Ba8hYWmRNScwixJn0s//Zzx5b8fvfvzU2lva2bd9tWdaM6GiZd9pp8qikv0j6afT4t5KekfQ/T/7j45eMrKkJSTyFLJl1F39q0FnJiu84jvnBj3+nnoyMaXbdjHG6f01C9ugiVpyq3ntTv/nvW15/ef3aUxMSEEgyRsgAANBL1J90u46e3NJ6bRmgt+pqu2qzTiamNgkqxjSrqBig0tKDiQyZFHv3+mL+d3kwGFxQVFS0KhwO/9Z13ccDgcCiNk0G6kgxRpIcSf8jSUbW1K98Kr/LIt0T/6gzXbVLdZvO3k+ERBRjkF7FJ3xauXn5x6Q7DyBWvnQnAABAfxAaOLyiL94LvVtxcajf/ywEArnhdOcQC7/fej6e9jt37tzsed4nwuGwcRznXdd1Ww6hu7BN89N7niGQGbq7GDOQDhRkAABIAV+oLntgfTDp9xlYH5QvVHfUb9q3bh2Y9Huj94ln1EVfdcstYxrSnUMsPK9xbneuCwaDi30+3/nGmJ+5rtvZujIAgF6GggwAAClg+bKf99ftSfpWs/763WErO/uo37R/8IGfbW77oXhHXfQ1xphFo0bVnXXhheNrN28elJCYN9ywPyFxtm4dqJdeGtJ02mllTX6/lm7ZsiXU9VXt27lz53ue550SDof3OI6zw3XdMxOSZB/nuu4Zo0ePHhr7Fdu0u52zu6sSllKX90qXRPfx6HhrtfLaBVr55AItWfJQ+8/5yQt03ZK1krZp96sLtGTGAr2V2LSAlOv3vzUBACAVGj+unjv2nYe/WT5iSVLvM/btR0zDwQNH/aZ9wYKx2rixPKn3Ru/T3VEXfUUwGFz8q18FNXnyxC/dcMOYZYMGmaFVVf4eT2f49a97dn1xcahi715ftt9vPV9f3zB3+3av28WYloLB4D3RtWVWua77RiAQuDYRcfsqY8zahoYGOY6z6cjZtVp57QvSFMnbfrwun3+VRkpS1VqtfKxCjp5TueZq/vxp0qsPaeXLkjPqnypff7wuXx5te5QOYkbtfvIC3b59ru6fP02S9NaSC/S8zlVZTDG2aferK/TIrdI5a+7WyZ3E7TpWe+cj55wpUvn2s3X5/Gnt9LGz/rXJr51nFsl1mfS13+qy0yP9f6vqKk0rbn2PP62XSkZLqpJ2F5+tshNeaPdpA5mEggwAACmwZcuW0Nh/mTWm7K/zt239xOVWKG+k70CenZDYA+uD8tftaRr7zsOqzS8as/X1Z476cDd2bO2Y004r23bXXVutUaNCvrFjDyTk3uhdtm4dqA8+8DctWDBWkpfVk1EXfcmGDZtfkXRKuvNoVp7E2ujOnTurJH3etu1rHMf5MLoT05rjjjvumEOHDk01Julr4/ZmVmFh4WjLskb7fL7RxpgGSQWSPidJ9333Qn3t8+H2CwPF03TZ/GmSviAt+bN2a5pGnn6VLouuzjNye3tFhIjOiw0tCg2SVPWQnh91n+ZfPEaS9MyauzqP0WFxok3cGPJp93zVC9LX7ta006WRSxZE+h1P/9rm184zk6Td2yVncvT8KOmNKkmHn9E2rV3ygibceK68xyQVj9HJktYe3TUg41CQAQAgRbb+5Zkd48ePzxu99ellprHxnLA/v9F/oLpHv60PDRxe4QvVZVu+7OcbDh6Y214xxhiz6LHHtu4YP3583p13jl4WCplzhg4NN/ZkpMCgQft1yimxbcNNzNTEbDvqwhhzU4LSQwYKBoMPFBcXr2pqalpl2/alhw4dGiZpesVbm7q8NpPZtj1a0mifzzdG0mhjzGhJzX9KJFVallUZDocrLcuqkVRgWVatMWbI9f/9tN5ackGHhYHdr67VWy+/IO/Mu9V6zMlavVF5rr7YTjFG6qzY0KbQIGn3hufkbJdWXvucvNFzu47RbnHi6Lix5NPu+dPnyFlygVa+fII0ao4ui6t/HeXX+pk90/5jOxL/yRXRZ/6Q+vUcTPRJFGQAAEih6IiFb6fynsFgcHHzvbdsSe29kTrtjLpI6PbRyDxVVVU1ks52HGeppIsl5f/q7uvTnFXPNBdcFCm6jFbrossoSZWSKsPh8Lbo13+2LKvSsqzKQCDwQctYruv+1BhzlSL/TW6ndNHayOIxOvnS4+Xd9ZB2n948lekhLblLnUxX6liHhYYzr9Jl86+KTDmKM2ancbvj1RUqH3Wf5l8srV2yQmur7m53FFBc2nlmHRWGpG16a7uk7Qu0Uu9pR6W09tUxmsa+YegjKMgAAACgx8w6dTkXJqY267XQmkIxKZEsy7rGGJMjSXX7avWd2x4wUy+4ssvrnvhHXZffr1S2sW17oWVZV6rFKBdJLzUfe563vasYLYVCoRuqq6v/XZIcx3lM6qwwIKl4jEbqKk0YvUC7JY2sekhLHivV/OVt12hprf2YHRQaSk6II0Z7OipgjOkyVnvn33rsPZVdGqwhGTUAAAJqSURBVLn25FHv6U+tphLFm5sixZh2ntnIi+dK116glS9LnuZqfnFkDZw/ldyny+bfffha77HSaF+2dXITIHNQkAEAAECPWVNldfa+WScTUxuKMclwvTFmhmVZY3L8/pN/8+P/2vjjW6+Z1NkFT/yjznzlU/mdfr9S3SY62i9hPx/V1dVHbZnVtjBw+YYLtLLkPn1xxwr9abskvSdv1FzNV2R6kSpP0MolkfVRnEvbHz3SUcz2Cw1Hpgh5ledK+ke7MVoVLFqNFhmjae3GjSGfdu6hS8/VkrsWyBsteZXn6vLlXfevdW6t793eM4uYpsuOKtL8tvUUqeKrNH9+i34uv1tApuv0P3wAAABAV2IutiSgDXomluJHrO16W5uecBzH3L/m/YTEum7GOBErPbEk6a4rPq/y8nL+O4KM4Et3AgAAAAAAAP0NBRkAAAAAQJ9wTGFRRbpzAGJFQQYAAABAv1e9szLdKaCHqnduU/3+WtZJRcagIAMAAACg36vdEwinOwf0zIfeB+GcHH+Pd/sGUoWCDAAAAIB+7/c/ua0h3TmgZ5758ULz4W5vbrrzAGJFQQYAAABAv2aMWXRMYdFZP7vxa7VV773Zo1jnfP27CcqKWLGo3rlN773+l6Yf/tvUpmHu2DFbtmwJJSg1IOmYXwcAAACgXwsGg4v/+PRj+uzkyV/6zf03L8vNHzT0o107S7sb740Xn0xYbsTq2DGFRRX1+2uzc3L8zx+or5+75pnHKMYgo7A/OwAAAHrErNNLkqYmJJilRdYULU5ILBzlyX98/JKRNTXdecTLkll38acGnZXuPAAgkf4/hjDYXAHLVqcAAAAASUVORK5CYII=;" vertex="1" parent="1">
          <mxGeometry x="90" width="1124" height="946" as="geometry" />
        </mxCell>
      </root>
    </mxGraphModel>
  </diagram>
</mxfile>
